<svg width="100" height="100" viewBox="0 0 100 100" fill="none" xmlns="http://www.w3.org/2000/svg">
<g clip-path="url(#clip0_202_488)">
<path d="M49.9999 81.5131C35.3787 81.5131 23.4829 69.6072 23.4829 54.9735C23.4829 40.3397 35.3787 28.434 49.9999 28.434C64.6213 28.434 76.5163 40.3397 76.5163 54.9735C76.5163 69.6072 64.6213 81.5131 49.9999 81.5131ZM49.9999 30.7714C36.6661 30.7714 25.8186 41.6284 25.8186 54.9735C25.8186 68.3187 36.6661 79.1755 49.9999 79.1755C63.3331 79.1755 74.1808 68.3187 74.1808 54.9735C74.1808 41.6284 63.3331 30.7714 49.9999 30.7714Z" fill="#1F2E75"/>
<path d="M77.4244 44.3701C76.9716 44.3701 76.5406 44.1053 76.3507 43.6625C75.9846 42.8086 75.57 41.9605 75.1195 41.1421C74.8082 40.5773 75.0141 39.8661 75.5791 39.5546C76.1443 39.2442 76.8548 39.4485 77.1655 40.0145C77.6524 40.8991 78.1006 41.8168 78.4969 42.7401C78.7511 43.3338 78.477 44.0208 77.8845 44.2754C77.7345 44.3393 77.5782 44.3701 77.4244 44.3701Z" fill="#1F2E75"/>
<path d="M76.8423 69.186C76.6706 69.186 76.4967 69.1484 76.3325 69.0686C75.7521 68.7865 75.5107 68.087 75.7925 67.5059C76.6883 65.6627 77.3851 63.7199 77.8645 61.7328C78.0162 61.105 78.6446 60.7136 79.2742 60.871C79.9008 61.0217 80.2863 61.6541 80.1352 62.2807C79.6163 64.4322 78.8619 66.5335 77.893 68.5286C77.6912 68.9441 77.2751 69.186 76.8423 69.186ZM79.8251 56.8432C79.1539 56.8283 78.6429 56.2941 78.6566 55.648C78.6618 55.4244 78.6647 55.1983 78.6647 54.9735C78.6647 53.1415 78.4912 51.3097 78.1492 49.529C78.0272 48.8956 78.4422 48.2827 79.0752 48.1606C79.7121 48.0441 80.3216 48.455 80.4425 49.0884C80.8126 51.014 81.0001 52.9943 81.0001 54.9735C81.0001 55.2166 80.9972 55.4585 80.9917 55.7005C80.978 56.3363 80.4579 56.8432 79.8251 56.8432Z" fill="#1F2E75"/>
<path d="M71.5257 76.8143C71.2348 76.8143 70.9435 76.7056 70.717 76.4888C70.2517 76.0414 70.2365 75.3017 70.6835 74.8362C71.33 74.1616 71.9499 73.4493 72.5242 72.7189C72.9238 72.2132 73.6593 72.1264 74.164 72.5248C74.6709 72.9232 74.7583 73.6582 74.3591 74.1662C73.7374 74.956 73.0676 75.7252 72.3678 76.4547C72.1387 76.6943 71.8324 76.8143 71.5257 76.8143Z" fill="#1F2E75"/>
<path d="M50 86C32.9063 86 19 72.0819 19 54.9736C19 37.8653 32.9063 23.9471 50 23.9471C61.2965 23.9471 71.7051 30.1037 77.1649 40.0144L75.1201 41.1421C70.0709 31.978 60.4457 26.2846 50 26.2846C34.1945 26.2846 21.3357 39.155 21.3357 54.9736C21.3357 70.792 34.1945 83.6623 50 83.6623C57.8792 83.6623 65.2247 80.5281 70.6827 74.836L72.3682 76.4545C66.4653 82.6099 58.5213 86 50 86Z" fill="#1F2E75"/>
<path d="M50.0003 39.5203C49.3555 39.5203 48.8325 38.9977 48.8325 38.3516V34.3042C48.8325 33.6581 49.3555 33.1355 50.0003 33.1355C50.6452 33.1355 51.1682 33.6581 51.1682 34.3042V38.3516C51.1682 38.9977 50.6452 39.5203 50.0003 39.5203Z" fill="#1F2E75"/>
<path d="M58.3029 41.7471C58.1049 41.7471 57.9043 41.6969 57.7202 41.5908C57.1614 41.2677 56.9704 40.5533 57.2925 39.994L59.3143 36.4888C59.6366 35.9306 60.3498 35.7377 60.9098 36.0607C61.4686 36.3838 61.6596 37.0982 61.3375 37.6575L59.3155 41.1627C59.0988 41.537 58.7065 41.7471 58.3029 41.7471Z" fill="#1F2E75"/>
<path d="M64.3833 47.8319C63.9797 47.8319 63.5874 47.6229 63.3714 47.2475C63.0485 46.6882 63.2395 45.9736 63.7983 45.6507L67.3011 43.6257C67.8582 43.3028 68.5734 43.4934 68.896 44.0538C69.2187 44.6131 69.0277 45.3275 68.4689 45.6507L64.9661 47.6754C64.7826 47.7815 64.5813 47.8319 64.3833 47.8319Z" fill="#1F2E75"/>
<path d="M70.6517 56.1423H66.6072C65.9622 56.1423 65.4395 55.6195 65.4395 54.9736C65.4395 54.3275 65.9622 53.8047 66.6072 53.8047H70.6517C71.2967 53.8047 71.8194 54.3275 71.8194 54.9736C71.8194 55.6195 71.2967 56.1423 70.6517 56.1423Z" fill="#1F2E75"/>
<path d="M67.8839 66.4763C67.6861 66.4763 67.4855 66.4262 67.3012 66.3199L63.7984 64.2963C63.2401 63.9734 63.0485 63.2588 63.3708 62.6995C63.6935 62.1413 64.4046 61.9473 64.9661 62.2714L68.4689 64.2951C69.0272 64.6181 69.2188 65.3327 68.8967 65.892C68.68 66.2663 68.2877 66.4763 67.8839 66.4763Z" fill="#1F2E75"/>
<path d="M60.3271 74.0428C59.9234 74.0428 59.5312 73.8338 59.3143 73.4584L57.2925 69.9532C56.9704 69.3939 57.1614 68.6793 57.7202 68.3563C58.28 68.0334 58.9916 68.224 59.3155 68.7844L61.3375 72.2895C61.6596 72.8487 61.4686 73.5633 60.9098 73.8863C60.7257 73.9926 60.525 74.0428 60.3271 74.0428Z" fill="#1F2E75"/>
<path d="M50.0003 76.8119C49.3555 76.8119 48.8325 76.2891 48.8325 75.643V71.5956C48.8325 70.9497 49.3555 70.4269 50.0003 70.4269C50.6452 70.4269 51.1682 70.9497 51.1682 71.5956V75.643C51.1682 76.2891 50.6452 76.8119 50.0003 76.8119Z" fill="#1F2E75"/>
<path d="M39.6729 74.0427C39.4749 74.0427 39.2743 73.9926 39.09 73.8863C38.5312 73.5633 38.3402 72.8487 38.6625 72.2895L40.6843 68.7844C41.0072 68.2263 41.7181 68.0334 42.2798 68.3563C42.8386 68.6793 43.0296 69.3939 42.7075 69.9531L40.6855 73.4584C40.4688 73.8327 40.0765 74.0427 39.6729 74.0427Z" fill="#1F2E75"/>
<path d="M32.1158 66.4765C31.7122 66.4765 31.3199 66.2664 31.1033 65.8921C30.781 65.3328 30.9726 64.6182 31.5308 64.2953L35.0336 62.2715C35.5936 61.9474 36.3053 62.1403 36.6291 62.6996C36.9512 63.2589 36.7596 63.9735 36.2014 64.2964L32.6987 66.32C32.5144 66.4263 32.3138 66.4765 32.1158 66.4765Z" fill="#1F2E75"/>
<path d="M33.3923 56.1423H29.3484C28.7034 56.1423 28.1804 55.6195 28.1804 54.9736C28.1804 54.3275 28.7034 53.8047 29.3484 53.8047H33.3923C34.037 53.8047 34.56 54.3275 34.56 54.9736C34.56 55.6195 34.037 56.1423 33.3923 56.1423Z" fill="#1F2E75"/>
<path d="M35.6163 47.8319C35.4179 47.8319 35.2173 47.7815 35.0336 47.6754L31.5307 45.6507C30.9719 45.3275 30.7809 44.6131 31.1038 44.0539C31.4259 43.4934 32.1399 43.3017 32.6987 43.6258L36.2013 45.6507C36.7601 45.9736 36.9511 46.6882 36.6285 47.2475C36.4124 47.623 36.0201 47.8319 35.6163 47.8319Z" fill="#1F2E75"/>
<path d="M41.6971 41.7471C41.2934 41.7471 40.901 41.5382 40.6843 41.1627L38.6625 37.6575C38.3402 37.0982 38.5312 36.3838 39.09 36.0607C39.65 35.7377 40.3616 35.9283 40.6855 36.4888L42.7075 39.994C43.0296 40.5533 42.8386 41.2677 42.2798 41.5908C42.0957 41.6969 41.8948 41.7471 41.6971 41.7471Z" fill="#1F2E75"/>
<path d="M59.7657 65.9161C59.4669 65.9161 59.1681 65.8019 58.9401 65.5736L49.1747 55.7999C48.9557 55.5808 48.8325 55.284 48.8325 54.9736V47.3697C48.8325 46.7236 49.3555 46.2008 50.0003 46.2008C50.6452 46.2008 51.1682 46.7236 51.1682 47.3697V54.4896L60.5914 63.9209C61.0475 64.3775 61.0475 65.1172 60.5914 65.5736C60.3632 65.8019 60.0644 65.9161 59.7657 65.9161Z" fill="#1F2E75"/>
<path d="M56.0463 26.8965L54.6893 26.6729C51.5554 26.1593 48.4445 26.1593 45.3106 26.6729L43.9534 26.8965V19.7184H56.0463V26.8965ZM49.9999 23.9473C51.2252 23.9473 52.4683 24.0225 53.7109 24.1732V22.056H46.289V24.1732C47.5316 24.0225 48.7745 23.9473 49.9999 23.9473Z" fill="#1F2E75"/>
<path d="M55.7581 22.0559H44.242C42.7744 22.0559 41.5798 20.8608 41.5798 19.3918V16.6639C41.5798 15.195 42.7744 14 44.242 14H55.7581C57.2258 14 58.4197 15.195 58.4197 16.6639V19.3918C58.4197 20.8608 57.2258 22.0559 55.7581 22.0559ZM44.242 16.3375C44.0618 16.3375 43.9153 16.4835 43.9153 16.6639V19.3918C43.9153 19.5722 44.0618 19.7183 44.242 19.7183H55.7581C55.9375 19.7183 56.0842 19.5722 56.0842 19.3918V16.6639C56.0842 16.4835 55.9375 16.3375 55.7581 16.3375H44.242Z" fill="#1F2E75"/>
<path d="M70.6374 35.0367L69.7411 34.1842C68.3247 32.8363 66.7726 31.6332 65.1282 30.6082L63.9814 29.8938L68.5892 24.4458C69.3145 23.5898 70.3296 23.067 71.4478 22.9734C72.5591 22.8856 73.6539 23.2292 74.5098 23.9562C76.2768 25.4536 76.4975 28.1108 75.0008 29.8812L70.6374 35.0367ZM67.491 29.3619C68.5152 30.0649 69.5005 30.832 70.4379 31.656L73.2183 28.3699C73.8825 27.5847 73.785 26.4046 73.0005 25.7401C72.6196 25.4172 72.1394 25.2607 71.6404 25.303C71.1444 25.3441 70.6933 25.5769 70.3718 25.957L67.491 29.3619Z" fill="#1F2E75"/>
</g>
<defs>
<clipPath id="clip0_202_488">
<rect width="62" height="72" fill="white" transform="translate(19 14)"/>
</clipPath>
</defs>
</svg>
