<svg width="100" height="100" viewBox="0 0 100 100" fill="none" xmlns="http://www.w3.org/2000/svg">
<g clip-path="url(#clip0_202_515)">
<path d="M48.3569 67.8167C48.3546 67.8167 48.3523 67.8167 48.3501 67.8167C47.9283 67.8142 47.5399 67.5869 47.3307 67.2201L44.1697 61.6802H42.7734C36.4533 61.6802 30.4948 59.1974 25.9957 54.6892C21.4966 50.181 19.0188 44.2105 19.0188 37.8776C19.0188 31.5247 21.5044 25.5354 26.0177 21.013C30.5309 16.4906 36.5081 14 42.8481 14H53.9269C66.8902 14 77.4367 24.5677 77.4367 37.5572V38.1266C77.4367 51.1141 66.8919 61.6802 53.9306 61.6802H52.6291L49.3762 67.2319C49.1639 67.5943 48.776 67.8167 48.3569 67.8167ZM42.8481 16.369C37.1395 16.369 31.7561 18.6132 27.6894 22.6881C23.6227 26.763 21.383 32.1574 21.383 37.8775C21.383 43.5777 23.6148 48.9533 27.6674 53.0141C31.72 57.0748 37.0847 59.3113 42.7734 59.3113H44.8555C45.2796 59.3113 45.6712 59.5389 45.8817 59.9078L48.3704 64.2695L50.933 59.896C51.1452 59.5337 51.5331 59.3113 51.9524 59.3113H53.9306C65.5883 59.3113 75.0725 49.8079 75.0725 38.1266V37.5572C75.0725 25.874 65.5866 16.369 53.9269 16.369H42.8481Z" fill="#1F2E75"/>
<path d="M37.4978 41.9173C35.2251 41.9173 33.3761 40.0646 33.3761 37.7873C33.3761 35.51 35.2251 33.6572 37.4978 33.6572C39.7705 33.6572 41.6195 35.51 41.6195 37.7873C41.6195 40.0646 39.7705 41.9173 37.4978 41.9173ZM37.4978 36.0262C36.5288 36.0262 35.7403 36.8162 35.7403 37.7873C35.7403 38.7583 36.5288 39.5483 37.4978 39.5483C38.4669 39.5483 39.2553 38.7583 39.2553 37.7873C39.2553 36.8162 38.4669 36.0262 37.4978 36.0262Z" fill="#1F2E75"/>
<path d="M48.2277 41.9173C45.955 41.9173 44.1061 40.0646 44.1061 37.7873C44.1061 35.51 45.955 33.6572 48.2277 33.6572C50.5004 33.6572 52.3495 35.51 52.3495 37.7873C52.3495 40.0646 50.5004 41.9173 48.2277 41.9173ZM48.2277 36.0262C47.2587 36.0262 46.4703 36.8162 46.4703 37.7873C46.4703 38.7583 47.2587 39.5483 48.2277 39.5483C49.1968 39.5483 49.9853 38.7583 49.9853 37.7873C49.9853 36.8162 49.1968 36.0262 48.2277 36.0262Z" fill="#1F2E75"/>
<path d="M58.9577 41.9173C56.685 41.9173 54.8361 40.0646 54.8361 37.7873C54.8361 35.51 56.685 33.6572 58.9577 33.6572C61.2304 33.6572 63.0794 35.51 63.0794 37.7873C63.0794 40.0646 61.2304 41.9173 58.9577 41.9173ZM58.9577 36.0262C57.9886 36.0262 57.2003 36.8162 57.2003 37.7873C57.2003 38.7583 57.9886 39.5483 58.9577 39.5483C59.9268 39.5483 60.7152 38.7583 60.7152 37.7873C60.7152 36.8162 59.9268 36.0262 58.9577 36.0262Z" fill="#1F2E75"/>
<path d="M82.9561 85C82.7472 85 82.5376 84.9446 82.3502 84.8325L76.2291 81.1707C73.8341 82.1312 71.304 82.6177 68.6992 82.6177H59.144C54.537 82.6177 50.0075 81.0254 46.39 78.1342C42.8308 75.2896 40.2813 71.3047 39.2111 66.9135C39.0563 66.278 39.4449 65.637 40.0791 65.4818C40.7134 65.3264 41.353 65.716 41.5079 66.3515C42.4545 70.236 44.712 73.7628 47.8642 76.2822C51.111 78.8771 55.0115 80.2487 59.144 80.2487H68.6992C71.1835 80.2487 73.5899 79.7484 75.8516 78.7616C76.2011 78.6091 76.6025 78.6349 76.9295 78.8306L81.0151 81.2747L79.8835 77.2428C79.7579 76.7957 79.9048 76.3164 80.259 76.0169C84.3115 72.5902 86.6357 67.5818 86.6357 62.2759V61.7883C86.6357 56.3832 84.241 51.3149 80.0657 47.8829C79.561 47.468 79.4874 46.7217 79.9015 46.2159C80.3156 45.7101 81.0604 45.6365 81.5652 46.0513C86.29 49.9351 88.9999 55.6709 88.9999 61.7883V62.2759C88.9999 68.0246 86.59 73.4643 82.3611 77.3203L84.0942 83.4948C84.2252 83.9617 84.059 84.4613 83.6748 84.756C83.4638 84.9179 83.2104 85 82.9561 85Z" fill="#1F2E75"/>
<path d="M16.0437 76.1132C15.7892 76.1132 15.536 76.0311 15.3249 75.8692C14.9407 75.5745 14.7745 75.0749 14.9056 74.608L16.6386 68.4336C12.4098 64.5776 9.99988 59.138 9.99988 53.3892V52.9016C9.99988 48.1959 11.6407 43.6068 14.6202 39.9799C15.0351 39.475 15.7801 39.4024 16.2841 39.8182C16.7882 40.2339 16.8604 40.9804 16.4455 41.4855C13.8135 44.6894 12.3641 48.7437 12.3641 52.9016V53.3892C12.3641 58.6951 14.6883 63.7035 18.7407 67.1302C19.0949 67.4297 19.2418 67.909 19.1163 68.3561L17.9846 72.388L22.0702 69.9439C22.3974 69.7481 22.7985 69.7224 23.1481 69.8749C25.4099 70.8616 27.8163 71.3619 30.3006 71.3619H36.9335C37.5864 71.3619 38.1156 71.8923 38.1156 72.5464C38.1156 73.2006 37.5864 73.7309 36.9335 73.7309H30.3006C27.6958 73.7309 25.1657 73.2444 22.7706 72.284L16.6495 75.9457C16.4621 76.0579 16.2525 76.1132 16.0437 76.1132Z" fill="#1F2E75"/>
</g>
<defs>
<clipPath id="clip0_202_515">
<rect width="79" height="71" fill="white" transform="translate(9.99988 14)"/>
</clipPath>
</defs>
</svg>
