<svg width="98" height="100" viewBox="0 0 98 100" fill="none" xmlns="http://www.w3.org/2000/svg">
<path fill-rule="evenodd" clip-rule="evenodd" d="M44.6409 38.1509L43.7739 43.2899C43.7453 43.46 43.7633 43.6351 43.826 43.7952C43.8887 43.9553 43.9935 44.0941 44.1287 44.1959C44.2638 44.2978 44.4239 44.3586 44.5907 44.3714C44.7576 44.3843 44.9246 44.3487 45.0729 44.2688L49.552 41.8527L54.0198 44.2911C54.1677 44.3718 54.3345 44.4082 54.5014 44.3962C54.6683 44.3842 54.8286 44.3242 54.9642 44.2231C55.0998 44.122 55.2053 43.9838 55.2688 43.8241C55.3323 43.6643 55.3512 43.4895 55.3234 43.3192L54.4811 38.176L58.1087 34.5441C58.2288 34.4239 58.3139 34.2713 58.3544 34.1038C58.3949 33.9362 58.3892 33.7603 58.3379 33.5959C58.2865 33.4315 58.1917 33.2852 58.064 33.1735C57.9363 33.0619 57.7809 32.9893 57.6154 32.9641L52.6162 32.201L50.3905 27.5179C50.3168 27.3629 50.2025 27.2322 50.0606 27.1407C49.9187 27.0491 49.7548 27.0004 49.5875 27H49.5852C49.4182 27 49.2546 27.0481 49.1126 27.1389C48.9707 27.2298 48.8562 27.3597 48.7819 27.514L46.5344 32.1858L41.5308 32.9233C41.3652 32.9478 41.2094 33.0195 41.0812 33.1305C40.953 33.2416 40.8575 33.3874 40.8054 33.5515C40.7533 33.7156 40.7467 33.8915 40.7864 34.0593C40.8261 34.2271 40.9105 34.3801 41.0301 34.5009L44.6409 38.1509ZM47.2547 33.9497C47.3987 33.9285 47.5355 33.8715 47.6533 33.7835C47.7712 33.6956 47.8666 33.5794 47.9312 33.4449L49.5804 30.0171L51.2135 33.4526C51.2775 33.5874 51.3723 33.704 51.4898 33.7925C51.6072 33.881 51.7437 33.9387 51.8875 33.9607L55.556 34.5201L52.8942 37.1861C52.7899 37.2906 52.7117 37.4197 52.6664 37.5623C52.6212 37.705 52.6102 37.8568 52.6345 38.0048L53.2526 41.7785L49.9743 39.9889C49.8458 39.9188 49.7026 39.8819 49.5572 39.8816C49.4118 39.8812 49.2685 39.9174 49.1396 39.9869L45.8532 41.7595L46.4889 37.9889C46.5138 37.8411 46.5035 37.6892 46.4589 37.5464C46.4143 37.4036 46.3367 37.2741 46.2329 37.1691L43.5838 34.4909L47.2547 33.9497ZM67.9428 41.544L67.1815 46.0588C67.1529 46.2289 67.1709 46.404 67.2336 46.5641C67.2962 46.7243 67.4011 46.8631 67.5362 46.965C67.6714 47.0668 67.8314 47.1276 67.9983 47.1405C68.1652 47.1534 68.3322 47.1178 68.4805 47.0378L72.4157 44.9152L76.3407 47.0574C76.4886 47.1381 76.6554 47.1745 76.8223 47.1625C76.9892 47.1505 77.1495 47.0905 77.2851 46.9894C77.4207 46.8883 77.5262 46.7501 77.5897 46.5903C77.6532 46.4306 77.6721 46.2557 77.6443 46.0855L76.9044 41.5671L80.0913 38.3763C80.2114 38.256 80.2965 38.1035 80.337 37.9359C80.3775 37.7683 80.3718 37.5924 80.3205 37.428C80.2692 37.2636 80.1743 37.1173 80.0466 37.0057C79.919 36.894 79.7636 36.8215 79.598 36.7962L75.2057 36.1264L73.2504 32.0116C73.1767 31.8565 73.0624 31.7258 72.9205 31.6343C72.7785 31.5428 72.6146 31.4941 72.4473 31.4937H72.4452C72.2782 31.4937 72.1145 31.5418 71.9726 31.6326C71.8306 31.7234 71.7161 31.8533 71.6419 32.0077L69.6672 36.1114L65.2718 36.7593C65.1061 36.7838 64.9504 36.8555 64.8222 36.9665C64.694 37.0775 64.5985 37.2233 64.5464 37.3874C64.4942 37.5515 64.4877 37.7274 64.5273 37.8952C64.567 38.0629 64.6514 38.2159 64.7709 38.3368L67.9428 41.544ZM70.3874 37.8758C70.5314 37.8546 70.6682 37.7976 70.7861 37.7096C70.9039 37.6217 70.9993 37.5055 71.064 37.371L72.4401 34.5108L73.8029 37.378C73.8669 37.5127 73.9617 37.6293 74.0791 37.7178C74.1965 37.8063 74.333 37.864 74.4769 37.886L77.5379 38.3528L75.317 40.5765C75.2126 40.681 75.1344 40.8101 75.0892 40.9527C75.0439 41.0953 75.0329 41.2471 75.0572 41.3951L75.5729 44.5441L72.8374 43.0512C72.7089 42.981 72.5657 42.9441 72.4203 42.9437C72.2749 42.9433 72.1315 42.9795 72.0027 43.0491L69.2603 44.5282L69.7908 41.3811C69.8157 41.2332 69.8055 41.0814 69.7608 40.9385C69.7162 40.7957 69.6387 40.6662 69.5348 40.5613L67.3243 38.3277L70.3874 37.8758ZM21.4592 46.0588L22.2204 41.544L19.0484 38.3368C18.9289 38.2159 18.8445 38.063 18.8048 37.8952C18.7652 37.7274 18.7717 37.5516 18.8238 37.3875C18.8759 37.2234 18.9715 37.0776 19.0996 36.9666C19.2278 36.8556 19.3835 36.7838 19.5492 36.7593L23.9446 36.1114L25.9192 32.0077C25.9935 31.8533 26.108 31.7234 26.2499 31.6326C26.3919 31.5418 26.5555 31.4937 26.7225 31.4937H26.7248C26.8921 31.4941 27.056 31.5428 27.1979 31.6343C27.3398 31.7259 27.4541 31.8565 27.5278 32.0116L29.4828 36.1257L33.8762 36.7962C34.0417 36.8215 34.1971 36.894 34.3248 37.0057C34.4524 37.1173 34.5473 37.2636 34.5986 37.428C34.6499 37.5924 34.6557 37.7683 34.6152 37.9359C34.5747 38.1035 34.4895 38.256 34.3694 38.3763L31.1825 41.5671L31.9226 46.0855C31.9504 46.2558 31.9315 46.4307 31.868 46.5904C31.8045 46.7502 31.699 46.8884 31.5633 46.9895C31.4277 47.0906 31.2674 47.1506 31.1005 47.1626C30.9336 47.1746 30.7667 47.1381 30.6188 47.0574L26.6934 44.9152L22.7583 47.0378C22.61 47.1178 22.443 47.1534 22.2761 47.1406C22.1092 47.1277 21.9491 47.0669 21.8139 46.9651C21.6787 46.8632 21.5739 46.7243 21.5112 46.5642C21.4485 46.404 21.4305 46.229 21.4592 46.0588ZM25.064 37.7098C24.9461 37.7977 24.8092 37.8547 24.6651 37.8758L21.602 38.3277L23.8125 40.5613C23.9163 40.6663 23.9938 40.7958 24.0384 40.9386C24.083 41.0814 24.0933 41.2332 24.0684 41.3811L23.538 44.5282L26.281 43.0492C26.4098 42.9796 26.5531 42.9435 26.6986 42.9439C26.844 42.9442 26.9871 42.9811 27.1156 43.0514L29.8511 44.5443L29.3354 41.3953C29.3112 41.2473 29.3222 41.0955 29.3675 40.9529C29.4128 40.8103 29.491 40.6812 29.5954 40.5767L31.8163 38.353L28.7553 37.8861C28.6114 37.8642 28.4749 37.8065 28.3575 37.718C28.24 37.6295 28.1452 37.5129 28.0811 37.3781L26.7185 34.511L25.3422 37.3712C25.2775 37.5057 25.182 37.6219 25.064 37.7098ZM49.6327 47.9769C47.7261 47.9791 45.8982 48.7618 44.5501 50.1533C43.2019 51.5447 42.4436 53.4312 42.4414 55.399V59.7299C42.4414 61.6983 43.1991 63.5861 44.5477 64.978C45.8963 66.3699 47.7255 67.1519 49.6327 67.1519C51.54 67.1519 53.3691 66.3699 54.7178 64.978C56.0664 63.5861 56.824 61.6983 56.824 59.7299V55.399C56.8219 53.4312 56.0636 51.5447 54.7154 50.1533C53.3672 48.7618 51.5393 47.9791 49.6327 47.9769ZM55.0303 59.7299C55.0303 61.2074 54.4616 62.6243 53.4494 63.669C52.4371 64.7137 51.0643 65.3006 49.6327 65.3006C48.2012 65.3006 46.8283 64.7137 45.8161 63.669C44.8039 62.6243 44.2352 61.2074 44.2352 59.7299V55.399C44.2352 53.9216 44.8039 52.5046 45.8161 51.4599C46.8283 50.4152 48.2012 49.8283 49.6327 49.8283C51.0643 49.8283 52.4371 50.4152 53.4494 51.4599C54.4616 52.5046 55.0303 53.9216 55.0303 55.399V59.7299ZM67.2718 53.6501C68.5127 52.3694 70.1952 51.6491 71.9501 51.647C73.705 51.6491 75.3874 52.3694 76.6283 53.6501C77.8692 54.9308 78.5672 56.6672 78.5692 58.4784V62.4155C78.5692 64.2273 77.8718 65.9649 76.6305 67.246C75.3892 68.5271 73.7056 69.2469 71.9501 69.2469C70.1946 69.2469 68.511 68.5271 67.2697 67.246C66.0283 65.9649 65.331 64.2273 65.331 62.4155V58.4784C65.3329 56.6672 66.0309 54.9308 67.2718 53.6501ZM75.3621 65.9368C76.267 65.0028 76.7754 63.7361 76.7754 62.4153V58.4783C76.7754 57.1574 76.267 55.8907 75.3621 54.9568C74.4572 54.0228 73.2298 53.4981 71.9501 53.4981C70.6703 53.4981 69.443 54.0228 68.538 54.9568C67.6331 55.8907 67.1247 57.1574 67.1247 58.4783V62.4153C67.1247 63.7361 67.6331 65.0028 68.538 65.9368C69.443 66.8707 70.6703 67.3954 71.9501 67.3954C73.2298 67.3954 74.4572 66.8707 75.3621 65.9368ZM79.5791 70.6298H77.1676C76.9516 70.6295 76.7444 70.5408 76.5916 70.3832C76.4389 70.2255 76.3529 70.0118 76.3526 69.7888C76.3526 69.5709 76.278 69.3599 76.1421 69.1932C76.0061 69.0264 75.8175 68.9145 75.6095 68.8771C75.4014 68.8398 75.1873 68.8794 75.0047 68.989C74.8222 69.0986 74.683 69.2711 74.6116 69.4763L73.6526 72.2341C73.527 72.5953 73.2958 72.9074 72.9909 73.1273C72.6861 73.3471 72.3226 73.4638 71.9507 73.4614C71.5788 73.4589 71.2169 73.3373 70.9148 73.1135C70.6127 72.8896 70.3854 72.5744 70.2643 72.2115L69.3473 69.4655C69.2977 69.3171 69.2124 69.1841 69.0993 69.0791C68.9863 68.9741 68.8492 68.9005 68.701 68.8652C68.5528 68.8299 68.3983 68.8341 68.2521 68.8774C68.1059 68.9207 67.9727 69.0016 67.8652 69.1126L67.8435 69.1348C67.6754 69.3084 67.5809 69.5438 67.5809 69.7893C67.5806 70.0122 67.4947 70.226 67.3419 70.3837C67.1891 70.5413 66.982 70.63 66.7659 70.6302H64.3197C63.9325 70.6303 63.5459 70.6607 63.1632 70.7212C61.7062 69.5143 59.8935 68.8571 58.0253 68.8584H55.3726C55.111 68.8584 54.86 68.7511 54.675 68.5602C54.49 68.3692 54.386 68.1102 54.386 67.8402C54.386 67.6222 54.3114 67.4113 54.1755 67.2445C54.0395 67.0778 53.8509 66.9658 53.6429 66.9285C53.4348 66.8911 53.2207 66.9308 53.0382 67.0403C52.8556 67.1499 52.7164 67.3225 52.6451 67.5276L51.5908 70.5614C51.4463 70.9768 51.1804 71.3357 50.8299 71.5885C50.4793 71.8413 50.0614 71.9755 49.6338 71.9727C49.2061 71.9699 48.7899 71.8301 48.4425 71.5727C48.0951 71.3153 47.8338 70.9529 47.6945 70.5357L46.6856 67.5142C46.636 67.3657 46.5506 67.2327 46.4375 67.1277C46.3243 67.0226 46.1871 66.949 46.0388 66.9138C45.8905 66.8786 45.7359 66.8829 45.5897 66.9264C45.4434 66.9698 45.3103 67.051 45.2028 67.1622L45.179 67.1867C45.0113 67.3602 44.9171 67.5953 44.9171 67.8403C44.9171 68.1104 44.8132 68.3694 44.6282 68.5603C44.4431 68.7513 44.1922 68.8585 43.9306 68.8585H41.2399C39.3713 68.8572 37.5583 69.5146 36.1011 70.722C35.7187 70.6612 35.3324 70.6305 34.9455 70.6302H32.534C32.3179 70.63 32.1108 70.5413 31.958 70.3837C31.8052 70.226 31.7193 70.0122 31.719 69.7893C31.7189 69.5713 31.6444 69.3604 31.5084 69.1936C31.3725 69.0269 31.1839 68.9149 30.9758 68.8776C30.7678 68.8402 30.5536 68.8798 30.3711 68.9894C30.1886 69.099 30.0494 69.2716 29.978 69.4767L29.0194 72.2341C28.8937 72.5953 28.6625 72.9074 28.3577 73.1272C28.0528 73.347 27.6894 73.4638 27.3175 73.4613C26.9456 73.4588 26.5836 73.3373 26.2815 73.1134C25.9794 72.8895 25.7521 72.5744 25.631 72.2115L24.7139 69.4655C24.6644 69.317 24.579 69.184 24.4659 69.079C24.3528 68.9739 24.2157 68.9003 24.0675 68.8651C23.9192 68.8298 23.7647 68.834 23.6185 68.8774C23.4722 68.9207 23.3391 69.0017 23.2316 69.1128L23.21 69.135C23.042 69.3086 22.9476 69.5439 22.9475 69.7893C22.9473 70.0122 22.8614 70.226 22.7086 70.3836C22.5559 70.5413 22.3488 70.63 22.1327 70.6302H19.6862C17.6785 70.6326 15.7537 71.4567 14.334 72.9219C12.9143 74.387 12.1157 76.3735 12.1133 78.4456V89.2728C12.1133 89.5183 12.2078 89.7537 12.376 89.9273C12.5442 90.1009 12.7723 90.1984 13.0102 90.1984H86.255C86.4929 90.1984 86.721 90.1009 86.8892 89.9273C87.0574 89.7537 87.1519 89.5183 87.1519 89.2728V78.4456C87.1497 76.3734 86.3511 74.3868 84.9314 72.9216C83.5117 71.4563 81.5869 70.6321 79.5791 70.6298ZM32.9996 77.3629V88.3472H13.907V78.4456C13.9088 76.8642 14.5182 75.3482 15.6016 74.23C16.6851 73.1118 18.154 72.4828 19.6862 72.481H22.1324C22.6787 72.4818 23.2113 72.3046 23.6543 71.9747L23.9349 72.8154C24.1771 73.5406 24.6314 74.1704 25.2353 74.6177C25.8391 75.0651 26.5626 75.308 27.3058 75.3129C28.0491 75.3177 28.7755 75.0844 29.3848 74.645C29.9941 74.2056 30.4562 73.5818 30.7073 72.8598L31.0145 71.9766C31.4336 72.2881 31.9333 72.4635 32.4495 72.4803C32.4658 72.4803 32.4824 72.4815 32.499 72.4815H34.4981C33.5218 73.9097 32.9982 75.615 32.9996 77.3629ZM64.4719 88.3472H34.7933V77.3629C34.7953 75.5989 35.4751 73.9078 36.6837 72.6605C37.8922 71.4133 39.5308 70.7117 41.2399 70.7097H43.9306C44.5544 70.7104 45.1602 70.4935 45.6496 70.0943L45.9983 71.1392C46.2586 71.9189 46.7471 72.596 47.3962 73.0769C48.0453 73.5579 48.8231 73.819 49.6222 73.8243C50.4212 73.8295 51.2022 73.5786 51.8572 73.1062C52.5122 72.6338 53.0089 71.9632 53.2789 71.187L53.6578 70.0972C54.1225 70.4751 54.6924 70.6893 55.2838 70.7081C55.2927 70.7087 55.3017 70.7091 55.3106 70.7094C55.3185 70.7096 55.3264 70.7097 55.3343 70.7097H58.025C59.7341 70.7117 61.3728 71.4133 62.5813 72.6607C63.7899 73.908 64.4697 75.5992 64.4716 77.3632L64.4719 88.3472ZM85.3582 88.3472H66.2656V77.3629C66.267 75.6148 65.7433 73.9093 64.7668 72.481H66.7659C67.3122 72.4818 67.8447 72.3046 68.2876 71.9747L68.5682 72.8154C68.8104 73.5406 69.2648 74.1704 69.8686 74.6177C70.4724 75.0651 71.1959 75.308 71.9392 75.3129C72.6825 75.3177 73.4089 75.0844 74.0182 74.645C74.6274 74.2056 75.0895 73.5818 75.3407 72.8598L75.6478 71.9766C76.067 72.2881 76.5666 72.4635 77.0828 72.4803C77.0873 72.4803 77.0917 72.4804 77.0961 72.4805C77.0999 72.4806 77.1036 72.4807 77.1074 72.4809C77.112 72.4811 77.1167 72.4812 77.1213 72.4814C77.125 72.4814 77.1286 72.4815 77.1322 72.4815H79.5785C81.1107 72.4832 82.5797 73.112 83.6632 74.2301C84.7468 75.3482 85.3563 76.8642 85.3582 78.4456V88.3472ZM20.6967 62.4155V58.4784C20.6967 56.6666 21.3941 54.929 22.6354 53.6479C23.8767 52.3668 25.5603 51.647 27.3158 51.647C29.0713 51.647 30.7549 52.3668 31.9962 53.6479C33.2376 54.929 33.9349 56.6666 33.9349 58.4784V62.4155C33.9349 63.3126 33.7637 64.2009 33.4311 65.0297C33.0984 65.8586 32.6109 66.6116 31.9962 67.246C31.3816 67.8803 30.6519 68.3835 29.8488 68.7268C29.0458 69.0702 28.1851 69.2469 27.3158 69.2469C26.4466 69.2469 25.5859 69.0702 24.7828 68.7268C23.9797 68.3835 23.2501 67.8803 22.6354 67.246C22.0208 66.6116 21.5332 65.8586 21.2006 65.0297C20.8679 64.2009 20.6967 63.3126 20.6967 62.4155ZM32.1412 62.4155V58.4784C32.1412 57.1576 31.6328 55.8909 30.7279 54.9569C29.8229 54.023 28.5956 53.4983 27.3158 53.4983C26.0361 53.4983 24.8087 54.023 23.9038 54.9569C22.9989 55.8909 22.4905 57.1576 22.4905 58.4784V62.4155C22.4905 63.7363 22.9989 65.003 23.9038 65.9369C24.8087 66.8709 26.0361 67.3956 27.3158 67.3956C28.5956 67.3956 29.8229 66.8709 30.7279 65.9369C31.6328 65.003 32.1412 63.7363 32.1412 62.4155Z" fill="#1F2E75"/>
</svg>
