<svg width="81" height="82" viewBox="0 0 81 82" fill="none" xmlns="http://www.w3.org/2000/svg">
<g clip-path="url(#clip0_202_750)">
<path d="M61.7434 68.7897C60.9709 68.7897 60.2055 68.5612 59.5498 68.1211L46.7005 59.499C46.2678 59.2085 46.1458 58.6114 46.4282 58.1666C46.7096 57.721 47.2894 57.5968 47.7231 57.8855L60.5725 66.5076C61.0746 66.8453 61.6722 66.9496 62.2548 66.8001C62.8374 66.6515 63.319 66.2717 63.6096 65.7311C64.1583 64.7109 63.837 63.4256 62.878 62.805L45.0611 51.2652C44.2615 50.7471 43.3385 50.4735 42.3926 50.4735H33.9864V52.7536C33.9864 54.9078 32.2829 56.6604 30.1889 56.6604C28.0953 56.6604 26.392 54.9078 26.392 52.7536V46.1728C26.392 45.161 26.9672 44.2292 27.8568 43.7986L35.1738 40.2557C35.2986 40.1955 35.4348 40.1646 35.5723 40.1646H55.5536C56.0705 40.1646 56.4894 40.5952 56.4894 41.1274C56.4894 41.6596 56.0705 42.0902 55.5536 42.0902H35.7815L28.6532 45.5419C28.4161 45.6556 28.2635 45.9039 28.2635 46.1728V52.7536C28.2635 53.8462 29.1271 54.7347 30.1889 54.7347C31.2508 54.7347 32.1149 53.8462 32.1149 52.7536V49.5107C32.1149 48.9785 32.5338 48.5479 33.0506 48.5479H42.3926C43.6917 48.5479 44.9592 48.924 46.0581 49.6348L63.875 61.1745C65.6735 62.3395 66.2766 64.7504 65.2471 66.6637C64.7093 67.6632 63.7831 68.3939 62.7058 68.6693C62.3886 68.7502 62.0656 68.7897 61.7434 68.7897Z" fill="#1F2E75"/>
<path d="M54.3078 71.7883C53.483 71.7883 52.6774 71.5372 51.9761 71.0521L42.9072 64.7805C42.4782 64.4834 42.3641 63.8854 42.6523 63.4445C42.9406 63.0034 43.5223 62.8859 43.9509 63.1821L53.0197 69.4535C53.5434 69.8156 54.1703 69.9416 54.7893 69.811C55.4066 69.6793 55.9344 69.3059 56.2752 68.7606C56.9634 67.6578 56.6554 66.1778 55.5885 65.4622L47.3466 59.9326C46.914 59.642 46.792 59.045 47.0739 58.6002C47.3562 58.1546 47.936 58.0305 48.3693 58.3191L56.6111 63.8487C58.536 65.1416 59.0921 67.8119 57.8498 69.8005C57.2353 70.786 56.2829 71.4591 55.169 71.6971C54.8821 71.7581 54.5938 71.7883 54.3078 71.7883Z" fill="#1F2E75"/>
<path d="M48.089 75.4852C47.3161 75.4852 46.537 75.2653 45.847 74.8083L39.616 70.6797C39.1815 70.3919 39.0563 69.7957 39.336 69.3491C39.616 68.9016 40.1959 68.7736 40.6295 69.0604L46.8605 73.1892C47.8643 73.8557 49.2127 73.6057 49.9301 72.6232C50.3106 72.1012 50.4619 71.459 50.3563 70.8159C50.2503 70.1727 49.9026 69.6181 49.3763 69.2542L45.3129 66.4447C44.8839 66.1486 44.7696 65.5495 45.058 65.1086C45.3462 64.6676 45.9284 64.5491 46.3565 64.8462L50.4202 67.6558C51.377 68.3177 52.0095 69.3256 52.2013 70.4943C52.3936 71.664 52.1186 72.831 51.4265 73.7796C50.6153 74.8901 49.3607 75.4852 48.089 75.4852Z" fill="#1F2E75"/>
<path d="M40.4724 78.069C39.7482 78.069 39.017 77.8707 38.3614 77.4551L37.6851 77.0272C37.2452 76.7489 37.1076 76.1555 37.3781 75.7033C37.6485 75.2491 38.2248 75.1082 38.6657 75.3874L39.3419 75.8153C40.3115 76.4292 41.59 76.1631 42.2511 75.2069C42.5989 74.7047 42.7277 74.0946 42.6144 73.4891C42.5016 72.8835 42.1612 72.3654 41.6572 72.0316L40.1292 71.019C39.6947 70.7313 39.5695 70.1351 39.8492 69.6876C40.1296 69.2429 40.7085 69.113 41.1427 69.3998L42.6705 70.4126C43.6087 71.035 44.2415 71.9978 44.4525 73.1252C44.6631 74.2525 44.4228 75.3883 43.7763 76.324C42.9932 77.456 41.7434 78.069 40.4724 78.069Z" fill="#1F2E75"/>
<path d="M34.7436 78.9999C33.9166 78.9999 33.0859 78.7216 32.3978 78.1528C31.5867 77.4832 31.0929 76.527 31.0078 75.4598C30.9225 74.3927 31.2578 73.3658 31.9518 72.5685L32.2644 72.2085C33.5889 70.6871 35.8319 70.4906 37.3873 71.7562C38.2221 72.4473 38.7279 73.4373 38.8055 74.497C38.8828 75.5566 38.5269 76.6135 37.8287 77.3968L37.5116 77.7531C36.7765 78.5777 35.7625 78.9999 34.7436 78.9999ZM35.0602 72.8488C34.543 72.8488 34.0294 73.0678 33.6593 73.4929L33.3467 73.8529C32.9982 74.2525 32.8305 74.7669 32.873 75.3019C32.9159 75.8368 33.1631 76.3155 33.5693 76.652C34.3406 77.2886 35.4651 77.1993 36.1322 76.4518L36.4492 76.0955C36.8047 75.6968 36.9788 75.1805 36.9391 74.6418C36.9002 74.1115 36.6608 73.6357 36.2637 73.2973C35.8919 72.9897 35.4751 72.8488 35.0602 72.8488Z" fill="#1F2E75"/>
<path d="M29.4935 76.3212C28.6528 76.3212 27.8075 76.0316 27.1079 75.441C26.3111 74.7679 25.8267 73.8153 25.7445 72.7585C25.6618 71.7016 25.9921 70.6814 26.6744 69.8871L30.6098 65.2994C31.9581 63.7293 34.2463 63.5412 35.8195 64.8716L35.2753 65.6578L35.8692 64.914C36.6711 65.5919 37.1546 66.5509 37.2318 67.6163C37.309 68.6806 36.9687 69.7046 36.2731 70.4972L32.2871 75.0415C31.545 75.8877 30.5225 76.3212 29.4935 76.3212ZM33.4284 65.9135C32.9057 65.9135 32.3872 66.1382 32.0124 66.5745L28.077 71.162C27.7344 71.5607 27.5685 72.0731 27.6101 72.6044C27.6512 73.1355 27.8948 73.6141 28.295 73.9517C29.0763 74.6136 30.2199 74.5243 30.898 73.7515L34.8838 69.2072C35.2332 68.8086 35.4042 68.2942 35.3653 67.7592C35.3269 67.2251 35.0843 66.7437 34.6827 66.4033C34.2779 66.0601 33.852 65.9135 33.4284 65.9135Z" fill="#1F2E75"/>
<path d="M25.6015 72.0309C24.7741 72.0309 23.9429 71.7564 23.2456 71.195C22.4315 70.5387 21.9192 69.5956 21.8027 68.5378C21.6866 67.481 21.9814 66.4429 22.6329 65.6165L23.9707 63.9193C25.284 62.2532 27.6942 61.9635 29.3436 63.2771C30.1871 63.9475 30.7285 64.9593 30.8291 66.0509C30.9301 67.1425 30.5833 68.2398 29.8777 69.0625L28.4719 70.7013C27.7193 71.5786 26.6639 72.0309 25.6015 72.0309ZM26.9818 64.3753C26.397 64.3753 25.8162 64.6349 25.4247 65.1322L24.0868 66.8293C23.7538 67.2515 23.6034 67.7819 23.6624 68.3215C23.7217 68.8622 23.9836 69.3436 24.3998 69.6794C25.2113 70.3347 26.3846 70.2237 27.0691 69.4264L28.4751 67.7875C28.8443 67.3569 29.0187 66.805 28.9663 66.2332C28.9133 65.6606 28.6409 65.1519 28.1986 64.8003C27.8391 64.5145 27.409 64.3753 26.9818 64.3753Z" fill="#1F2E75"/>
<path d="M21.6822 67.7C20.9378 67.7 20.1867 67.4603 19.541 66.9647C18.7331 66.3461 18.2159 65.4228 18.1031 64.4176C17.9903 63.4124 18.2895 62.3922 18.9237 61.6194L19.5278 60.8822C20.7614 59.3807 22.9176 59.1381 24.4359 60.3304C25.2081 60.9369 25.6988 61.8169 25.8177 62.8088C25.936 63.8008 25.6673 64.7777 25.0605 65.5591L24.4762 66.3113C23.7675 67.2234 22.7311 67.7 21.6822 67.7ZM22.2646 61.5C21.7776 61.5 21.2956 61.7134 20.958 62.1253L20.3538 62.8615C20.0468 63.2357 19.9079 63.7096 19.9622 64.1967C20.0171 64.6837 20.2574 65.1124 20.6394 65.4058C21.4029 65.9907 22.4365 65.8534 23.0149 65.1078L23.5989 64.3564C23.888 63.9841 24.0165 63.5178 23.9598 63.0439C23.9032 62.57 23.6693 62.1506 23.301 61.8611C22.9916 61.6184 22.6266 61.5 22.2646 61.5Z" fill="#1F2E75"/>
<path d="M20.2428 62.4666C19.9974 62.4666 19.7525 62.3678 19.5688 62.1713L14.2869 56.5278C13.9752 56.195 13.9374 55.6816 14.1969 55.3046L23.7025 41.4697C23.878 41.2139 24.1626 41.0625 24.4665 41.0625H33.7172C34.234 41.0625 34.653 41.4931 34.653 42.0253C34.653 42.5575 34.234 42.9881 33.7172 42.9881H24.9508L16.1717 55.7662L20.9167 60.8361C21.2754 61.2188 21.264 61.828 20.892 62.1976C20.7102 62.3772 20.4763 62.4666 20.2428 62.4666Z" fill="#1F2E75"/>
<path d="M68.1675 59.5112C67.1221 59.5112 66.1012 58.9922 65.4702 58.0321C63.0838 54.4047 57.9188 46.3861 55.0522 41.9293C54.1082 40.4607 54.4349 38.4739 55.796 37.4068L64.2461 30.7808C64.6574 30.4564 65.245 30.5401 65.5575 30.9622C65.8705 31.3854 65.7914 31.9899 65.3803 32.3115L56.9306 38.9375C56.3502 39.3935 56.2104 40.2407 56.6129 40.8669C59.4774 45.32 64.6382 53.3327 67.0202 56.9528C67.4423 57.5941 68.2748 57.7736 68.9136 57.3618L75.7933 52.9135C76.2329 52.6313 76.809 52.7667 77.0837 53.2161C77.3588 53.6666 77.2268 54.2608 76.7894 54.5438L69.9087 58.9922C69.365 59.3429 68.7623 59.5112 68.1675 59.5112Z" fill="#1F2E75"/>
<path d="M13.0835 57.8122C12.5361 57.8131 11.9818 57.6703 11.4719 57.373L5.03308 53.6281C4.58341 53.3667 4.42498 52.779 4.679 52.3164C4.93342 51.8538 5.50274 51.6911 5.95426 51.9524L12.3931 55.6975C13.0195 56.0605 13.8049 55.8808 14.2185 55.2726L23.8827 41.0757C24.2994 40.4626 24.1938 39.6371 23.6364 39.1565L14.366 31.2988C13.9672 30.9613 13.91 30.3538 14.2386 29.9439C14.5675 29.5331 15.157 29.4757 15.5558 29.8132L24.8325 37.6757C26.1458 38.8078 26.3934 40.7418 25.4157 42.1795L15.7514 56.3764C15.1186 57.3073 14.1138 57.8122 13.0835 57.8122Z" fill="#1F2E75"/>
<path d="M61.176 61.5273C60.9393 61.5273 60.7027 61.4351 60.5204 61.2518C60.1516 60.8786 60.1461 60.2692 60.5085 59.8894L64.708 55.4899C65.0699 55.11 65.6621 55.1053 66.0313 55.4777C66.4 55.851 66.4055 56.4603 66.0431 56.8402L61.8436 61.2396C61.6604 61.4313 61.4182 61.5273 61.176 61.5273Z" fill="#1F2E75"/>
<path d="M9.97142 52.7274C9.78905 52.7274 9.60497 52.6729 9.44325 52.5591C9.01685 52.2583 8.90812 51.6593 9.20054 51.2202L14.1891 43.7321C14.4821 43.2948 15.0641 43.182 15.49 43.4819C15.9163 43.7828 16.025 44.3817 15.7326 44.8208L10.744 52.3091C10.5627 52.5808 10.2697 52.7274 9.97142 52.7274Z" fill="#1F2E75"/>
<path d="M70.0959 53.7842C69.7839 53.7842 69.4786 53.6235 69.3013 53.331L64.5819 45.5551C64.3081 45.1047 64.4416 44.5106 64.8797 44.2285C65.3188 43.9472 65.8959 44.0846 66.1691 44.5359L70.8886 52.3118C71.1623 52.7623 71.0289 53.3564 70.5908 53.6385C70.4363 53.7373 70.265 53.7842 70.0959 53.7842Z" fill="#1F2E75"/>
<path d="M40.8826 35.9767C32.0463 35.9767 24.8578 28.5796 24.8578 19.4884C24.8578 10.397 32.0463 3 40.8826 3C45.163 3 49.1871 4.715 52.2142 7.82912C52.5797 8.20535 52.5797 8.81454 52.2142 9.19063C51.8487 9.56672 51.2565 9.56672 50.891 9.19063C48.2175 6.44043 44.6631 4.92564 40.8826 4.92564C33.0786 4.92564 26.7293 11.4585 26.7293 19.4884C26.7293 27.5182 33.0786 34.0511 40.8826 34.0511C48.6868 34.0511 55.0361 27.5182 55.0361 19.4884C55.0361 18.6543 54.9671 17.8203 54.8319 17.007C54.7441 16.4833 55.0863 15.9858 55.5953 15.8956C56.1084 15.8035 56.5886 16.157 56.6759 16.6818C56.8299 17.6013 56.9076 18.5453 56.9076 19.4884C56.9076 28.5796 49.7189 35.9767 40.8826 35.9767Z" fill="#1F2E75"/>
<path d="M30.1031 17.6671C30.0276 17.6671 29.9513 17.6578 29.8751 17.638C29.3737 17.5092 29.0691 16.9864 29.1942 16.4712C30.5367 10.949 35.3434 7.09204 40.8825 7.09204C44.1006 7.09204 47.1259 8.38117 49.4017 10.7224C49.7673 11.0985 49.7673 11.7078 49.4017 12.0839C49.0362 12.46 48.4441 12.46 48.0786 12.0839C46.1563 10.1066 43.6008 9.01768 40.8825 9.01768C36.2033 9.01768 32.1435 12.2748 31.01 16.9375C30.9035 17.3757 30.522 17.6671 30.1031 17.6671Z" fill="#1F2E75"/>
<path d="M40.8928 30.3493C40.6667 30.3493 40.4469 30.2646 40.2755 30.1094L30.2905 21.0886C29.9022 20.738 29.8638 20.1296 30.2046 19.73C30.5456 19.3313 31.1363 19.2918 31.5251 19.6426L40.7694 27.9938L55.2376 9.14271C55.5584 8.72522 56.146 8.65568 56.5518 8.98375C56.9575 9.31384 57.0264 9.91937 56.7061 10.3369L41.627 29.9835C41.4681 30.1903 41.2333 30.321 40.9778 30.3455C40.9495 30.3483 40.9211 30.3493 40.8928 30.3493Z" fill="#1F2E75"/>
</g>
<defs>
<clipPath id="clip0_202_750">
<rect width="72.6693" height="76" fill="white" transform="translate(4.55786 3)"/>
</clipPath>
</defs>
</svg>
