<svg width="97" height="100" viewBox="0 0 97 100" fill="none" xmlns="http://www.w3.org/2000/svg">
<path fill-rule="evenodd" clip-rule="evenodd" d="M47.5314 91.9204L26.7882 77.3091C20.54 72.9118 15.6752 63.3572 15.6752 55.5574V25.8228C15.6613 25.4441 15.8615 25.0911 16.1884 24.9178L47.63 9.00716C47.8983 8.87001 48.2137 8.87001 48.482 9.00716L79.9427 24.9618C80.2695 25.1351 80.4705 25.4874 80.4584 25.8667V55.5561C80.4584 63.3572 75.5956 72.9118 69.3467 77.3091L48.6206 91.9204C48.4604 92.0346 48.2696 92.0957 48.0744 92.0957C47.8805 92.0957 47.691 92.0346 47.5314 91.9204ZM48.0668 11.0349L17.6285 26.4514V55.5561C17.6285 62.7594 22.1105 71.5829 27.8812 75.6429L48.0516 89.8678L68.2448 75.6436C74.0155 71.5836 78.5051 62.76 78.5051 55.5574V26.4947L48.0668 11.0349ZM29.1807 73.5903L47.4995 86.4725C47.6648 86.5867 47.8593 86.6477 48.0584 86.6477C48.2561 86.6477 48.4488 86.5867 48.6128 86.4725L66.95 73.5903C71.9585 70.0657 76.2261 61.8079 76.2261 55.5561V28.6707C76.2121 28.2803 75.9883 27.9312 75.6462 27.7658L48.5142 14.0206C48.2402 13.8828 47.9197 13.8828 47.6457 14.0206L20.4934 27.7251C20.1494 27.8898 19.923 28.239 19.9071 28.6301V55.5561C19.9071 61.8079 24.1716 70.0657 29.1807 73.5903ZM21.8604 29.2587L48.0666 16.0477L74.2729 29.2981V55.5561C74.2729 61.2297 70.3981 68.7251 65.852 71.9241L48.0838 84.4192L30.2895 71.9241C25.7434 68.7257 21.8604 61.2304 21.8604 55.5561V29.2587ZM68.0019 50.4999C68.0019 61.863 59.0768 71.0744 48.0668 71.0744C37.0619 71.0612 28.1445 61.8571 28.1318 50.4999C28.1318 39.1368 37.0569 29.9255 48.0668 29.9255C59.0768 29.9255 68.0019 39.1368 68.0019 50.4999ZM66.0486 50.4999C66.0486 40.2504 57.9978 31.9414 48.0668 31.9414C38.1403 31.9532 30.0965 40.255 30.085 50.4999C30.085 60.7494 38.1358 69.0585 48.0668 69.0585C57.9978 69.0585 66.0486 60.7494 66.0486 50.4999ZM45.9887 56.7274C45.5919 57.1021 44.9758 57.0752 44.6108 56.667L38.484 49.8102C38.1184 49.4007 38.1432 48.7635 38.5399 48.3856C38.9367 48.0082 39.5541 48.0345 39.9203 48.4433L45.3872 54.5619L56.2712 44.2724C56.6693 43.8964 57.2867 43.9246 57.651 44.3347C58.016 44.7455 57.9886 45.3834 57.5906 45.7594L45.9887 56.7274Z" fill="#1F2E75"/>
</svg>
