<svg width="98" height="100" viewBox="0 0 98 100" fill="none" xmlns="http://www.w3.org/2000/svg">
<path fill-rule="evenodd" clip-rule="evenodd" d="M48.5911 82C65.2872 82 79.5967 67.238 79.5967 50C79.5967 32.7949 65.3189 18 48.5911 18C31.8951 18 17.5856 32.762 17.5856 50C17.5856 67.2299 31.8888 82 48.5911 82ZM48.5911 20.5C63.8178 20.5 77.1744 34.285 77.1744 50C77.1744 65.715 63.8178 79.5 48.5911 79.5C33.3645 79.5 20.0079 65.715 20.0079 50C20.0079 34.285 33.3645 20.5 48.5911 20.5ZM49.8011 26.9263C49.7744 27.5925 49.2427 28.125 48.5911 28.125C47.9395 28.125 47.4078 27.5925 47.3812 26.9263C47.38 26.91 47.38 26.8925 47.38 26.875C47.38 26.185 47.9226 25.625 48.5911 25.625C49.2597 25.625 49.8023 26.185 49.8023 26.875C49.8023 26.8925 49.8023 26.91 49.8011 26.9263ZM59.4915 43.75C59.4915 47.8939 56.2391 51.25 52.2246 51.25H42.5354V56.25H51.0135C51.6823 56.25 52.2246 56.8096 52.2246 57.5C52.2246 58.1904 51.6823 58.75 51.0135 58.75H42.5354V65C42.5354 65.6904 41.993 66.25 41.3242 66.25C40.6554 66.25 40.1131 65.6904 40.1131 65V58.75H38.9019C38.2331 58.75 37.6907 58.1904 37.6907 57.5C37.6907 56.8096 38.2331 56.25 38.9019 56.25H40.1131V51.25H38.9019C38.2331 51.25 37.6907 50.6904 37.6907 50C37.6907 49.3096 38.2331 48.75 38.9019 48.75H40.1131V37.5C40.1131 36.8096 40.6554 36.25 41.3242 36.25H52.2246C56.2316 36.25 59.4915 39.6145 59.4915 43.75ZM52.2246 38.75H42.5354V48.75H52.2246C54.9008 48.75 57.0692 46.5114 57.0692 43.75C57.0692 40.993 54.8959 38.75 52.2246 38.75ZM72.3298 50C72.3298 63.1126 61.2114 74.5 48.5911 74.5C35.886 74.5 24.8525 63.025 24.8525 50C24.8525 38.8616 32.9565 28.7017 43.4875 26.121C44.1381 25.9612 44.7911 26.3765 44.9457 27.0484C45.1001 27.7201 44.6979 28.3939 44.0471 28.5534C34.4853 30.8965 27.2748 40.1166 27.2748 50C27.2748 61.7196 37.2357 72 48.5911 72C59.9466 72 69.9075 61.7196 69.9075 50C69.9075 40.1166 62.697 30.8965 53.1352 28.5534C52.4844 28.3939 52.0822 27.7201 52.2366 27.0484C52.3911 26.3766 53.044 25.9614 53.6948 26.121C64.2341 28.7037 72.3298 38.8706 72.3298 50Z" fill="#1F2E75"/>
</svg>
