<svg width="98" height="100" viewBox="0 0 98 100" fill="none" xmlns="http://www.w3.org/2000/svg">
<g clip-path="url(#clip0_202_794)">
<path d="M47.1061 67.8167C47.1039 67.8167 47.1016 67.8167 47.0995 67.8167C46.6908 67.8142 46.3145 67.5869 46.1117 67.2201L43.049 61.6802H41.6961C35.5724 61.6802 29.7991 59.1974 25.4398 54.6892C21.0805 50.181 18.6797 44.2105 18.6797 37.8776C18.6797 31.5247 21.088 25.5354 25.461 21.013C29.834 16.4906 35.6255 14 41.7685 14H52.503C65.0635 14 75.2822 24.5677 75.2822 37.5572V38.1266C75.2822 51.1141 65.0651 61.6802 52.5066 61.6802H51.2455L48.0938 67.2319C47.888 67.5943 47.5121 67.8167 47.1061 67.8167ZM41.7685 16.369C36.2373 16.369 31.0211 18.6132 27.0808 22.6881C23.1405 26.763 20.9704 32.1574 20.9704 37.8775C20.9704 43.5777 23.1329 48.9533 27.0596 53.0141C30.9862 57.0748 36.1842 59.3113 41.6961 59.3113H43.7135C44.1244 59.3113 44.5038 59.5389 44.7078 59.9078L47.1192 64.2695L49.6021 59.896C49.8078 59.5337 50.1836 59.3113 50.5898 59.3113H52.5066C63.802 59.3113 72.9915 49.8079 72.9915 38.1266V37.5572C72.9915 25.874 63.8004 16.369 52.503 16.369H41.7685Z" fill="#1F2E75"/>
<path d="M36.5843 41.9173C34.3823 41.9173 32.5907 40.0646 32.5907 37.7873C32.5907 35.51 34.3823 33.6572 36.5843 33.6572C38.7864 33.6572 40.578 35.51 40.578 37.7873C40.578 40.0646 38.7864 41.9173 36.5843 41.9173ZM36.5843 36.0262C35.6454 36.0262 34.8814 36.8162 34.8814 37.7873C34.8814 38.7583 35.6454 39.5483 36.5843 39.5483C37.5233 39.5483 38.2872 38.7583 38.2872 37.7873C38.2872 36.8162 37.5233 36.0262 36.5843 36.0262Z" fill="#1F2E75"/>
<path d="M46.9807 41.9173C44.7787 41.9173 42.9872 40.0646 42.9872 37.7873C42.9872 35.51 44.7787 33.6572 46.9807 33.6572C49.1828 33.6572 50.9744 35.51 50.9744 37.7873C50.9744 40.0646 49.1828 41.9173 46.9807 41.9173ZM46.9807 36.0262C46.0418 36.0262 45.2779 36.8162 45.2779 37.7873C45.2779 38.7583 46.0418 39.5483 46.9807 39.5483C47.9197 39.5483 48.6837 38.7583 48.6837 37.7873C48.6837 36.8162 47.9197 36.0262 46.9807 36.0262Z" fill="#1F2E75"/>
<path d="M57.3774 41.9173C55.1753 41.9173 53.3838 40.0646 53.3838 37.7873C53.3838 35.51 55.1753 33.6572 57.3774 33.6572C59.5794 33.6572 61.371 35.51 61.371 37.7873C61.371 40.0646 59.5794 41.9173 57.3774 41.9173ZM57.3774 36.0262C56.4384 36.0262 55.6745 36.8162 55.6745 37.7873C55.6745 38.7583 56.4384 39.5483 57.3774 39.5483C58.3163 39.5483 59.0802 38.7583 59.0802 37.7873C59.0802 36.8162 58.3163 36.0262 57.3774 36.0262Z" fill="#1F2E75"/>
<path d="M80.63 84.9999C80.4276 84.9999 80.2246 84.9445 80.043 84.8324L74.1121 81.1706C71.7915 82.131 69.3401 82.6176 66.8162 82.6176H57.558C53.0941 82.6176 48.7054 81.0253 45.2003 78.1341C41.7517 75.2895 39.2814 71.3045 38.2445 66.9134C38.0945 66.2779 38.471 65.6369 39.0855 65.4817C39.7001 65.3263 40.3198 65.7159 40.4699 66.3514C41.3871 70.2359 43.5744 73.7627 46.6287 76.2821C49.7746 78.877 53.5539 80.2486 57.558 80.2486H66.8162C69.2233 80.2486 71.555 79.7483 73.7464 78.7615C74.085 78.609 74.4738 78.6347 74.7908 78.8305L78.7494 81.2746L77.6529 77.2427C77.5313 76.7956 77.6735 76.3163 78.0168 76.0167C81.9433 72.59 84.1953 67.5817 84.1953 62.2758V61.7881C84.1953 56.3831 81.875 51.3147 77.8295 47.8828C77.3405 47.4679 77.2692 46.7215 77.6703 46.2157C78.0716 45.7099 78.7933 45.6364 79.2824 46.0512C83.8604 49.9349 86.486 55.6708 86.486 61.7881V62.2758C86.486 68.0245 84.151 73.4642 80.0535 77.3202L81.7327 83.4947C81.8597 83.9615 81.6987 84.4612 81.3264 84.7559C81.1219 84.9178 80.8765 84.9999 80.63 84.9999Z" fill="#1F2E75"/>
<path d="M15.7969 76.1131C15.5504 76.1131 15.305 76.031 15.1005 75.8691C14.7282 75.5744 14.5672 75.0748 14.6942 74.6079L16.3734 68.4335C12.2759 64.5775 9.94092 59.1378 9.94092 53.389V52.9014C9.94092 48.1957 11.5308 43.6067 14.4177 39.9798C14.8197 39.4749 15.5416 39.4023 16.0299 39.8181C16.5183 40.2338 16.5883 40.9803 16.1863 41.4854C13.636 44.6893 12.2316 48.7436 12.2316 52.9014V53.389C12.2316 58.695 14.4836 63.7034 18.4101 67.13C18.7533 67.4295 18.8956 67.9089 18.774 68.356L17.6775 72.3879L21.6361 69.9438C21.9531 69.748 22.3419 69.7223 22.6805 69.8748C24.872 70.8615 27.2037 71.3618 29.6107 71.3618H36.0376C36.6702 71.3618 37.183 71.8921 37.183 72.5463C37.183 73.2005 36.6702 73.7308 36.0376 73.7308H29.6107C27.0869 73.7308 24.6355 73.2443 22.3148 72.2839L16.3839 75.9456C16.2023 76.0577 15.9993 76.1131 15.7969 76.1131Z" fill="#1F2E75"/>
</g>
<defs>
<clipPath id="clip0_202_794">
<rect width="76.545" height="71" fill="white" transform="translate(9.94092 14)"/>
</clipPath>
</defs>
</svg>
