<svg width="100" height="100" viewBox="0 0 100 100" fill="none" xmlns="http://www.w3.org/2000/svg">
<path d="M66.5457 78.7946H22.2602C21.6332 78.7946 21.125 78.2793 21.125 77.6435V17.0261C21.125 16.3902 21.6332 15.875 22.2602 15.875H66.5457C67.1729 15.875 67.6811 16.3902 67.6811 17.0261V42.0042C67.6811 42.64 67.1729 43.1553 66.5457 43.1553C65.9187 43.1553 65.4106 42.64 65.4106 42.0042V18.177H23.3955V76.4926H65.4106V73.7823C65.4106 73.1466 65.9187 72.6314 66.5457 72.6314C67.1729 72.6314 67.6811 73.1466 67.6811 73.7823V77.6435C67.6811 78.2793 67.1729 78.7946 66.5457 78.7946Z" fill="#FBD81F"/>
<path d="M71.6685 60.5136C71.0415 60.5136 70.5332 59.9984 70.5332 59.3626V23.5076H66.5456C65.9186 23.5076 65.4104 22.9923 65.4104 22.3565C65.4104 21.7208 65.9186 21.2056 66.5456 21.2056H71.6685C72.2955 21.2056 72.8037 21.7208 72.8037 22.3565V59.3626C72.8037 59.9984 72.2955 60.5136 71.6685 60.5136Z" fill="#FBD81F"/>
<path d="M71.6688 84.1249H27.3832C26.7562 84.1249 26.248 83.6097 26.248 82.974V77.6434C26.248 77.0077 26.7562 76.4925 27.3832 76.4925C28.0102 76.4925 28.5184 77.0077 28.5184 77.6434V81.8229H70.5334V73.6455C70.5334 73.0099 71.0418 72.4946 71.6688 72.4946C72.2958 72.4946 72.804 73.0099 72.804 73.6455V82.974C72.804 83.6097 72.2958 84.1249 71.6688 84.1249Z" fill="#FBD81F"/>
<path d="M57.1424 25.6926H31.6632C31.036 25.6926 30.5278 25.1774 30.5278 24.5415C30.5278 23.9059 31.036 23.3906 31.6632 23.3906H57.1424C57.7696 23.3906 58.2778 23.9059 58.2778 24.5415C58.2778 25.1774 57.7696 25.6926 57.1424 25.6926Z" fill="#FBD81F"/>
<path d="M60.3448 31.9133H28.4618C27.8349 31.9133 27.3267 31.3981 27.3267 30.7624C27.3267 30.1266 27.8349 29.6113 28.4618 29.6113H60.3448C60.9718 29.6113 61.48 30.1266 61.48 30.7624C61.48 31.3981 60.9718 31.9133 60.3448 31.9133Z" fill="#FBD81F"/>
<path d="M60.3448 38.1345H28.4618C27.8349 38.1345 27.3267 37.6193 27.3267 36.9836C27.3267 36.3479 27.8349 35.8325 28.4618 35.8325H60.3448C60.9718 35.8325 61.48 36.3479 61.48 36.9836C61.48 37.6193 60.9718 38.1345 60.3448 38.1345Z" fill="#FBD81F"/>
<path d="M49.6947 44.3547H28.4618C27.8349 44.3547 27.3267 43.8395 27.3267 43.2037C27.3267 42.568 27.8349 42.0527 28.4618 42.0527H49.6947C50.3217 42.0527 50.8299 42.568 50.8299 43.2037C50.8299 43.8395 50.3217 44.3547 49.6947 44.3547Z" fill="#FBD81F"/>
<path d="M47.8074 50.5754H28.4618C27.8349 50.5754 27.3267 50.0602 27.3267 49.4245C27.3267 48.7887 27.8349 48.2734 28.4618 48.2734H47.8074C48.4344 48.2734 48.9426 48.7887 48.9426 49.4245C48.9426 50.0602 48.4344 50.5754 47.8074 50.5754Z" fill="#FBD81F"/>
<path d="M43.4596 56.7966H28.4618C27.8349 56.7966 27.3267 56.2814 27.3267 55.6457C27.3267 55.01 27.8349 54.4946 28.4618 54.4946H43.4596C44.0867 54.4946 44.5949 55.01 44.5949 55.6457C44.5949 56.2814 44.0867 56.7966 43.4596 56.7966Z" fill="#FBD81F"/>
<path d="M38.5054 63.0173H28.4618C27.8349 63.0173 27.3267 62.5019 27.3267 61.8663C27.3267 61.2306 27.8349 60.7153 28.4618 60.7153H38.5054C39.1324 60.7153 39.6406 61.2306 39.6406 61.8663C39.6406 62.5019 39.1324 63.0173 38.5054 63.0173Z" fill="#FBD81F"/>
<path d="M56.5865 66.7667C56.3945 66.7667 56.2006 66.7174 56.0251 66.6158L46.7258 61.2466C46.2866 60.993 46.0658 60.4759 46.1838 59.9778C46.6694 57.9277 47.528 55.7721 48.6676 53.7435C49.8074 51.715 51.1976 49.8663 52.6881 48.3978C53.0495 48.0417 53.601 47.9688 54.041 48.2234L63.3404 53.5925C63.7794 53.8461 64.0002 54.3631 63.8822 54.8613C63.3966 56.9115 62.5377 59.0669 61.3984 61.0945C60.2588 63.1241 58.8686 64.9729 57.3781 66.4413C57.1607 66.6553 56.8751 66.7667 56.5865 66.7667ZM48.6091 59.6855L56.3891 64.1771C57.5045 62.9685 58.5443 61.5245 59.4256 59.9553C60.3062 58.388 61.0007 56.7443 61.457 55.1535L53.6769 50.6619C52.5617 51.8705 51.5212 53.3147 50.6401 54.8838C49.7598 56.451 49.0654 58.0949 48.6091 59.6855Z" fill="#FBD81F"/>
<path d="M53.7863 73.7266C53.2678 73.7266 52.7432 73.5954 52.2616 73.3175L42.9618 67.9474C41.4794 67.0914 40.9601 65.1724 41.804 63.6698L43.6289 60.42C44.0382 59.6917 44.7025 59.1684 45.4993 58.9472C46.2967 58.7224 47.1317 58.8311 47.8492 59.2466L57.1486 64.6157C57.8666 65.0295 58.3827 65.7029 58.6013 66.5112C58.8199 67.3197 58.7153 68.1658 58.3065 68.8934L56.4808 72.1431C55.9113 73.1564 54.8634 73.7266 53.7863 73.7266ZM46.3189 61.1368C46.2457 61.1368 46.1725 61.1466 46.1003 61.1664C45.8878 61.2258 45.7109 61.3652 45.6018 61.5594L43.7773 64.8082C43.5525 65.2084 43.691 65.7191 44.0856 65.9475L53.3844 71.3166C53.78 71.5442 54.2834 71.4039 54.5077 71.0038L56.3334 67.754C56.4421 67.5607 56.4701 67.3358 56.4115 67.1201C56.3534 66.9052 56.2164 66.7263 56.0253 66.6164L46.7255 61.2465C46.5996 61.1736 46.4599 61.1368 46.3189 61.1368Z" fill="#FBD81F"/>
<path d="M63.7413 56.0021C63.2233 56.0021 62.6983 55.87 62.2167 55.5929L52.9169 50.2228C51.4348 49.3668 50.9155 47.4478 51.7591 45.9444C51.7594 45.9436 53.5848 42.6946 53.5848 42.6946C53.9932 41.9672 54.6574 41.4438 55.4548 41.2226C56.2526 40.9988 57.0871 41.1067 57.8047 41.5222L67.1036 46.8904C68.586 47.7464 69.1053 49.6663 68.2614 51.1688L66.4367 54.4177C65.8664 55.4329 64.8185 56.0021 63.7413 56.0021ZM53.7324 47.0828C53.5076 47.483 53.6459 47.9945 54.0405 48.2231L63.34 53.5922C63.7356 53.8196 64.2388 53.6794 64.4636 53.2784L66.2881 50.0304C66.5128 49.6294 66.3746 49.1186 65.9798 48.8902L56.681 43.5219C56.4898 43.4114 56.2664 43.3844 56.0552 43.4419C55.8433 43.5012 55.6663 43.6406 55.5577 43.834L53.7324 47.0828Z" fill="#FBD81F"/>
<path d="M75.6464 72.5905C75.067 72.5905 74.497 72.4304 73.9871 72.1175L61.3415 64.3682C60.9694 64.1406 60.7583 63.7171 60.7983 63.2791C60.8377 62.8403 61.1206 62.4627 61.5268 62.3071C61.8638 62.1777 62.1365 61.9411 62.3157 61.6228C62.541 61.2217 62.5365 60.8387 62.4931 60.5878C62.4177 60.1535 62.5932 59.7147 62.9454 59.4557C63.2971 59.1977 63.7636 59.1643 64.1471 59.3739L77.1734 66.4461C77.945 66.8644 78.5042 67.5648 78.7472 68.4181C78.9897 69.2716 78.885 70.1671 78.4513 70.9395C78.018 71.711 77.3126 72.2595 76.4651 72.4834C76.1938 72.5554 75.9188 72.5905 75.6464 72.5905ZM63.9445 63.2738L75.1614 70.1482C75.3832 70.2831 75.6425 70.3208 75.8926 70.2561C76.1428 70.1896 76.3503 70.0287 76.478 69.8011C76.6061 69.5727 76.6372 69.3083 76.5654 69.0567C76.494 68.8056 76.3291 68.5989 76.1016 68.4758L64.5468 62.2019C64.4758 62.3943 64.3898 62.5822 64.2886 62.7621C64.1867 62.9428 64.0719 63.1137 63.9445 63.2738Z" fill="#FBD81F"/>
<path d="M60.9777 64.7089C60.3401 64.7089 59.6949 64.5471 59.1024 64.2045C58.7703 64.0139 58.4686 63.7728 58.2079 63.4897C57.8385 63.0894 57.799 62.4798 58.1139 62.0338C58.5822 61.3711 59.0231 60.6715 59.4253 59.9549C59.827 59.2408 60.1947 58.4989 60.5193 57.7508C60.737 57.2491 61.2713 56.9722 61.8018 57.0899C62.176 57.1726 62.5343 57.313 62.8678 57.5062C64.6873 58.5566 65.3259 60.9151 64.2886 62.7621C63.5879 64.0094 62.3006 64.7089 60.9777 64.7089ZM60.6359 62.3673C61.2784 62.5175 61.9719 62.2344 62.3157 61.6228C62.6585 61.0123 62.5463 60.2624 62.0892 59.7795C61.8709 60.2245 61.6399 60.6643 61.3982 61.094C61.1564 61.5248 60.9015 61.9511 60.6359 62.3673Z" fill="#FBD81F"/>
</svg>
