<svg width="100" height="100" viewBox="0 0 100 100" fill="none" xmlns="http://www.w3.org/2000/svg">
<path d="M48.415 66.7847C48.4128 66.7847 48.4106 66.7847 48.4085 66.7847C48.0081 66.7824 47.6394 66.5679 47.4407 66.2218L44.4398 60.994H43.1142C37.1141 60.994 31.4574 58.6511 27.186 54.3968C22.9147 50.1426 20.5624 44.5085 20.5624 38.5323C20.5624 32.5373 22.9221 26.8856 27.2069 22.6179C31.4916 18.3503 37.1661 16 43.1851 16H53.703C66.0099 16 76.0224 25.9723 76.0224 38.2301V38.7674C76.0224 51.0232 66.0115 60.994 53.7065 60.994H52.4709L49.3827 66.2329C49.1812 66.5749 48.8128 66.7847 48.415 66.7847ZM43.1851 18.2355C37.7656 18.2355 32.6547 20.3533 28.7939 24.1986C24.9331 28.044 22.8069 33.1344 22.8069 38.5323C22.8069 43.9113 24.9257 48.9841 28.7731 52.8161C32.6205 56.6481 37.7136 58.7585 43.1142 58.7585H45.0909C45.4935 58.7585 45.8653 58.9733 46.0651 59.3215L48.4278 63.4374L50.8607 59.3103C51.0622 58.9684 51.4304 58.7585 51.8285 58.7585H53.7065C64.7739 58.7585 73.7779 49.7905 73.7779 38.7674V38.2301C73.7779 27.205 64.7723 18.2355 53.703 18.2355H43.1851Z" fill="#FBD81F"/>
<path d="M38.1057 42.3445C35.948 42.3445 34.1926 40.5962 34.1926 38.4472C34.1926 36.2982 35.948 34.5498 38.1057 34.5498C40.2633 34.5498 42.0187 36.2982 42.0187 38.4472C42.0187 40.5962 40.2633 42.3445 38.1057 42.3445ZM38.1057 36.7853C37.1857 36.7853 36.4371 37.5308 36.4371 38.4472C36.4371 39.3635 37.1857 40.109 38.1057 40.109C39.0257 40.109 39.7742 39.3635 39.7742 38.4472C39.7742 37.5308 39.0257 36.7853 38.1057 36.7853Z" fill="#FBD81F"/>
<path d="M48.2922 42.3445C46.1346 42.3445 44.3793 40.5962 44.3793 38.4472C44.3793 36.2982 46.1346 34.5498 48.2922 34.5498C50.4499 34.5498 52.2053 36.2982 52.2053 38.4472C52.2053 40.5962 50.4499 42.3445 48.2922 42.3445ZM48.2922 36.7853C47.3722 36.7853 46.6238 37.5308 46.6238 38.4472C46.6238 39.3635 47.3722 40.109 48.2922 40.109C49.2123 40.109 49.9608 39.3635 49.9608 38.4472C49.9608 37.5308 49.2123 36.7853 48.2922 36.7853Z" fill="#FBD81F"/>
<path d="M58.479 42.3445C56.3214 42.3445 54.566 40.5962 54.566 38.4472C54.566 36.2982 56.3214 34.5498 58.479 34.5498C60.6366 34.5498 62.392 36.2982 62.392 38.4472C62.392 40.5962 60.6366 42.3445 58.479 42.3445ZM58.479 36.7853C57.559 36.7853 56.8105 37.5308 56.8105 38.4472C56.8105 39.3635 57.559 40.109 58.479 40.109C59.399 40.109 60.1475 39.3635 60.1475 38.4472C60.1475 37.5308 59.399 36.7853 58.479 36.7853Z" fill="#FBD81F"/>
<path d="M81.2622 83.0002C81.0639 83.0002 80.865 82.9479 80.6871 82.8421L74.8759 79.3866C72.6021 80.293 70.2002 80.7521 67.7272 80.7521H58.6559C54.2821 80.7521 49.982 79.2495 46.5476 76.5212C43.1687 73.8368 40.7482 70.0764 39.7322 65.9326C39.5852 65.3329 39.9541 64.7281 40.5562 64.5816C41.1585 64.4349 41.7657 64.8026 41.9127 65.4023C42.8114 69.0679 44.9545 72.396 47.9472 74.7735C51.0296 77.2223 54.7326 78.5166 58.6559 78.5166H67.7272C70.0857 78.5166 72.3703 78.0444 74.5175 77.1132C74.8493 76.9693 75.2303 76.9936 75.5408 77.1784L79.4196 79.4848L78.3452 75.68C78.226 75.2581 78.3654 74.8058 78.7018 74.5231C82.549 71.2895 84.7555 66.5632 84.7555 61.5563V61.0961C84.7555 55.9956 82.4821 51.2128 78.5182 47.9742C78.0391 47.5826 77.9692 46.8783 78.3623 46.4011C78.7555 45.9237 79.4626 45.8543 79.9418 46.2458C84.4274 49.9107 87 55.3235 87 61.0961V61.5563C87 66.9812 84.7121 72.1143 80.6974 75.7532L82.3427 81.5798C82.4671 82.0203 82.3094 82.4918 81.9446 82.7699C81.7442 82.9227 81.5037 83.0002 81.2622 83.0002Z" fill="#FBD81F"/>
<path d="M17.7378 74.6139C17.4962 74.6139 17.2558 74.5364 17.0554 74.3836C16.6906 74.1055 16.5329 73.634 16.6573 73.1935L18.3026 67.367C14.2879 63.7281 12 58.595 12 53.1701V52.7099C12 48.2693 13.5578 43.9388 16.3864 40.5163C16.7803 40.0398 17.4876 39.9713 17.9661 40.3637C18.4446 40.756 18.5132 41.4604 18.1193 41.937C15.6205 44.9605 14.2445 48.7863 14.2445 52.7099V53.1701C14.2445 58.177 16.451 62.9033 20.2983 66.1369C20.6346 66.4195 20.774 66.8719 20.6548 67.2938L19.5804 71.0986L23.4592 68.7922C23.7698 68.6074 24.1506 68.5831 24.4825 68.727C26.6297 69.6581 28.9143 70.1303 31.2728 70.1303H37.5699C38.1897 70.1303 38.6922 70.6307 38.6922 71.248C38.6922 71.8653 38.1897 72.3658 37.5699 72.3658H31.2728C28.7999 72.3658 26.398 71.9067 24.1241 71.0004L18.3129 74.4558C18.135 74.5616 17.9361 74.6139 17.7378 74.6139Z" fill="#FBD81F"/>
</svg>
