<svg width="100" height="100" viewBox="0 0 100 100" fill="none" xmlns="http://www.w3.org/2000/svg">
<path d="M80.6839 21.6276H76.4705V17.3282C76.4705 16.5947 75.8812 16 75.1543 16C74.4274 16 73.8382 16.5947 73.8382 17.3282V22.4065L68.3357 27.9739C62.7852 22.876 55.6497 20.0823 48.0984 20.0823C40.0587 20.0823 32.5004 23.2418 26.8154 28.9784C21.1311 34.7143 18 42.3419 18 50.4539C18 58.5665 21.1311 66.1935 26.8154 71.93C27.6997 72.8223 28.6296 73.6525 29.5994 74.4177L22.3508 81.7321C21.8367 82.2508 21.8367 83.092 22.3508 83.6107C22.608 83.8701 22.9448 84 23.2815 84C23.6181 84 23.9549 83.8701 24.2121 83.6107L31.7736 75.9799C36.5947 79.1336 42.2174 80.8254 48.0984 80.8254C54.0082 80.8254 59.6566 79.1166 64.4934 75.9339L72.1011 83.6107C72.3582 83.8701 72.6948 84 73.0316 84C73.3684 84 73.7052 83.8701 73.9622 83.6107C74.4764 83.092 74.4764 82.2508 73.9622 81.7321L66.6616 74.3658C67.6082 73.6142 68.5163 72.8023 69.3814 71.93C75.0656 66.1935 78.1968 58.5665 78.1968 50.4539C78.1968 45.8341 77.1949 41.3965 75.218 37.2656C74.9025 36.6047 74.1152 36.3277 73.4609 36.6468C72.8062 36.9658 72.5317 37.7596 72.8479 38.4205C74.6505 42.1882 75.5645 46.2367 75.5645 50.4539C75.5645 65.7363 63.2433 78.1699 48.0984 78.1699C32.9535 78.1699 20.6318 65.737 20.6318 50.4539C20.6318 35.1714 32.9535 22.7386 48.0984 22.7386C54.9478 22.7386 61.4234 25.2567 66.4753 29.8558L61.8558 34.53C58.0424 31.167 53.2062 29.3279 48.0984 29.3279C36.5543 29.3279 27.1624 38.805 27.1624 50.4539C27.1624 62.1035 36.5543 71.5806 48.0984 71.5806C59.6425 71.5806 69.035 62.1035 69.035 50.4539C69.035 48.5753 68.7902 46.7121 68.3075 44.9152C67.4605 41.7608 65.8866 38.842 63.7272 36.3984L69.2914 30.7682C69.2933 30.7662 69.2953 30.7649 69.2972 30.7638C69.2985 30.7618 69.2996 30.7598 69.3016 30.7584L75.7007 24.2838H80.6839C81.4108 24.2838 82 23.6892 82 22.9557C82 22.2217 81.4108 21.6276 80.6839 21.6276ZM65.7664 45.6096C66.1886 47.1802 66.4026 48.8101 66.4026 50.4539C66.4026 60.6385 58.1913 68.9243 48.0984 68.9243C38.0061 68.9243 29.7947 60.6385 29.7947 50.4539C29.7947 40.2699 38.0061 31.9841 48.0984 31.9841C52.505 31.9841 56.6804 33.5483 59.9934 36.4154L54.5597 41.9133C52.766 40.528 50.5263 39.7025 48.0984 39.7025C42.2239 39.7025 37.4438 44.5261 37.4438 50.4539C37.4438 56.3824 42.2239 61.206 48.0984 61.206C53.9736 61.206 58.7537 56.3824 58.7537 50.4539C58.7537 47.9313 57.8856 45.6102 56.4383 43.7745L61.8648 38.283C63.6995 40.3957 65.0403 42.9042 65.7664 45.6096ZM47.3452 51.094C47.6023 51.352 47.9384 51.4812 48.2746 51.4812C48.6119 51.4812 48.9493 51.3514 49.2065 51.0914L54.5648 45.67C55.5423 47.0111 56.1207 48.6654 56.1207 50.4539C56.1207 54.9182 52.5225 58.5497 48.0984 58.5497C43.675 58.5497 40.0761 54.9182 40.0761 50.4539C40.0761 45.9903 43.675 42.3587 48.0984 42.3587C49.8008 42.3587 51.3806 42.8982 52.6799 43.8146L47.3427 49.2152C46.8291 49.7347 46.8303 50.5759 47.3452 51.094Z" fill="#FBD81F"/>
<path d="M72.7984 33.7485C72.7984 34.4826 72.2098 35.0766 71.4823 35.0766C70.7555 35.0766 70.1661 34.4826 70.1661 33.7485C70.1661 33.015 70.7555 32.4204 71.4823 32.4204C72.2098 32.4204 72.7984 33.015 72.7984 33.7485Z" fill="#FBD81F"/>
</svg>
