<svg width="100" height="100" viewBox="0 0 100 100" fill="none" xmlns="http://www.w3.org/2000/svg">
<path fill-rule="evenodd" clip-rule="evenodd" d="M50 82C67.2315 82 82 67.238 82 50C82 32.7949 67.2643 18 50 18C32.7685 18 18 32.762 18 50C18 67.2299 32.762 82 50 82ZM50 20.5C65.715 20.5 79.5 34.285 79.5 50C79.5 65.715 65.715 79.5 50 79.5C34.285 79.5 20.5 65.715 20.5 50C20.5 34.285 34.285 20.5 50 20.5ZM51.2487 26.9263C51.2212 27.5925 50.6725 28.125 50 28.125C49.3275 28.125 48.7787 27.5925 48.7512 26.9263C48.75 26.91 48.75 26.8925 48.75 26.875C48.75 26.185 49.31 25.625 50 25.625C50.69 25.625 51.25 26.185 51.25 26.875C51.25 26.8925 51.25 26.91 51.2487 26.9263ZM61.25 43.75C61.25 47.8939 57.8932 51.25 53.75 51.25H43.75V56.25H52.5C53.1903 56.25 53.75 56.8096 53.75 57.5C53.75 58.1904 53.1903 58.75 52.5 58.75H43.75V65C43.75 65.6904 43.1903 66.25 42.5 66.25C41.8097 66.25 41.25 65.6904 41.25 65V58.75H40C39.3097 58.75 38.75 58.1904 38.75 57.5C38.75 56.8096 39.3097 56.25 40 56.25H41.25V51.25H40C39.3097 51.25 38.75 50.6904 38.75 50C38.75 49.3096 39.3097 48.75 40 48.75H41.25V37.5C41.25 36.8096 41.8097 36.25 42.5 36.25H53.75C57.8855 36.25 61.25 39.6145 61.25 43.75ZM58.75 43.75C58.75 40.993 56.507 38.75 53.75 38.75H43.75V48.75H53.75C56.512 48.75 58.75 46.5114 58.75 43.75ZM74.5 50C74.5 63.1126 63.025 74.5 50 74.5C36.8874 74.5 25.5 63.025 25.5 50C25.5 38.8616 33.8639 28.7017 44.7326 26.121C45.4041 25.9612 46.0781 26.3765 46.2376 27.0484C46.397 27.7201 45.9819 28.3939 45.3102 28.5534C35.4417 30.8965 28 40.1166 28 50C28 61.7196 38.2804 72 50 72C61.7196 72 72 61.7196 72 50C72 40.1166 64.5583 30.8965 54.6898 28.5534C54.0181 28.3939 53.603 27.7201 53.7624 27.0484C53.9219 26.3766 54.5956 25.9614 55.2674 26.121C66.1446 28.7037 74.5 38.8706 74.5 50Z" fill="#FBD81F"/>
</svg>
