<svg width="243" height="70" viewBox="0 0 243 70" fill="none" xmlns="http://www.w3.org/2000/svg">
<path d="M97.3138 39.0364C93.671 39.0364 90.6509 37.8273 88.2534 35.4092C85.8557 32.9911 84.6572 29.9995 84.6572 26.4357C84.6572 22.8719 85.8557 19.881 88.2534 17.4623C90.6509 15.0441 93.671 13.8345 97.3138 13.8345C99.5038 13.8345 101.527 14.3554 103.383 15.3967C105.238 16.4379 106.685 17.8498 107.723 19.6317L104.264 21.6454C103.619 20.4423 102.679 19.4874 101.446 18.7812C100.213 18.0755 98.8354 17.7224 97.3138 17.7224C94.7314 17.7224 92.6394 18.5439 91.0372 20.187C89.4347 21.8307 88.6341 23.9132 88.6341 26.4357C88.6341 28.9583 89.4347 31.0414 91.0372 32.6838C92.6394 34.3275 94.7314 35.1484 97.3138 35.1484C98.8354 35.1484 100.218 34.7959 101.463 34.0897C102.709 33.384 103.642 32.4297 104.264 31.2261L107.723 33.2048C106.708 34.9873 105.273 36.4046 103.417 37.4573C101.561 38.5106 99.527 39.0364 97.3138 39.0364Z" fill="white"/>
<path d="M126.604 38.5856L124.909 33.6908H114.604L112.91 38.5856H108.587L117.371 14.2861H122.143L130.892 38.5856H126.604ZM115.918 29.9417H123.595L119.757 18.9721L115.918 29.9417Z" fill="white"/>
<path d="M147.837 14.2861H151.813V38.5856H147.837V28.0675H137.462V38.5856H133.486V14.2861H137.462V24.249H147.837V14.2861Z" fill="white"/>
<path d="M154.684 38.5856V34.9059C156.205 35.1142 157.34 34.7442 158.089 33.7953C158.839 32.8464 159.213 31.0301 159.213 28.3451V14.2861H175.432V38.5856H171.455V18.1047H163.19V28.2757C163.19 30.4047 162.966 32.1981 162.516 33.6564C162.067 35.1142 161.427 36.2074 160.597 36.9365C159.767 37.6657 158.873 38.1516 157.917 38.3943C156.96 38.6375 155.882 38.7009 154.684 38.5856Z" fill="white"/>
<path d="M196.043 38.5856L194.348 33.6908H184.043L182.348 38.5856H178.026L186.81 14.2861H191.582L200.331 38.5856H196.043ZM185.357 29.9417H193.034L189.196 18.9721L185.357 29.9417Z" fill="white"/>
<path d="M217.448 38.5857V22.0965L206.036 38.5857H202.924V14.2862H206.901V30.7748L218.313 14.2862H221.425V38.5857H217.448ZM207.351 11.856V8.59277H217.033V11.856H207.351Z" fill="white"/>
<path d="M242 14.2861V18.1047H235.188V38.5856H231.211V18.1047H224.364V14.2861H242Z" fill="white"/>
<path d="M99.2801 63.2036H98.1431L98.0398 59.5975H86.3594L86.2558 63.2036H85.093V58.3525H86.9795C87.9613 56.8218 88.556 55.032 88.9177 53.1386C89.2793 51.1668 89.3829 49.0914 89.3829 47.0166H97.1871V58.3525H99.2801V63.2036V63.2036ZM95.8174 58.3525V48.2616H90.7006C90.6748 49.8441 90.5715 51.7375 90.2099 53.5532C89.8737 55.3695 89.2793 57.0038 88.4266 58.3525H95.8174Z" fill="white" stroke="white"/>
<path d="M112.356 53.6053H102.07C102.2 56.4853 104.138 58.4306 106.877 58.4306C108.686 58.4306 110.03 57.6785 110.908 56.5371L111.891 57.3669C110.831 58.794 109.203 59.7274 106.851 59.7274C103.234 59.7274 100.675 57.056 100.675 53.2944C100.675 49.5588 103.285 46.8867 106.748 46.8867C110.108 46.8867 112.382 49.481 112.382 52.9828C112.382 53.2685 112.382 53.5276 112.356 53.6053ZM102.122 52.464H111.012C110.754 49.8963 109.177 48.1583 106.748 48.1583C104.345 48.1583 102.458 49.8703 102.122 52.464Z" fill="white" stroke="white"/>
<path d="M115.508 47.0166H121.245C123.881 47.0166 125.38 48.0277 125.38 50.0514C125.38 51.5561 124.604 52.5939 123.286 53.0084V53.0343C124.759 53.2682 126 54.28 126 56.1734C126 58.2488 124.63 59.5975 121.374 59.5975H115.508V47.0166V47.0166ZM121.245 52.5414C122.976 52.5414 124.01 51.7634 124.01 50.3105C124.01 48.8582 122.95 48.2098 121.141 48.2098H116.877V52.5414H121.245ZM121.271 58.4043C123.545 58.4043 124.604 57.6004 124.604 56.0698C124.604 54.4873 123.493 53.6834 121.425 53.6834H116.877V58.4043H121.271Z" fill="white" stroke="white"/>
<path d="M153.469 47.0166V59.5975H152.1V48.2616H146.725C146.622 50.5184 146.492 52.827 146.26 54.6168C145.82 58.4561 144.425 59.6493 142.564 59.6493C142.203 59.6493 141.918 59.6234 141.737 59.5457L141.815 58.3007C141.995 58.3525 142.151 58.3784 142.383 58.3784C143.649 58.3784 144.657 57.1593 144.968 54.2541C145.2 52.2304 145.303 49.403 145.381 47.0166H153.469V47.0166Z" fill="white" stroke="white"/>
<path d="M156.672 53.3203C156.672 49.766 159.231 46.8867 163.056 46.8867C166.647 46.8867 169.438 49.481 169.438 53.3203C169.438 57.1078 166.647 59.7274 163.056 59.7274C159.231 59.7274 156.672 56.874 156.672 53.3203ZM168.043 53.3203C168.043 50.2331 165.821 48.1583 163.056 48.1583C160.058 48.1583 158.068 50.4669 158.068 53.3203C158.068 56.1219 160.058 58.4306 163.056 58.4306C165.846 58.4306 168.043 56.3551 168.043 53.3203Z" fill="white" stroke="white"/>
<path d="M172.643 47.0166H183.109V59.5975H181.739V48.2616H174.012V59.5975H172.643V47.0166V47.0166Z" fill="white" stroke="white"/>
<path d="M187.14 47.0166H188.483L193.704 55.7582H193.755L199.001 47.0166H200.345V59.5975H199.001V49.4289H198.975L194.247 57.2888H193.239L188.509 49.4548H188.483V59.5975H187.14V47.0166Z" fill="white" stroke="white"/>
<path d="M215.229 53.6053H204.944C205.073 56.4853 207.011 58.4306 209.75 58.4306C211.56 58.4306 212.903 57.6785 213.782 56.5371L214.764 57.3669C213.705 58.794 212.077 59.7274 209.725 59.7274C206.107 59.7274 203.549 57.056 203.549 53.2944C203.549 49.5588 206.159 46.8867 209.621 46.8867C212.981 46.8867 215.255 49.481 215.255 52.9828C215.255 53.2685 215.255 53.5276 215.229 53.6053ZM204.996 52.464H213.886C213.627 49.8963 212.051 48.1583 209.621 48.1583C207.218 48.1583 205.332 49.8703 204.996 52.464Z" fill="white" stroke="white"/>
<path d="M140.16 53.6053H129.876C130.005 56.4853 131.942 58.4306 134.682 58.4306C136.491 58.4306 137.835 57.6785 138.713 56.5371L139.696 57.3669C138.636 58.794 137.008 59.7274 134.656 59.7274C131.038 59.7274 128.48 57.056 128.48 53.2944C128.48 49.5588 131.09 46.8867 134.553 46.8867C137.912 46.8867 140.186 49.481 140.186 52.9828C140.186 53.2685 140.186 53.5276 140.16 53.6053ZM129.927 52.464H138.817C138.558 49.8963 136.982 48.1583 134.553 48.1583C132.15 48.1583 130.263 49.8703 129.927 52.464Z" fill="white" stroke="white"/>
<path d="M218.381 47.0166H219.751V52.8529H227.736V47.0166H229.105V59.5975H227.736V54.072H219.751V59.5975H218.381V47.0166Z" fill="white" stroke="white"/>
<path d="M236.16 48.2616H231.689V47.0166H242V48.2616H237.53V59.5975H236.16V48.2616V48.2616Z" fill="white" stroke="white"/>
<mask id="mask0_202_273" style="mask-type:alpha" maskUnits="userSpaceOnUse" x="0" y="0" width="70" height="70">
<ellipse cx="34.5714" cy="35.4216" rx="34.5714" ry="34.5783" fill="#C4C4C4"/>
</mask>
<g mask="url(#mask0_202_273)">
<g filter="url(#filter0_d_202_273)">
<path d="M15.4193 52.822L15.4868 52.8485C26.8044 57.2988 30.5618 58.7065 34.2772 58.7065C34.7573 58.7065 35.2579 58.6841 35.8072 58.638C39.6843 58.3121 42.7213 55.0343 42.7213 51.1759C42.7213 46.695 41.0799 45.2115 31.7444 41.2546C23.1838 37.6262 10.247 32.1429 10.247 15.4763C10.247 13.631 10.4402 11.8107 10.81 10.0283C4.15407 16.4023 0 25.386 0 35.3493C0 39.699 0.796485 43.8604 2.24104 47.7026L4.75867 48.6691C8.87301 50.2485 12.3509 51.6157 15.4193 52.822Z" fill="#FBD81F"/>
<path d="M15.4193 52.822L15.4868 52.8485C26.8044 57.2988 30.5618 58.7065 34.2772 58.7065C34.7573 58.7065 35.2579 58.6841 35.8072 58.638C39.6843 58.3121 42.7213 55.0343 42.7213 51.1759C42.7213 46.695 41.0799 45.2115 31.7444 41.2546C23.1838 37.6262 10.247 32.1429 10.247 15.4763C10.247 13.631 10.4402 11.8107 10.81 10.0283C4.15407 16.4023 0 25.386 0 35.3493C0 39.699 0.796485 43.8604 2.24104 47.7026L4.75867 48.6691C8.87301 50.2485 12.3509 51.6157 15.4193 52.822Z" fill="url(#paint0_linear_202_273)"/>
</g>
<g filter="url(#filter1_d_202_273)">
<path d="M65.2866 18.2598C65.2841 18.253 65.2821 18.2462 65.2795 18.2394L64.7078 17.0796C60.5935 15.5002 58.1729 14.5449 55.1044 13.3386L55.037 13.3121C43.7193 8.86189 39.962 7.4541 36.2466 7.4541C35.7664 7.4541 35.2659 7.47654 34.7166 7.52265C34.4083 7.54858 34.1079 7.59948 33.8114 7.66151C33.6527 7.68544 33.5042 7.7264 33.3556 7.76716C33.3367 7.77235 33.3173 7.77589 33.2985 7.7812C33.1942 7.81153 33.0921 7.8451 32.9928 7.88337C29.9777 8.8818 27.8025 11.7219 27.8025 14.9848C27.8025 19.4656 29.4439 20.9492 38.7794 24.9061C47.34 28.5345 60.2768 34.0178 60.2768 50.6843C60.2768 52.0844 60.3574 53.47 60.2353 54.8356C60.0412 56.5521 59.5246 58.3506 58.1412 61.4036C65.2546 54.9958 69.7326 45.6989 69.7326 35.3495C69.7326 29.1403 68.1119 23.3153 65.2866 18.2598Z" fill="#FBD81F"/>
<path d="M65.2866 18.2598C65.2841 18.253 65.2821 18.2462 65.2795 18.2394L64.7078 17.0796C60.5935 15.5002 58.1729 14.5449 55.1044 13.3386L55.037 13.3121C43.7193 8.86189 39.962 7.4541 36.2466 7.4541C35.7664 7.4541 35.2659 7.47654 34.7166 7.52265C34.4083 7.54858 34.1079 7.59948 33.8114 7.66151C33.6527 7.68544 33.5042 7.7264 33.3556 7.76716C33.3367 7.77235 33.3173 7.77589 33.2985 7.7812C33.1942 7.81153 33.0921 7.8451 32.9928 7.88337C29.9777 8.8818 27.8025 11.7219 27.8025 14.9848C27.8025 19.4656 29.4439 20.9492 38.7794 24.9061C47.34 28.5345 60.2768 34.0178 60.2768 50.6843C60.2768 52.0844 60.3574 53.47 60.2353 54.8356C60.0412 56.5521 59.5246 58.3506 58.1412 61.4036C65.2546 54.9958 69.7326 45.6989 69.7326 35.3495C69.7326 29.1403 68.1119 23.3153 65.2866 18.2598Z" fill="url(#paint1_linear_202_273)"/>
</g>
<g filter="url(#filter2_d_202_273)">
<path d="M37.7243 27.4146C28.5548 23.5281 25.0901 21.4497 25.0901 14.9849C25.0901 9.72201 29.2191 5.25251 34.4903 4.80945C35.094 4.75876 35.6729 4.73138 36.2467 4.73138C40.4688 4.73138 44.4189 6.21275 56.0264 10.777C57.8833 11.507 59.8931 12.297 62.099 13.1559C55.7097 5.13979 45.8887 0 34.8663 0C27.2859 0 20.2764 2.43609 14.5559 6.56017C13.4809 9.175 12.8841 12.0214 12.8841 14.9849C12.8841 30.1863 24.4971 35.1081 32.9762 38.7022C40.8916 42.0572 44.4638 44.0299 45.2039 48.6563C45.2142 48.7097 45.218 48.7697 45.2278 48.8238C45.2679 49.1032 45.3017 49.3885 45.3221 49.688L45.3503 49.6828C45.4008 50.155 45.4337 50.646 45.4337 51.1762C45.4337 56.439 41.3048 60.9086 36.0335 61.3516C35.4299 61.4023 34.8509 61.4297 34.2772 61.4297C30.055 61.4297 26.105 59.9483 14.4974 55.3841C11.4722 54.1948 8.04762 52.8486 4.01172 51.2981C9.85225 62.4167 21.4742 70 34.8663 70C41.4277 70 47.5638 68.1776 52.8053 65.014C55.8316 61.1725 57.6398 56.3503 57.6398 51.1762C57.6398 49.4858 57.4853 47.9325 57.2174 46.485C55.2677 34.8637 45.2507 30.6047 37.7243 27.4146Z" fill="#FBD81F"/>
<path d="M37.7243 27.4146C28.5548 23.5281 25.0901 21.4497 25.0901 14.9849C25.0901 9.72201 29.2191 5.25251 34.4903 4.80945C35.094 4.75876 35.6729 4.73138 36.2467 4.73138C40.4688 4.73138 44.4189 6.21275 56.0264 10.777C57.8833 11.507 59.8931 12.297 62.099 13.1559C55.7097 5.13979 45.8887 0 34.8663 0C27.2859 0 20.2764 2.43609 14.5559 6.56017C13.4809 9.175 12.8841 12.0214 12.8841 14.9849C12.8841 30.1863 24.4971 35.1081 32.9762 38.7022C40.8916 42.0572 44.4638 44.0299 45.2039 48.6563C45.2142 48.7097 45.218 48.7697 45.2278 48.8238C45.2679 49.1032 45.3017 49.3885 45.3221 49.688L45.3503 49.6828C45.4008 50.155 45.4337 50.646 45.4337 51.1762C45.4337 56.439 41.3048 60.9086 36.0335 61.3516C35.4299 61.4023 34.8509 61.4297 34.2772 61.4297C30.055 61.4297 26.105 59.9483 14.4974 55.3841C11.4722 54.1948 8.04762 52.8486 4.01172 51.2981C9.85225 62.4167 21.4742 70 34.8663 70C41.4277 70 47.5638 68.1776 52.8053 65.014C55.8316 61.1725 57.6398 56.3503 57.6398 51.1762C57.6398 49.4858 57.4853 47.9325 57.2174 46.485C55.2677 34.8637 45.2507 30.6047 37.7243 27.4146Z" fill="url(#paint2_linear_202_273)"/>
</g>
</g>
<mask id="mask1_202_273" style="mask-type:alpha" maskUnits="userSpaceOnUse" x="0" y="0" width="70" height="70">
<path fill-rule="evenodd" clip-rule="evenodd" d="M25.0902 14.9849C25.0902 21.4497 28.5549 23.5281 37.7244 27.4146C45.2508 30.6047 55.2677 34.8637 57.2175 46.485C57.4854 47.9325 57.6399 49.4858 57.6399 51.1762C57.6399 56.3503 55.8317 61.1725 52.8054 65.014C47.5639 68.1776 41.4278 70 34.8664 70C21.4743 70 9.85235 62.4167 4.01181 51.2981C8.04636 52.848 11.47 54.1939 14.4945 55.3829L14.4975 55.3841C26.1051 59.9483 30.0551 61.4297 34.2773 61.4297C34.851 61.4297 35.4299 61.4023 36.0336 61.3516C41.3049 60.9086 45.4338 56.439 45.4338 51.1762C45.4338 50.646 45.4009 50.155 45.3504 49.6828L45.3222 49.688C45.3017 49.3885 45.268 49.1032 45.2279 48.8238C45.2233 48.7982 45.22 48.7712 45.2167 48.7443C45.2131 48.7144 45.2094 48.6844 45.2039 48.6563C44.4639 44.0299 40.8916 42.0572 32.9763 38.7022L32.9754 38.7018C24.4964 35.1078 12.8842 30.1857 12.8842 14.9849C12.8842 12.0214 13.481 9.175 14.556 6.56017C20.2765 2.43609 27.286 0 34.8664 0C45.8888 0 55.7098 5.13979 62.099 13.1559C59.8932 12.297 57.8834 11.507 56.0265 10.777C44.419 6.21275 40.4689 4.73138 36.2468 4.73138C35.673 4.73138 35.0941 4.75876 34.4904 4.80945C29.2191 5.25251 25.0902 9.72201 25.0902 14.9849ZM65.2869 18.26C65.2843 18.2532 65.2823 18.2464 65.2798 18.2396L64.7081 17.0798C60.9319 15.6302 58.5825 14.7063 55.8495 13.6316L55.1047 13.3388L55.0373 13.3123C43.7196 8.86207 39.9622 7.45427 36.2468 7.45427C35.7667 7.45427 35.2662 7.47671 34.7168 7.52283C34.4086 7.54875 34.1081 7.59965 33.8116 7.66168C33.6548 7.68532 33.508 7.72559 33.3612 7.76586L33.3559 7.76733C33.3468 7.76983 33.3376 7.77194 33.3284 7.77406C33.3184 7.77634 33.3085 7.77862 33.2987 7.78138C33.1945 7.81171 33.0923 7.84528 32.993 7.88354C29.978 8.88197 27.8027 11.7221 27.8027 14.985C27.8027 19.4658 29.4441 20.9493 38.7797 24.9062C47.3402 28.5347 60.277 34.018 60.277 50.6845C60.277 51.0842 60.2836 51.4826 60.2902 51.8798V51.88C60.3066 52.8741 60.3228 53.86 60.2356 54.8358C60.0415 56.5522 59.5248 58.3508 58.1414 61.4037C65.2549 54.996 69.7329 45.6991 69.7329 35.3496C69.7329 29.1405 68.1122 23.3155 65.2869 18.26ZM15.4193 52.8223L15.4868 52.8488C26.8044 57.2991 30.5618 58.7069 34.2772 58.7069C34.7573 58.7069 35.2579 58.6844 35.8072 58.6383C39.6843 58.3124 42.7213 55.0347 42.7213 51.1762C42.7213 46.6953 41.0799 45.2118 31.7444 41.2549C23.1838 37.6265 10.247 32.1432 10.247 15.4767C10.247 13.6313 10.4402 11.811 10.81 10.0286C4.15407 16.4026 0 25.3863 0 35.3496C0 39.6993 0.796485 43.8607 2.24104 47.7029L4.75867 48.6694C8.87301 50.2488 12.3509 51.616 15.4193 52.8223Z" fill="#FBD81F"/>
<path fill-rule="evenodd" clip-rule="evenodd" d="M25.0902 14.9849C25.0902 21.4497 28.5549 23.5281 37.7244 27.4146C45.2508 30.6047 55.2677 34.8637 57.2175 46.485C57.4854 47.9325 57.6399 49.4858 57.6399 51.1762C57.6399 56.3503 55.8317 61.1725 52.8054 65.014C47.5639 68.1776 41.4278 70 34.8664 70C21.4743 70 9.85235 62.4167 4.01181 51.2981C8.04636 52.848 11.47 54.1939 14.4945 55.3829L14.4975 55.3841C26.1051 59.9483 30.0551 61.4297 34.2773 61.4297C34.851 61.4297 35.4299 61.4023 36.0336 61.3516C41.3049 60.9086 45.4338 56.439 45.4338 51.1762C45.4338 50.646 45.4009 50.155 45.3504 49.6828L45.3222 49.688C45.3017 49.3885 45.268 49.1032 45.2279 48.8238C45.2233 48.7982 45.22 48.7712 45.2167 48.7443C45.2131 48.7144 45.2094 48.6844 45.2039 48.6563C44.4639 44.0299 40.8916 42.0572 32.9763 38.7022L32.9754 38.7018C24.4964 35.1078 12.8842 30.1857 12.8842 14.9849C12.8842 12.0214 13.481 9.175 14.556 6.56017C20.2765 2.43609 27.286 0 34.8664 0C45.8888 0 55.7098 5.13979 62.099 13.1559C59.8932 12.297 57.8834 11.507 56.0265 10.777C44.419 6.21275 40.4689 4.73138 36.2468 4.73138C35.673 4.73138 35.0941 4.75876 34.4904 4.80945C29.2191 5.25251 25.0902 9.72201 25.0902 14.9849ZM65.2869 18.26C65.2843 18.2532 65.2823 18.2464 65.2798 18.2396L64.7081 17.0798C60.9319 15.6302 58.5825 14.7063 55.8495 13.6316L55.1047 13.3388L55.0373 13.3123C43.7196 8.86207 39.9622 7.45427 36.2468 7.45427C35.7667 7.45427 35.2662 7.47671 34.7168 7.52283C34.4086 7.54875 34.1081 7.59965 33.8116 7.66168C33.6548 7.68532 33.508 7.72559 33.3612 7.76586L33.3559 7.76733C33.3468 7.76983 33.3376 7.77194 33.3284 7.77406C33.3184 7.77634 33.3085 7.77862 33.2987 7.78138C33.1945 7.81171 33.0923 7.84528 32.993 7.88354C29.978 8.88197 27.8027 11.7221 27.8027 14.985C27.8027 19.4658 29.4441 20.9493 38.7797 24.9062C47.3402 28.5347 60.277 34.018 60.277 50.6845C60.277 51.0842 60.2836 51.4826 60.2902 51.8798V51.88C60.3066 52.8741 60.3228 53.86 60.2356 54.8358C60.0415 56.5522 59.5248 58.3508 58.1414 61.4037C65.2549 54.996 69.7329 45.6991 69.7329 35.3496C69.7329 29.1405 68.1122 23.3155 65.2869 18.26ZM15.4193 52.8223L15.4868 52.8488C26.8044 57.2991 30.5618 58.7069 34.2772 58.7069C34.7573 58.7069 35.2579 58.6844 35.8072 58.6383C39.6843 58.3124 42.7213 55.0347 42.7213 51.1762C42.7213 46.6953 41.0799 45.2118 31.7444 41.2549C23.1838 37.6265 10.247 32.1432 10.247 15.4767C10.247 13.6313 10.4402 11.811 10.81 10.0286C4.15407 16.4026 0 25.3863 0 35.3496C0 39.6993 0.796485 43.8607 2.24104 47.7029L4.75867 48.6694C8.87301 50.2488 12.3509 51.616 15.4193 52.8223Z" fill="url(#paint3_linear_202_273)"/>
</mask>
<g mask="url(#mask1_202_273)">
<g filter="url(#filter3_f_202_273)">
<ellipse rx="23.6613" ry="17.4042" transform="matrix(0.90406 -0.427405 0.427266 0.904126 23.7681 19.9449)" fill="#FFE023"/>
</g>
<mask id="mask2_202_273" style="mask-type:alpha" maskUnits="userSpaceOnUse" x="4" y="0" width="59" height="70">
<path d="M37.7243 27.4146C28.5548 23.5281 25.0901 21.4497 25.0901 14.9849C25.0901 9.72201 29.2191 5.25251 34.4903 4.80945C35.094 4.75876 35.6729 4.73138 36.2467 4.73138C40.4688 4.73138 44.4189 6.21275 56.0264 10.777C57.8833 11.507 59.8931 12.297 62.099 13.1559C55.7097 5.13979 45.8887 0 34.8663 0C27.2859 0 20.2764 2.43609 14.5559 6.56017C13.4809 9.175 12.8841 12.0214 12.8841 14.9849C12.8841 30.1863 24.4971 35.1081 32.9762 38.7022C40.8916 42.0572 44.4638 44.0299 45.2039 48.6563C45.2142 48.7097 45.218 48.7697 45.2278 48.8238C45.2679 49.1032 45.3017 49.3885 45.3221 49.688L45.3503 49.6828C45.4008 50.155 45.4337 50.646 45.4337 51.1762C45.4337 56.439 41.3048 60.9085 36.0335 61.3516C35.4299 61.4023 34.8509 61.4297 34.2772 61.4297C30.055 61.4297 26.105 59.9483 14.4974 55.3841C11.4722 54.1948 8.04762 52.8486 4.01172 51.2981C9.85225 62.4167 21.4742 70 34.8663 70C41.4277 70 47.5638 68.1776 52.8053 65.014C55.8316 61.1725 57.6398 56.3503 57.6398 51.1762C57.6398 49.4858 57.4853 47.9325 57.2174 46.485C55.2677 34.8637 45.2507 30.6047 37.7243 27.4146Z" fill="#FBD81F"/>
<path d="M37.7243 27.4146C28.5548 23.5281 25.0901 21.4497 25.0901 14.9849C25.0901 9.72201 29.2191 5.25251 34.4903 4.80945C35.094 4.75876 35.6729 4.73138 36.2467 4.73138C40.4688 4.73138 44.4189 6.21275 56.0264 10.777C57.8833 11.507 59.8931 12.297 62.099 13.1559C55.7097 5.13979 45.8887 0 34.8663 0C27.2859 0 20.2764 2.43609 14.5559 6.56017C13.4809 9.175 12.8841 12.0214 12.8841 14.9849C12.8841 30.1863 24.4971 35.1081 32.9762 38.7022C40.8916 42.0572 44.4638 44.0299 45.2039 48.6563C45.2142 48.7097 45.218 48.7697 45.2278 48.8238C45.2679 49.1032 45.3017 49.3885 45.3221 49.688L45.3503 49.6828C45.4008 50.155 45.4337 50.646 45.4337 51.1762C45.4337 56.439 41.3048 60.9085 36.0335 61.3516C35.4299 61.4023 34.8509 61.4297 34.2772 61.4297C30.055 61.4297 26.105 59.9483 14.4974 55.3841C11.4722 54.1948 8.04762 52.8486 4.01172 51.2981C9.85225 62.4167 21.4742 70 34.8663 70C41.4277 70 47.5638 68.1776 52.8053 65.014C55.8316 61.1725 57.6398 56.3503 57.6398 51.1762C57.6398 49.4858 57.4853 47.9325 57.2174 46.485C55.2677 34.8637 45.2507 30.6047 37.7243 27.4146Z" fill="url(#paint4_linear_202_273)"/>
</mask>
<g mask="url(#mask2_202_273)">
<g filter="url(#filter4_f_202_273)">
<ellipse rx="15.7587" ry="9.88793" transform="matrix(0.90406 -0.427405 0.427266 0.904126 48.1591 62.9043)" fill="#FFFBE1" fill-opacity="0.51" style="mix-blend-mode:overlay"/>
</g>
</g>
</g>
<defs>
<filter id="filter0_d_202_273" x="-1" y="10.0283" width="46.7212" height="52.6782" filterUnits="userSpaceOnUse" color-interpolation-filters="sRGB">
<feFlood flood-opacity="0" result="BackgroundImageFix"/>
<feColorMatrix in="SourceAlpha" type="matrix" values="0 0 0 0 0 0 0 0 0 0 0 0 0 0 0 0 0 0 127 0" result="hardAlpha"/>
<feOffset dx="1" dy="2"/>
<feGaussianBlur stdDeviation="1"/>
<feComposite in2="hardAlpha" operator="out"/>
<feColorMatrix type="matrix" values="0 0 0 0 0.779167 0 0 0 0 0.646449 0 0 0 0 0.305174 0 0 0 1 0"/>
<feBlend mode="multiply" in2="BackgroundImageFix" result="effect1_dropShadow_202_273"/>
<feBlend mode="normal" in="SourceGraphic" in2="effect1_dropShadow_202_273" result="shape"/>
</filter>
<filter id="filter1_d_202_273" x="26.8025" y="7.4541" width="45.9302" height="57.9492" filterUnits="userSpaceOnUse" color-interpolation-filters="sRGB">
<feFlood flood-opacity="0" result="BackgroundImageFix"/>
<feColorMatrix in="SourceAlpha" type="matrix" values="0 0 0 0 0 0 0 0 0 0 0 0 0 0 0 0 0 0 127 0" result="hardAlpha"/>
<feOffset dx="1" dy="2"/>
<feGaussianBlur stdDeviation="1"/>
<feComposite in2="hardAlpha" operator="out"/>
<feColorMatrix type="matrix" values="0 0 0 0 0.779167 0 0 0 0 0.646449 0 0 0 0 0.305174 0 0 0 1 0"/>
<feBlend mode="multiply" in2="BackgroundImageFix" result="effect1_dropShadow_202_273"/>
<feBlend mode="normal" in="SourceGraphic" in2="effect1_dropShadow_202_273" result="shape"/>
</filter>
<filter id="filter2_d_202_273" x="3.01172" y="0" width="62.0872" height="74" filterUnits="userSpaceOnUse" color-interpolation-filters="sRGB">
<feFlood flood-opacity="0" result="BackgroundImageFix"/>
<feColorMatrix in="SourceAlpha" type="matrix" values="0 0 0 0 0 0 0 0 0 0 0 0 0 0 0 0 0 0 127 0" result="hardAlpha"/>
<feOffset dx="1" dy="2"/>
<feGaussianBlur stdDeviation="1"/>
<feComposite in2="hardAlpha" operator="out"/>
<feColorMatrix type="matrix" values="0 0 0 0 0.779167 0 0 0 0 0.646449 0 0 0 0 0.305174 0 0 0 1 0"/>
<feBlend mode="multiply" in2="BackgroundImageFix" result="effect1_dropShadow_202_273"/>
<feBlend mode="normal" in="SourceGraphic" in2="effect1_dropShadow_202_273" result="shape"/>
</filter>
<filter id="filter3_f_202_273" x="-0.88501" y="-0.762207" width="49.3062" height="41.4146" filterUnits="userSpaceOnUse" color-interpolation-filters="sRGB">
<feFlood flood-opacity="0" result="BackgroundImageFix"/>
<feBlend mode="normal" in="SourceGraphic" in2="BackgroundImageFix" result="shape"/>
<feGaussianBlur stdDeviation="1" result="effect1_foregroundBlur_202_273"/>
</filter>
<filter id="filter4_f_202_273" x="24.2952" y="42.7104" width="47.7278" height="40.3877" filterUnits="userSpaceOnUse" color-interpolation-filters="sRGB">
<feFlood flood-opacity="0" result="BackgroundImageFix"/>
<feBlend mode="normal" in="SourceGraphic" in2="BackgroundImageFix" result="shape"/>
<feGaussianBlur stdDeviation="4.5" result="effect1_foregroundBlur_202_273"/>
</filter>
<linearGradient id="paint0_linear_202_273" x1="21.2353" y1="12.9607" x2="30.8589" y2="53.4272" gradientUnits="userSpaceOnUse">
<stop stop-color="#FFA462" stop-opacity="0.16"/>
<stop offset="1" stop-color="#FEDF23"/>
</linearGradient>
<linearGradient id="paint1_linear_202_273" x1="48.6445" y1="10.7041" x2="60.5134" y2="54.9017" gradientUnits="userSpaceOnUse">
<stop stop-color="#FFA462" stop-opacity="0.16"/>
<stop offset="1" stop-color="#FEDF23"/>
</linearGradient>
<linearGradient id="paint2_linear_202_273" x1="32.8849" y1="4.21687" x2="47.4287" y2="62.0413" gradientUnits="userSpaceOnUse">
<stop stop-color="#FFA462" stop-opacity="0.16"/>
<stop offset="1" stop-color="#FEDF23"/>
</linearGradient>
<linearGradient id="paint3_linear_202_273" x1="32.885" y1="4.21687" x2="47.4288" y2="62.0414" gradientUnits="userSpaceOnUse">
<stop stop-color="#FFA462" stop-opacity="0.16"/>
<stop offset="1" stop-color="#FEDF23"/>
</linearGradient>
<linearGradient id="paint4_linear_202_273" x1="32.8849" y1="4.21687" x2="47.4287" y2="62.0413" gradientUnits="userSpaceOnUse">
<stop stop-color="#FFA462" stop-opacity="0.16"/>
<stop offset="1" stop-color="#FFEB83"/>
</linearGradient>
</defs>
</svg>
