<svg width="171" height="49" viewBox="0 0 171 49" fill="none" xmlns="http://www.w3.org/2000/svg">
<path d="M68.3609 27.3254C65.802 27.3254 63.6804 26.4791 61.9962 24.7864C60.3118 23.0937 59.47 20.9996 59.47 18.505C59.47 16.0103 60.3118 13.9166 61.9962 12.2235C63.6804 10.5308 65.802 9.68408 68.3609 9.68408C69.8994 9.68408 71.3204 10.0487 72.6242 10.7776C73.9277 11.5065 74.9443 12.4948 75.6729 13.7421L73.2436 15.1517C72.7902 14.3096 72.1302 13.6411 71.2638 13.1468C70.3974 12.6528 69.4299 12.4056 68.3609 12.4056C66.5469 12.4056 65.0773 12.9807 63.9518 14.1309C62.8261 15.2814 62.2636 16.7392 62.2636 18.505C62.2636 20.2707 62.8261 21.7289 63.9518 22.8786C65.0773 24.0292 66.5469 24.6039 68.3609 24.6039C69.4299 24.6039 70.4014 24.3571 71.276 23.8627C72.1506 23.3688 72.8064 22.7008 73.2436 21.8582L75.6729 23.2433C74.9601 24.491 73.952 25.4832 72.6485 26.2201C71.3447 26.9574 69.9156 27.3254 68.3609 27.3254Z" fill="black"/>
<path d="M88.9365 27.0097L87.7462 23.5833H80.507L79.3167 27.0097H76.2802L82.4504 10H85.8029L91.9488 27.0097H88.9365ZM81.4302 20.9589H86.8232L84.1267 13.2802L81.4302 20.9589Z" fill="black"/>
<path d="M103.852 10H106.646V27.0097H103.852V19.6469H96.5645V27.0097H93.7711V10H96.5645V16.974H103.852V10Z" fill="black"/>
<path d="M108.662 27.0096V24.4339C109.731 24.5796 110.528 24.3206 111.055 23.6564C111.581 22.9922 111.844 21.7208 111.844 19.8413V10H123.238V27.0096H120.444V12.673H114.638V19.7927C114.638 21.283 114.48 22.5384 114.164 23.5592C113.849 24.5796 113.399 25.3449 112.816 25.8553C112.233 26.3657 111.605 26.7058 110.933 26.8757C110.261 27.046 109.504 27.0904 108.662 27.0096Z" fill="black"/>
<path d="M137.716 27.0097L136.526 23.5833H129.286L128.096 27.0097H125.06L131.23 10H134.582L140.728 27.0097H137.716ZM130.209 20.9589H135.602L132.906 13.2802L130.209 20.9589Z" fill="black"/>
<path d="M152.753 27.0097V15.4672L144.736 27.0097H142.55V10H145.344V21.542L153.36 10H155.547V27.0097H152.753ZM145.66 8.29888V6.01465H152.461V8.29888H145.66Z" fill="black"/>
<path d="M170 10V12.673H165.215V27.0097H162.421V12.673H157.611V10H170Z" fill="black"/>
<path d="M69.7421 44.2425H68.9434L68.8709 41.7182H60.6656L60.5929 44.2425H59.776V40.8467H61.1012C61.7909 39.7753 62.2087 38.5224 62.4627 37.197C62.7168 35.8168 62.7896 34.364 62.7896 32.9116H68.2718V40.8467H69.7421V44.2425V44.2425ZM67.3097 40.8467V33.7831H63.7152C63.6971 34.8909 63.6246 36.2162 63.3705 37.4872C63.1343 38.7587 62.7168 39.9027 62.1178 40.8467H67.3097Z" fill="black" stroke="black"/>
<path d="M78.9276 37.5238H71.7023C71.7932 39.5398 73.1547 40.9015 75.079 40.9015C76.3496 40.9015 77.2938 40.3751 77.9108 39.5761L78.6007 40.1569C77.8564 41.1559 76.7127 41.8093 75.0609 41.8093C72.5194 41.8093 70.722 39.9393 70.722 37.3062C70.722 34.6912 72.5557 32.8208 74.9883 32.8208C77.3482 32.8208 78.9457 34.6368 78.9457 37.0881C78.9457 37.2881 78.9457 37.4694 78.9276 37.5238ZM71.7388 36.7249H77.9833C77.802 34.9275 76.6946 33.7109 74.9883 33.7109C73.3 33.7109 71.9748 34.9093 71.7388 36.7249Z" fill="black" stroke="black"/>
<path d="M81.142 32.9116H85.1718C87.0236 32.9116 88.0766 33.6194 88.0766 35.036C88.0766 36.0893 87.5317 36.8157 86.6061 37.1059V37.124C87.6405 37.2877 88.5122 37.996 88.5122 39.3214C88.5122 40.7742 87.5499 41.7182 85.2625 41.7182H81.142V32.9116V32.9116ZM85.1718 36.779C86.388 36.779 87.1142 36.2344 87.1142 35.2173C87.1142 34.2007 86.3699 33.7468 85.0993 33.7468H82.1039V36.779H85.1718ZM85.19 40.883C86.7874 40.883 87.5317 40.3203 87.5317 39.2488C87.5317 38.1411 86.7511 37.5784 85.2988 37.5784H82.1039V40.883H85.19Z" fill="black" stroke="black"/>
<path d="M107.809 32.9116V41.7182H106.847V33.7831H103.071C102.998 35.3629 102.908 36.9789 102.744 38.2318C102.435 40.9193 101.455 41.7545 100.148 41.7545C99.8942 41.7545 99.6943 41.7364 99.5674 41.682L99.6218 40.8105C99.7487 40.8467 99.858 40.8649 100.021 40.8649C100.911 40.8649 101.619 40.0115 101.837 37.9779C102 36.5613 102.072 34.5821 102.127 32.9116H107.809V32.9116Z" fill="black" stroke="black"/>
<path d="M110.059 37.3243C110.059 34.8363 111.856 32.8208 114.543 32.8208C117.066 32.8208 119.027 34.6368 119.027 37.3243C119.027 39.9756 117.066 41.8093 114.543 41.8093C111.856 41.8093 110.059 39.8119 110.059 37.3243ZM118.047 37.3243C118.047 35.1632 116.486 33.7109 114.543 33.7109C112.437 33.7109 111.04 35.327 111.04 37.3243C111.04 39.2854 112.437 40.9015 114.543 40.9015C116.504 40.9015 118.047 39.4487 118.047 37.3243Z" fill="black" stroke="black"/>
<path d="M121.278 32.9116H128.63V41.7182H127.668V33.7831H122.24V41.7182H121.278V32.9116V32.9116Z" fill="black" stroke="black"/>
<path d="M131.462 32.9116H132.406L136.073 39.0307H136.109L139.794 32.9116H140.738V41.7182H139.794V34.6002H139.776L136.454 40.1022H135.746L132.424 34.6183H132.406V41.7182H131.462V32.9116Z" fill="black" stroke="black"/>
<path d="M151.194 37.5238H143.969C144.06 39.5398 145.421 40.9015 147.345 40.9015C148.616 40.9015 149.56 40.3751 150.177 39.5761L150.867 40.1569C150.123 41.1559 148.979 41.8093 147.327 41.8093C144.786 41.8093 142.989 39.9393 142.989 37.3062C142.989 34.6912 144.822 32.8208 147.255 32.8208C149.614 32.8208 151.212 34.6368 151.212 37.0881C151.212 37.2881 151.212 37.4694 151.194 37.5238ZM144.005 36.7249H150.25C150.068 34.9275 148.961 33.7109 147.255 33.7109C145.566 33.7109 144.241 34.9093 144.005 36.7249Z" fill="black" stroke="black"/>
<path d="M98.4596 37.5238H91.2349C91.3256 39.5398 92.6868 40.9015 94.6111 40.9015C95.8822 40.9015 96.8259 40.3751 97.4434 39.5761L98.1333 40.1569C97.389 41.1559 96.2453 41.8093 94.593 41.8093C92.0518 41.8093 90.2544 39.9393 90.2544 37.3062C90.2544 34.6912 92.088 32.8208 94.5204 32.8208C96.8803 32.8208 98.4778 34.6368 98.4778 37.0881C98.4778 37.2881 98.4778 37.4694 98.4596 37.5238ZM91.2712 36.7249H97.5159C97.3341 34.9275 96.2271 33.7109 94.5204 33.7109C92.8323 33.7109 91.5069 34.9093 91.2712 36.7249Z" fill="black" stroke="black"/>
<path d="M153.408 32.9116H154.37V36.9971H159.98V32.9116H160.942V41.7182H159.98V37.8504H154.37V41.7182H153.408V32.9116Z" fill="black" stroke="black"/>
<path d="M165.897 33.7831H162.757V32.9116H170V33.7831H166.859V41.7182H165.897V33.7831V33.7831Z" fill="black" stroke="black"/>
<mask id="mask0_202_1719" style="mask-type:alpha" maskUnits="userSpaceOnUse" x="0" y="0" width="49" height="49">
<ellipse cx="24.2857" cy="24.7952" rx="24.2857" ry="24.2048" fill="#C4C4C4"/>
</mask>
<g mask="url(#mask0_202_1719)">
<g filter="url(#filter0_d_202_1719)">
<path d="M10.8318 36.9756L10.8791 36.9942C18.8296 40.1093 21.469 41.0948 24.079 41.0948C24.4163 41.0948 24.7679 41.0791 25.1538 41.0468C27.8774 40.8187 30.0108 38.5242 30.0108 35.8233C30.0108 32.6867 28.8578 31.6482 22.2998 28.8784C16.2861 26.3385 7.1983 22.5002 7.1983 10.8336C7.1983 9.54188 7.33399 8.26766 7.59383 7.02002C2.91815 11.4818 0 17.7704 0 24.7447C0 27.7895 0.559515 30.7025 1.57428 33.392L3.34287 34.0686C6.2331 35.1742 8.67625 36.1312 10.8318 36.9756Z" fill="#FBD81F"/>
<path d="M10.8318 36.9756L10.8791 36.9942C18.8296 40.1093 21.469 41.0948 24.079 41.0948C24.4163 41.0948 24.7679 41.0791 25.1538 41.0468C27.8774 40.8187 30.0108 38.5242 30.0108 35.8233C30.0108 32.6867 28.8578 31.6482 22.2998 28.8784C16.2861 26.3385 7.1983 22.5002 7.1983 10.8336C7.1983 9.54188 7.33399 8.26766 7.59383 7.02002C2.91815 11.4818 0 17.7704 0 24.7447C0 27.7895 0.559515 30.7025 1.57428 33.392L3.34287 34.0686C6.2331 35.1742 8.67625 36.1312 10.8318 36.9756Z" fill="url(#paint0_linear_202_1719)"/>
</g>
<g filter="url(#filter1_d_202_1719)">
<path d="M45.8626 12.7818C45.8608 12.777 45.8594 12.7722 45.8576 12.7675L45.456 11.9557C42.5658 10.8501 40.8653 10.1813 38.7098 9.33694L38.6624 9.31839C30.712 6.20323 28.0725 5.21777 25.4626 5.21777C25.1253 5.21777 24.7737 5.23348 24.3878 5.26576C24.1712 5.28391 23.9602 5.31954 23.7519 5.36296C23.6404 5.37971 23.5361 5.40838 23.4317 5.43692C23.4185 5.44055 23.4048 5.44302 23.3916 5.44675C23.3183 5.46798 23.2466 5.49148 23.1768 5.51826C21.0588 6.21716 19.5308 8.20523 19.5308 10.4892C19.5308 13.6258 20.6838 14.6643 27.2418 17.4341C33.2554 19.974 42.3433 23.8123 42.3433 35.4789C42.3433 36.459 42.3999 37.4289 42.3141 38.3848C42.1778 39.5863 41.8149 40.8453 40.843 42.9824C45.8401 38.4969 48.9858 31.9891 48.9858 24.7445C48.9858 20.3981 47.8473 16.3206 45.8626 12.7818Z" fill="#FBD81F"/>
<path d="M45.8626 12.7818C45.8608 12.777 45.8594 12.7722 45.8576 12.7675L45.456 11.9557C42.5658 10.8501 40.8653 10.1813 38.7098 9.33694L38.6624 9.31839C30.712 6.20323 28.0725 5.21777 25.4626 5.21777C25.1253 5.21777 24.7737 5.23348 24.3878 5.26576C24.1712 5.28391 23.9602 5.31954 23.7519 5.36296C23.6404 5.37971 23.5361 5.40838 23.4317 5.43692C23.4185 5.44055 23.4048 5.44302 23.3916 5.44675C23.3183 5.46798 23.2466 5.49148 23.1768 5.51826C21.0588 6.21716 19.5308 8.20523 19.5308 10.4892C19.5308 13.6258 20.6838 14.6643 27.2418 17.4341C33.2554 19.974 42.3433 23.8123 42.3433 35.4789C42.3433 36.459 42.3999 37.4289 42.3141 38.3848C42.1778 39.5863 41.8149 40.8453 40.843 42.9824C45.8401 38.4969 48.9858 31.9891 48.9858 24.7445C48.9858 20.3981 47.8473 16.3206 45.8626 12.7818Z" fill="url(#paint1_linear_202_1719)"/>
</g>
<g filter="url(#filter2_d_202_1719)">
<path d="M26.5006 19.1902C20.0592 16.4696 17.6253 15.0148 17.6253 10.4894C17.6253 6.80541 20.5258 3.67676 24.2288 3.36661C24.6528 3.33113 25.0595 3.31196 25.4626 3.31196C28.4285 3.31196 31.2034 4.34893 39.3574 7.54389C40.6619 8.05488 42.0737 8.6079 43.6233 9.2091C39.1349 3.59785 32.2359 0 24.4929 0C19.1678 0 14.2438 1.70526 10.2253 4.59212C9.4701 6.4225 9.05082 8.41499 9.05082 10.4894C9.05082 21.1304 17.2087 24.5757 23.1651 27.0915C28.7255 29.44 31.2349 30.8209 31.7548 34.0594C31.7621 34.0968 31.7648 34.1388 31.7716 34.1766C31.7998 34.3722 31.8235 34.572 31.8378 34.7816L31.8577 34.7779C31.8931 35.1085 31.9163 35.4522 31.9163 35.8233C31.9163 39.5073 29.0158 42.636 25.3128 42.9461C24.8888 42.9816 24.4821 43.0008 24.079 43.0008C21.1131 43.0008 18.3382 41.9638 10.1842 38.7689C8.05902 37.9364 5.65331 36.994 2.81818 35.9086C6.92103 43.6917 15.0852 49 24.4929 49C29.1021 49 33.4126 47.7243 37.0946 45.5098C39.2206 42.8207 40.4908 39.4452 40.4908 35.8233C40.4908 34.64 40.3823 33.5528 40.1941 32.5395C38.8244 24.4046 31.7877 21.4233 26.5006 19.1902Z" fill="#FBD81F"/>
<path d="M26.5006 19.1902C20.0592 16.4696 17.6253 15.0148 17.6253 10.4894C17.6253 6.80541 20.5258 3.67676 24.2288 3.36661C24.6528 3.33113 25.0595 3.31196 25.4626 3.31196C28.4285 3.31196 31.2034 4.34893 39.3574 7.54389C40.6619 8.05488 42.0737 8.6079 43.6233 9.2091C39.1349 3.59785 32.2359 0 24.4929 0C19.1678 0 14.2438 1.70526 10.2253 4.59212C9.4701 6.4225 9.05082 8.41499 9.05082 10.4894C9.05082 21.1304 17.2087 24.5757 23.1651 27.0915C28.7255 29.44 31.2349 30.8209 31.7548 34.0594C31.7621 34.0968 31.7648 34.1388 31.7716 34.1766C31.7998 34.3722 31.8235 34.572 31.8378 34.7816L31.8577 34.7779C31.8931 35.1085 31.9163 35.4522 31.9163 35.8233C31.9163 39.5073 29.0158 42.636 25.3128 42.9461C24.8888 42.9816 24.4821 43.0008 24.079 43.0008C21.1131 43.0008 18.3382 41.9638 10.1842 38.7689C8.05902 37.9364 5.65331 36.994 2.81818 35.9086C6.92103 43.6917 15.0852 49 24.4929 49C29.1021 49 33.4126 47.7243 37.0946 45.5098C39.2206 42.8207 40.4908 39.4452 40.4908 35.8233C40.4908 34.64 40.3823 33.5528 40.1941 32.5395C38.8244 24.4046 31.7877 21.4233 26.5006 19.1902Z" fill="url(#paint2_linear_202_1719)"/>
</g>
<path fill-rule="evenodd" clip-rule="evenodd" d="M26.8924 0.116196C26.103 0.039336 25.3026 0 24.493 0C19.1679 0 14.2439 1.70526 10.2253 4.59212C9.62249 6.05334 9.23369 7.61788 9.10138 9.24495C14.1581 4.87591 20.225 1.6932 26.8924 0.116196Z" fill="#FBD81F"/>
<path fill-rule="evenodd" clip-rule="evenodd" d="M26.8924 0.116196C26.103 0.039336 25.3026 0 24.493 0C19.1679 0 14.2439 1.70526 10.2253 4.59212C9.62249 6.05334 9.23369 7.61788 9.10138 9.24495C14.1581 4.87591 20.225 1.6932 26.8924 0.116196Z" fill="#FFE477"/>
</g>
<mask id="mask1_202_1719" style="mask-type:alpha" maskUnits="userSpaceOnUse" x="0" y="0" width="49" height="49">
<path fill-rule="evenodd" clip-rule="evenodd" d="M17.6253 10.4894C17.6253 15.0148 20.0593 16.4696 26.5006 19.1902C31.7878 21.4233 38.8245 24.4046 40.1941 32.5395C40.3823 33.5528 40.4908 34.64 40.4908 35.8233C40.4908 39.4452 39.2206 42.8207 37.0947 45.5098C33.4127 47.7243 29.1022 49 24.493 49C15.0852 49 6.92107 43.6917 2.81821 35.9086C5.65217 36.9935 8.05705 37.9356 10.1816 38.7678L10.1842 38.7689C18.3383 41.9638 21.1131 43.0008 24.0791 43.0008C24.4821 43.0008 24.8888 42.9816 25.3129 42.9461C29.0158 42.636 31.9163 39.5073 31.9163 35.8233C31.9163 35.4522 31.8932 35.1085 31.8577 34.7779L31.8379 34.7816C31.8235 34.572 31.7998 34.3722 31.7716 34.1766C31.7684 34.1587 31.7661 34.1399 31.7638 34.121C31.7612 34.1001 31.7587 34.0791 31.7548 34.0594C31.235 30.8209 28.7255 29.44 23.1651 27.0915L23.1645 27.0913C17.2082 24.5755 9.05085 21.13 9.05085 10.4894C9.05085 8.41499 9.47014 6.4225 10.2253 4.59212C14.2438 1.70526 19.1679 0 24.493 0C32.2359 0 39.135 3.59785 43.6233 9.2091C42.0737 8.6079 40.6619 8.05488 39.3575 7.54389C31.2034 4.34893 28.4286 3.31196 25.4626 3.31196C25.0596 3.31196 24.6529 3.33113 24.2288 3.36661C20.5258 3.67676 17.6253 6.80541 17.6253 10.4894ZM45.8627 12.782L45.8602 12.7749L45.8577 12.7677L45.4561 11.9559C42.8036 10.9412 41.1532 10.2945 39.2334 9.5423L38.7099 9.3372L38.6625 9.31864C30.7121 6.20348 28.0726 5.21803 25.4627 5.21803C25.1254 5.21803 24.7738 5.23373 24.3879 5.26601C24.1713 5.28416 23.9603 5.31979 23.752 5.36321C23.6418 5.37976 23.5387 5.40795 23.4356 5.43613L23.4318 5.43717C23.4254 5.43892 23.419 5.44039 23.4125 5.44187C23.4055 5.44347 23.3985 5.44506 23.3917 5.447C23.3184 5.46823 23.2467 5.49173 23.1769 5.51851C21.0589 6.21741 19.5309 8.20548 19.5309 10.4895C19.5309 13.6261 20.6839 14.6646 27.2419 17.4344C33.2555 19.9743 42.3434 23.8126 42.3434 35.4792C42.3434 35.759 42.348 36.038 42.3526 36.316C42.3641 37.0119 42.3755 37.702 42.3142 38.3851C42.1779 39.5866 41.815 40.8456 40.8432 42.9826C45.8402 38.4972 48.9859 31.9894 48.9859 24.7448C48.9859 20.3984 47.8474 16.3209 45.8627 12.782ZM10.8318 36.9756L10.8791 36.9942C18.8296 40.1093 21.469 41.0948 24.079 41.0948C24.4163 41.0948 24.7679 41.0791 25.1538 41.0468C27.8774 40.8187 30.0108 38.5242 30.0108 35.8233C30.0108 32.6867 28.8578 31.6482 22.2998 28.8784C16.2861 26.3385 7.1983 22.5002 7.1983 10.8336C7.1983 9.54187 7.33399 8.26765 7.59383 7.02001C2.91815 11.4818 0 17.7704 0 24.7447C0 27.7895 0.559515 30.7025 1.57428 33.392L3.34287 34.0686C6.2331 35.1742 8.67626 36.1312 10.8318 36.9756Z" fill="#FBD81F"/>
<path fill-rule="evenodd" clip-rule="evenodd" d="M17.6253 10.4894C17.6253 15.0148 20.0593 16.4696 26.5006 19.1902C31.7878 21.4233 38.8245 24.4046 40.1941 32.5395C40.3823 33.5528 40.4908 34.64 40.4908 35.8233C40.4908 39.4452 39.2206 42.8207 37.0947 45.5098C33.4127 47.7243 29.1022 49 24.493 49C15.0852 49 6.92107 43.6917 2.81821 35.9086C5.65217 36.9935 8.05705 37.9356 10.1816 38.7678L10.1842 38.7689C18.3383 41.9638 21.1131 43.0008 24.0791 43.0008C24.4821 43.0008 24.8888 42.9816 25.3129 42.9461C29.0158 42.636 31.9163 39.5073 31.9163 35.8233C31.9163 35.4522 31.8932 35.1085 31.8577 34.7779L31.8379 34.7816C31.8235 34.572 31.7998 34.3722 31.7716 34.1766C31.7684 34.1587 31.7661 34.1399 31.7638 34.121C31.7612 34.1001 31.7587 34.0791 31.7548 34.0594C31.235 30.8209 28.7255 29.44 23.1651 27.0915L23.1645 27.0913C17.2082 24.5755 9.05085 21.13 9.05085 10.4894C9.05085 8.41499 9.47014 6.4225 10.2253 4.59212C14.2438 1.70526 19.1679 0 24.493 0C32.2359 0 39.135 3.59785 43.6233 9.2091C42.0737 8.6079 40.6619 8.05488 39.3575 7.54389C31.2034 4.34893 28.4286 3.31196 25.4626 3.31196C25.0596 3.31196 24.6529 3.33113 24.2288 3.36661C20.5258 3.67676 17.6253 6.80541 17.6253 10.4894ZM45.8627 12.782L45.8602 12.7749L45.8577 12.7677L45.4561 11.9559C42.8036 10.9412 41.1532 10.2945 39.2334 9.5423L38.7099 9.3372L38.6625 9.31864C30.7121 6.20348 28.0726 5.21803 25.4627 5.21803C25.1254 5.21803 24.7738 5.23373 24.3879 5.26601C24.1713 5.28416 23.9603 5.31979 23.752 5.36321C23.6418 5.37976 23.5387 5.40795 23.4356 5.43613L23.4318 5.43717C23.4254 5.43892 23.419 5.44039 23.4125 5.44187C23.4055 5.44347 23.3985 5.44506 23.3917 5.447C23.3184 5.46823 23.2467 5.49173 23.1769 5.51851C21.0589 6.21741 19.5309 8.20548 19.5309 10.4895C19.5309 13.6261 20.6839 14.6646 27.2419 17.4344C33.2555 19.9743 42.3434 23.8126 42.3434 35.4792C42.3434 35.759 42.348 36.038 42.3526 36.316C42.3641 37.0119 42.3755 37.702 42.3142 38.3851C42.1779 39.5866 41.815 40.8456 40.8432 42.9826C45.8402 38.4972 48.9859 31.9894 48.9859 24.7448C48.9859 20.3984 47.8474 16.3209 45.8627 12.782ZM10.8318 36.9756L10.8791 36.9942C18.8296 40.1093 21.469 41.0948 24.079 41.0948C24.4163 41.0948 24.7679 41.0791 25.1538 41.0468C27.8774 40.8187 30.0108 38.5242 30.0108 35.8233C30.0108 32.6867 28.8578 31.6482 22.2998 28.8784C16.2861 26.3385 7.1983 22.5002 7.1983 10.8336C7.1983 9.54187 7.33399 8.26765 7.59383 7.02001C2.91815 11.4818 0 17.7704 0 24.7447C0 27.7895 0.559515 30.7025 1.57428 33.392L3.34287 34.0686C6.2331 35.1742 8.67626 36.1312 10.8318 36.9756Z" fill="url(#paint3_linear_202_1719)"/>
</mask>
<g mask="url(#mask1_202_1719)">
<g filter="url(#filter3_f_202_1719)">
<ellipse rx="16.6108" ry="12.1908" transform="matrix(0.904643 -0.426171 0.428501 0.903541 16.6967 13.9618)" fill="#FFE023"/>
</g>
<mask id="mask2_202_1719" style="mask-type:alpha" maskUnits="userSpaceOnUse" x="2" y="0" width="42" height="49">
<path d="M26.5006 19.1902C20.0593 16.4696 17.6254 15.0148 17.6254 10.4894C17.6254 6.80541 20.5259 3.67675 24.2288 3.36661C24.6529 3.33113 25.0596 3.31196 25.4626 3.31196C28.4286 3.31196 31.2034 4.34893 39.3575 7.54389C40.6619 8.05488 42.0738 8.6079 43.6233 9.2091C39.135 3.59785 32.2359 0 24.493 0C19.1679 0 14.2439 1.70526 10.2253 4.59212C9.47016 6.4225 9.05088 8.41499 9.05088 10.4894C9.05088 21.1304 17.2088 24.5757 23.1652 27.0915C28.7256 29.44 31.235 30.8209 31.7549 34.0594C31.7622 34.0968 31.7648 34.1388 31.7717 34.1766C31.7998 34.3722 31.8236 34.572 31.8379 34.7816L31.8578 34.7779C31.8932 35.1085 31.9163 35.4522 31.9163 35.8233C31.9163 39.5073 29.0158 42.636 25.3129 42.9461C24.8888 42.9816 24.4821 43.0008 24.0791 43.0008C21.1131 43.0008 18.3383 41.9638 10.1842 38.7688C8.05908 37.9364 5.65337 36.994 2.81824 35.9086C6.92109 43.6917 15.0853 49 24.493 49C29.1022 49 33.4127 47.7243 37.0947 45.5098C39.2206 42.8207 40.4908 39.4452 40.4908 35.8233C40.4908 34.64 40.3824 33.5528 40.1942 32.5395C38.8245 24.4046 31.7878 21.4233 26.5006 19.1902Z" fill="#FBD81F"/>
<path d="M26.5006 19.1902C20.0593 16.4696 17.6254 15.0148 17.6254 10.4894C17.6254 6.80541 20.5259 3.67675 24.2288 3.36661C24.6529 3.33113 25.0596 3.31196 25.4626 3.31196C28.4286 3.31196 31.2034 4.34893 39.3575 7.54389C40.6619 8.05488 42.0738 8.6079 43.6233 9.2091C39.135 3.59785 32.2359 0 24.493 0C19.1679 0 14.2439 1.70526 10.2253 4.59212C9.47016 6.4225 9.05088 8.41499 9.05088 10.4894C9.05088 21.1304 17.2088 24.5757 23.1652 27.0915C28.7256 29.44 31.235 30.8209 31.7549 34.0594C31.7622 34.0968 31.7648 34.1388 31.7717 34.1766C31.7998 34.3722 31.8236 34.572 31.8379 34.7816L31.8578 34.7779C31.8932 35.1085 31.9163 35.4522 31.9163 35.8233C31.9163 39.5073 29.0158 42.636 25.3129 42.9461C24.8888 42.9816 24.4821 43.0008 24.0791 43.0008C21.1131 43.0008 18.3383 41.9638 10.1842 38.7688C8.05908 37.9364 5.65337 36.994 2.81824 35.9086C6.92109 43.6917 15.0853 49 24.493 49C29.1022 49 33.4127 47.7243 37.0947 45.5098C39.2206 42.8207 40.4908 39.4452 40.4908 35.8233C40.4908 34.64 40.3824 33.5528 40.1942 32.5395C38.8245 24.4046 31.7878 21.4233 26.5006 19.1902Z" fill="url(#paint4_linear_202_1719)"/>
</mask>
<g mask="url(#mask2_202_1719)">
<g filter="url(#filter4_f_202_1719)">
<ellipse rx="11.0631" ry="6.92603" transform="matrix(0.904643 -0.426171 0.428501 0.903541 33.8308 44.0329)" fill="#FFFBE1" fill-opacity="0.51" style="mix-blend-mode:overlay"/>
</g>
</g>
</g>
<defs>
<filter id="filter0_d_202_1719" x="-1" y="7.02002" width="34.0109" height="38.0747" filterUnits="userSpaceOnUse" color-interpolation-filters="sRGB">
<feFlood flood-opacity="0" result="BackgroundImageFix"/>
<feColorMatrix in="SourceAlpha" type="matrix" values="0 0 0 0 0 0 0 0 0 0 0 0 0 0 0 0 0 0 127 0" result="hardAlpha"/>
<feOffset dx="1" dy="2"/>
<feGaussianBlur stdDeviation="1"/>
<feComposite in2="hardAlpha" operator="out"/>
<feColorMatrix type="matrix" values="0 0 0 0 0.779167 0 0 0 0 0.646449 0 0 0 0 0.305174 0 0 0 1 0"/>
<feBlend mode="multiply" in2="BackgroundImageFix" result="effect1_dropShadow_202_1719"/>
<feBlend mode="normal" in="SourceGraphic" in2="effect1_dropShadow_202_1719" result="shape"/>
</filter>
<filter id="filter1_d_202_1719" x="18.5308" y="5.21777" width="33.4551" height="41.7646" filterUnits="userSpaceOnUse" color-interpolation-filters="sRGB">
<feFlood flood-opacity="0" result="BackgroundImageFix"/>
<feColorMatrix in="SourceAlpha" type="matrix" values="0 0 0 0 0 0 0 0 0 0 0 0 0 0 0 0 0 0 127 0" result="hardAlpha"/>
<feOffset dx="1" dy="2"/>
<feGaussianBlur stdDeviation="1"/>
<feComposite in2="hardAlpha" operator="out"/>
<feColorMatrix type="matrix" values="0 0 0 0 0.779167 0 0 0 0 0.646449 0 0 0 0 0.305174 0 0 0 1 0"/>
<feBlend mode="multiply" in2="BackgroundImageFix" result="effect1_dropShadow_202_1719"/>
<feBlend mode="normal" in="SourceGraphic" in2="effect1_dropShadow_202_1719" result="shape"/>
</filter>
<filter id="filter2_d_202_1719" x="1.81818" y="0" width="44.8051" height="53" filterUnits="userSpaceOnUse" color-interpolation-filters="sRGB">
<feFlood flood-opacity="0" result="BackgroundImageFix"/>
<feColorMatrix in="SourceAlpha" type="matrix" values="0 0 0 0 0 0 0 0 0 0 0 0 0 0 0 0 0 0 127 0" result="hardAlpha"/>
<feOffset dx="1" dy="2"/>
<feGaussianBlur stdDeviation="1"/>
<feComposite in2="hardAlpha" operator="out"/>
<feColorMatrix type="matrix" values="0 0 0 0 0.779167 0 0 0 0 0.646449 0 0 0 0 0.305174 0 0 0 1 0"/>
<feBlend mode="multiply" in2="BackgroundImageFix" result="effect1_dropShadow_202_1719"/>
<feBlend mode="normal" in="SourceGraphic" in2="effect1_dropShadow_202_1719" result="shape"/>
</filter>
<filter id="filter3_f_202_1719" x="-1.21655" y="-1.1333" width="35.8265" height="30.1904" filterUnits="userSpaceOnUse" color-interpolation-filters="sRGB">
<feFlood flood-opacity="0" result="BackgroundImageFix"/>
<feBlend mode="normal" in="SourceGraphic" in2="BackgroundImageFix" result="shape"/>
<feGaussianBlur stdDeviation="1" result="effect1_foregroundBlur_202_1719"/>
</filter>
<filter id="filter4_f_202_1719" x="14.3892" y="27.1973" width="38.8833" height="33.6714" filterUnits="userSpaceOnUse" color-interpolation-filters="sRGB">
<feFlood flood-opacity="0" result="BackgroundImageFix"/>
<feBlend mode="normal" in="SourceGraphic" in2="BackgroundImageFix" result="shape"/>
<feGaussianBlur stdDeviation="4.5" result="effect1_foregroundBlur_202_1719"/>
</filter>
<linearGradient id="paint0_linear_202_1719" x1="14.9174" y1="9.07272" x2="21.6326" y2="37.41" gradientUnits="userSpaceOnUse">
<stop stop-color="#FFA462" stop-opacity="0.16"/>
<stop offset="1" stop-color="#FEDF23"/>
</linearGradient>
<linearGradient id="paint1_linear_202_1719" x1="34.1719" y1="7.49275" x2="42.4547" y2="38.4458" gradientUnits="userSpaceOnUse">
<stop stop-color="#FFA462" stop-opacity="0.16"/>
<stop offset="1" stop-color="#FEDF23"/>
</linearGradient>
<linearGradient id="paint2_linear_202_1719" x1="23.101" y1="2.95181" x2="33.25" y2="43.4459" gradientUnits="userSpaceOnUse">
<stop stop-color="#FFA462" stop-opacity="0.16"/>
<stop offset="1" stop-color="#FEDF23"/>
</linearGradient>
<linearGradient id="paint3_linear_202_1719" x1="23.1011" y1="2.95181" x2="33.25" y2="43.4459" gradientUnits="userSpaceOnUse">
<stop stop-color="#FFA462" stop-opacity="0.16"/>
<stop offset="1" stop-color="#FEDF23"/>
</linearGradient>
<linearGradient id="paint4_linear_202_1719" x1="23.1011" y1="2.95181" x2="33.2501" y2="43.4459" gradientUnits="userSpaceOnUse">
<stop stop-color="#FFA462" stop-opacity="0.16"/>
<stop offset="1" stop-color="#FFEB83"/>
</linearGradient>
</defs>
</svg>
