<svg width="57" height="58" viewBox="0 0 57 58" fill="none" xmlns="http://www.w3.org/2000/svg">
<mask id="mask0_202_2728" style="mask-type:alpha" maskUnits="userSpaceOnUse" x="0" y="0" width="57" height="58">
<ellipse cx="28.2589" cy="28.8517" rx="28.2589" ry="28.1647" fill="#C4C4C4"/>
</mask>
<g mask="url(#mask0_202_2728)">
<g filter="url(#filter0_d_202_2728)">
<path d="M12.6038 43.0253L12.659 43.0469C21.9101 46.6717 24.9814 47.8183 28.0183 47.8183C28.4108 47.8183 28.8199 47.8001 29.269 47.7625C32.4381 47.497 34.9206 44.8272 34.9206 41.6844C34.9206 38.0347 33.5789 36.8263 25.948 33.6034C18.9505 30.648 8.37594 26.1817 8.37594 12.6065C8.37594 11.1034 8.53383 9.6207 8.83618 8.16895C3.39555 13.3607 0 20.6781 0 28.7934C0 32.3363 0.651051 35.7259 1.83183 38.8554L3.88976 39.6426C7.25284 40.9291 10.0957 42.0427 12.6038 43.0253Z" fill="#FBD81F"/>
<path d="M12.6038 43.0253L12.659 43.0469C21.9101 46.6717 24.9814 47.8183 28.0183 47.8183C28.4108 47.8183 28.8199 47.8001 29.269 47.7625C32.4381 47.497 34.9206 44.8272 34.9206 41.6844C34.9206 38.0347 33.5789 36.8263 25.948 33.6034C18.9505 30.648 8.37594 26.1817 8.37594 12.6065C8.37594 11.1034 8.53383 9.6207 8.83618 8.16895C3.39555 13.3607 0 20.6781 0 28.7934C0 32.3363 0.651051 35.7259 1.83183 38.8554L3.88976 39.6426C7.25284 40.9291 10.0957 42.0427 12.6038 43.0253Z" fill="url(#paint0_linear_202_2728)"/>
</g>
<g filter="url(#filter1_d_202_2728)">
<path d="M53.3657 14.8732C53.3636 14.8677 53.362 14.8622 53.3599 14.8566L52.8925 13.912C49.5295 12.6255 47.5508 11.8474 45.0427 10.8648L44.9876 10.8433C35.7364 7.21845 32.6652 6.07178 29.6282 6.07178C29.2357 6.07178 28.8266 6.09005 28.3776 6.12762C28.1256 6.14873 27.88 6.19019 27.6376 6.24071C27.5079 6.26021 27.3866 6.29357 27.2651 6.32677C27.2497 6.331 27.2337 6.33388 27.2184 6.33821C27.1332 6.36291 27.0497 6.39026 26.9685 6.42142C24.504 7.23466 22.726 9.54798 22.726 12.2057C22.726 15.8554 24.0676 17.0638 31.6985 20.2867C38.696 23.2422 49.2706 27.7084 49.2706 41.2836C49.2706 42.4241 49.3365 43.5526 49.2367 44.6649C49.0781 46.063 48.6557 47.528 47.5249 50.0147C53.3395 44.7954 56.9998 37.2229 56.9998 28.7931C56.9998 23.7356 55.6751 18.991 53.3657 14.8732Z" fill="#FBD81F"/>
<path d="M53.3657 14.8732C53.3636 14.8677 53.362 14.8622 53.3599 14.8566L52.8925 13.912C49.5295 12.6255 47.5508 11.8474 45.0427 10.8648L44.9876 10.8433C35.7364 7.21845 32.6652 6.07178 29.6282 6.07178C29.2357 6.07178 28.8266 6.09005 28.3776 6.12762C28.1256 6.14873 27.88 6.19019 27.6376 6.24071C27.5079 6.26021 27.3866 6.29357 27.2651 6.32677C27.2497 6.331 27.2337 6.33388 27.2184 6.33821C27.1332 6.36291 27.0497 6.39026 26.9685 6.42142C24.504 7.23466 22.726 9.54798 22.726 12.2057C22.726 15.8554 24.0676 17.0638 31.6985 20.2867C38.696 23.2422 49.2706 27.7084 49.2706 41.2836C49.2706 42.4241 49.3365 43.5526 49.2367 44.6649C49.0781 46.063 48.6557 47.528 47.5249 50.0147C53.3395 44.7954 56.9998 37.2229 56.9998 28.7931C56.9998 23.7356 55.6751 18.991 53.3657 14.8732Z" fill="url(#paint1_linear_202_2728)"/>
</g>
<g filter="url(#filter2_d_202_2728)">
<path d="M30.8362 22.3297C23.3411 19.1641 20.509 17.4712 20.509 12.2055C20.509 7.91877 23.884 4.27827 28.1928 3.91739C28.6862 3.8761 29.1594 3.8538 29.6284 3.8538C33.0796 3.8538 36.3084 5.06041 45.7965 8.77807C47.3143 9.37266 48.9571 10.0161 50.7602 10.7157C45.5376 4.18646 37.5098 0 28.5001 0C22.3039 0 16.5743 1.98424 11.8983 5.34339C11.0196 7.47322 10.5317 9.79168 10.5317 12.2055C10.5317 24.5873 20.0243 28.5963 26.9551 31.5237C33.4252 34.2564 36.3452 35.8632 36.9501 39.6315C36.9586 39.675 36.9617 39.7239 36.9696 39.7679C37.0024 39.9955 37.03 40.2279 37.0467 40.4719L37.0698 40.4676C37.111 40.8522 37.138 41.2522 37.138 41.684C37.138 45.9707 33.7629 49.6112 29.4542 49.9721C28.9608 50.0134 28.4875 50.0357 28.0185 50.0357C24.5673 50.0357 21.3385 48.8291 11.8505 45.1114C9.37766 44.1428 6.57838 43.0462 3.27942 41.7833C8.0535 50.8396 17.5533 57.0164 28.5001 57.0164C33.8634 57.0164 38.8791 55.532 43.1635 52.9552C45.6373 49.8262 47.1152 45.8985 47.1152 41.684C47.1152 40.3071 46.989 39.042 46.77 37.863C45.1763 28.3972 36.9884 24.9281 30.8362 22.3297Z" fill="#FBD81F"/>
<path d="M30.8362 22.3297C23.3411 19.1641 20.509 17.4712 20.509 12.2055C20.509 7.91877 23.884 4.27827 28.1928 3.91739C28.6862 3.8761 29.1594 3.8538 29.6284 3.8538C33.0796 3.8538 36.3084 5.06041 45.7965 8.77807C47.3143 9.37266 48.9571 10.0161 50.7602 10.7157C45.5376 4.18646 37.5098 0 28.5001 0C22.3039 0 16.5743 1.98424 11.8983 5.34339C11.0196 7.47322 10.5317 9.79168 10.5317 12.2055C10.5317 24.5873 20.0243 28.5963 26.9551 31.5237C33.4252 34.2564 36.3452 35.8632 36.9501 39.6315C36.9586 39.675 36.9617 39.7239 36.9696 39.7679C37.0024 39.9955 37.03 40.2279 37.0467 40.4719L37.0698 40.4676C37.111 40.8522 37.138 41.2522 37.138 41.684C37.138 45.9707 33.7629 49.6112 29.4542 49.9721C28.9608 50.0134 28.4875 50.0357 28.0185 50.0357C24.5673 50.0357 21.3385 48.8291 11.8505 45.1114C9.37766 44.1428 6.57838 43.0462 3.27942 41.7833C8.0535 50.8396 17.5533 57.0164 28.5001 57.0164C33.8634 57.0164 38.8791 55.532 43.1635 52.9552C45.6373 49.8262 47.1152 45.8985 47.1152 41.684C47.1152 40.3071 46.989 39.042 46.77 37.863C45.1763 28.3972 36.9884 24.9281 30.8362 22.3297Z" fill="url(#paint2_linear_202_2728)"/>
</g>
<path fill-rule="evenodd" clip-rule="evenodd" d="M31.292 0.135225C30.3734 0.045778 29.442 0 28.4999 0C22.3037 0 16.574 1.98424 11.8981 5.34339C11.1966 7.04375 10.7441 8.86433 10.5902 10.7577C16.4742 5.67376 23.5338 1.97027 31.292 0.135225Z" fill="#FBD81F"/>
<path fill-rule="evenodd" clip-rule="evenodd" d="M31.292 0.135225C30.3734 0.045778 29.442 0 28.4999 0C22.3037 0 16.574 1.98424 11.8981 5.34339C11.1966 7.04375 10.7441 8.86433 10.5902 10.7577C16.4742 5.67376 23.5338 1.97027 31.292 0.135225Z" fill="#FFE477"/>
</g>
<mask id="mask1_202_2728" style="mask-type:alpha" maskUnits="userSpaceOnUse" x="0" y="0" width="57" height="58">
<path fill-rule="evenodd" clip-rule="evenodd" d="M20.509 12.2055C20.509 17.4712 23.3411 19.1641 30.8362 22.3297C36.9884 24.9281 45.1763 28.3972 46.7701 37.863C46.989 39.042 47.1153 40.3071 47.1153 41.684C47.1153 45.8985 45.6373 49.8262 43.1635 52.9552C38.8792 55.532 33.8634 57.0164 28.5002 57.0164C17.5533 57.0164 8.05352 50.8396 3.27944 41.7833C6.57691 43.0456 9.37514 44.1418 11.8472 45.1101L11.8505 45.1114C21.3386 48.8291 24.5674 50.0357 28.0186 50.0357C28.4875 50.0357 28.9608 50.0134 29.4542 49.9721C33.763 49.6112 37.138 45.9707 37.138 41.684C37.138 41.2522 37.1111 40.8522 37.0698 40.4676L37.0467 40.4719C37.03 40.2279 37.0024 39.9955 36.9696 39.7679C36.9659 39.7471 36.9632 39.7251 36.9605 39.7032C36.9575 39.6788 36.9546 39.6544 36.9501 39.6315C36.3452 35.8632 33.4252 34.2564 26.9551 31.5237L26.9544 31.5234C20.0236 28.596 10.5317 24.5869 10.5317 12.2055C10.5317 9.79168 11.0196 7.47322 11.8983 5.34339C16.5743 1.98424 22.3039 0 28.5002 0C37.5099 0 45.5376 4.18646 50.7602 10.7157C48.9571 10.0161 47.3144 9.37266 45.7965 8.77807C36.3084 5.06041 33.0796 3.8538 29.6284 3.8538C29.1595 3.8538 28.6862 3.8761 28.1928 3.91739C23.884 4.27827 20.509 7.91877 20.509 12.2055ZM53.3657 14.8731L53.3628 14.8648L53.3599 14.8565L52.8926 13.9119C49.8059 12.7311 47.8855 11.9786 45.6515 11.1033L45.0427 10.8647L44.9876 10.8432C35.7365 7.21836 32.6652 6.07168 29.6282 6.07168C29.2358 6.07168 28.8266 6.08996 28.3776 6.12752C28.1256 6.14864 27.88 6.19009 27.6377 6.24062C27.5095 6.25988 27.3895 6.29268 27.2695 6.32548L27.2651 6.32668C27.2603 6.32799 27.2555 6.32918 27.2506 6.33032C27.248 6.33094 27.2453 6.33154 27.2427 6.33215C27.2345 6.33401 27.2264 6.33587 27.2184 6.33812C27.1332 6.36282 27.0497 6.39016 26.9685 6.42133C24.504 7.23457 22.726 9.54789 22.726 12.2056C22.726 15.8553 24.0677 17.0637 31.6986 20.2866C38.696 23.2421 49.2706 27.7083 49.2706 41.2836C49.2706 41.6091 49.276 41.9336 49.2814 42.2571V42.2573C49.2948 43.0671 49.3081 43.8701 49.2367 44.6648C49.0781 46.063 48.6558 47.5279 47.525 50.0146C53.3396 44.7953 56.9999 37.2229 56.9999 28.793C56.9999 23.7355 55.6751 18.9909 53.3657 14.8731ZM12.6038 43.0248L12.659 43.0464C21.9101 46.6712 24.9814 47.8179 28.0183 47.8179C28.4108 47.8179 28.8199 47.7996 29.269 47.762C32.4381 47.4966 34.9206 44.8268 34.9206 41.684C34.9206 38.0343 33.5789 36.8259 25.948 33.6029C18.9505 30.6475 8.37594 26.1812 8.37594 12.606C8.37594 11.1029 8.53383 9.62025 8.83618 8.16849C3.39555 13.3602 0 20.6777 0 28.7929C0 32.3359 0.651051 35.7254 1.83183 38.855L3.88976 39.6422C7.25284 40.9287 10.0957 42.0423 12.6038 43.0248Z" fill="#FBD81F"/>
<path fill-rule="evenodd" clip-rule="evenodd" d="M20.509 12.2055C20.509 17.4712 23.3411 19.1641 30.8362 22.3297C36.9884 24.9281 45.1763 28.3972 46.7701 37.863C46.989 39.042 47.1153 40.3071 47.1153 41.684C47.1153 45.8985 45.6373 49.8262 43.1635 52.9552C38.8792 55.532 33.8634 57.0164 28.5002 57.0164C17.5533 57.0164 8.05352 50.8396 3.27944 41.7833C6.57691 43.0456 9.37514 44.1418 11.8472 45.1101L11.8505 45.1114C21.3386 48.8291 24.5674 50.0357 28.0186 50.0357C28.4875 50.0357 28.9608 50.0134 29.4542 49.9721C33.763 49.6112 37.138 45.9707 37.138 41.684C37.138 41.2522 37.1111 40.8522 37.0698 40.4676L37.0467 40.4719C37.03 40.2279 37.0024 39.9955 36.9696 39.7679C36.9659 39.7471 36.9632 39.7251 36.9605 39.7032C36.9575 39.6788 36.9546 39.6544 36.9501 39.6315C36.3452 35.8632 33.4252 34.2564 26.9551 31.5237L26.9544 31.5234C20.0236 28.596 10.5317 24.5869 10.5317 12.2055C10.5317 9.79168 11.0196 7.47322 11.8983 5.34339C16.5743 1.98424 22.3039 0 28.5002 0C37.5099 0 45.5376 4.18646 50.7602 10.7157C48.9571 10.0161 47.3144 9.37266 45.7965 8.77807C36.3084 5.06041 33.0796 3.8538 29.6284 3.8538C29.1595 3.8538 28.6862 3.8761 28.1928 3.91739C23.884 4.27827 20.509 7.91877 20.509 12.2055ZM53.3657 14.8731L53.3628 14.8648L53.3599 14.8565L52.8926 13.9119C49.8059 12.7311 47.8855 11.9786 45.6515 11.1033L45.0427 10.8647L44.9876 10.8432C35.7365 7.21836 32.6652 6.07168 29.6282 6.07168C29.2358 6.07168 28.8266 6.08996 28.3776 6.12752C28.1256 6.14864 27.88 6.19009 27.6377 6.24062C27.5095 6.25988 27.3895 6.29268 27.2695 6.32548L27.2651 6.32668C27.2603 6.32799 27.2555 6.32918 27.2506 6.33032C27.248 6.33094 27.2453 6.33154 27.2427 6.33215C27.2345 6.33401 27.2264 6.33587 27.2184 6.33812C27.1332 6.36282 27.0497 6.39016 26.9685 6.42133C24.504 7.23457 22.726 9.54789 22.726 12.2056C22.726 15.8553 24.0677 17.0637 31.6986 20.2866C38.696 23.2421 49.2706 27.7083 49.2706 41.2836C49.2706 41.6091 49.276 41.9336 49.2814 42.2571V42.2573C49.2948 43.0671 49.3081 43.8701 49.2367 44.6648C49.0781 46.063 48.6558 47.5279 47.525 50.0146C53.3396 44.7953 56.9999 37.2229 56.9999 28.793C56.9999 23.7355 55.6751 18.9909 53.3657 14.8731ZM12.6038 43.0248L12.659 43.0464C21.9101 46.6712 24.9814 47.8179 28.0183 47.8179C28.4108 47.8179 28.8199 47.7996 29.269 47.762C32.4381 47.4966 34.9206 44.8268 34.9206 41.684C34.9206 38.0343 33.5789 36.8259 25.948 33.6029C18.9505 30.6475 8.37594 26.1812 8.37594 12.606C8.37594 11.1029 8.53383 9.62025 8.83618 8.16849C3.39555 13.3602 0 20.6777 0 28.7929C0 32.3359 0.651051 35.7254 1.83183 38.855L3.88976 39.6422C7.25284 40.9287 10.0957 42.0423 12.6038 43.0248Z" fill="url(#paint3_linear_202_2728)"/>
</mask>
<g mask="url(#mask1_202_2728)">
<g filter="url(#filter3_f_202_2728)">
<ellipse rx="19.3284" ry="14.1853" transform="matrix(0.904643 -0.426171 0.428501 0.903541 19.4281 16.2458)" fill="#FFE023"/>
</g>
<mask id="mask2_202_2728" style="mask-type:alpha" maskUnits="userSpaceOnUse" x="3" y="0" width="48" height="58">
<path d="M30.8362 22.3297C23.3411 19.1641 20.509 17.4712 20.509 12.2055C20.509 7.91877 23.884 4.27827 28.1928 3.91739C28.6862 3.8761 29.1594 3.8538 29.6284 3.8538C33.0796 3.8538 36.3084 5.06041 45.7965 8.77807C47.3143 9.37266 48.9571 10.0161 50.7602 10.7157C45.5376 4.18646 37.5098 0 28.5001 0C22.3039 0 16.5743 1.98424 11.8983 5.34339C11.0196 7.47322 10.5317 9.79168 10.5317 12.2055C10.5317 24.5873 20.0243 28.5963 26.9551 31.5237C33.4252 34.2564 36.3452 35.8632 36.9501 39.6315C36.9586 39.675 36.9617 39.7239 36.9696 39.7679C37.0024 39.9955 37.03 40.2279 37.0467 40.4719L37.0698 40.4676C37.111 40.8522 37.138 41.2522 37.138 41.684C37.138 45.9707 33.7629 49.6112 29.4542 49.9721C28.9608 50.0134 28.4875 50.0357 28.0185 50.0357C24.5673 50.0357 21.3385 48.8291 11.8505 45.1114C9.37766 44.1428 6.57838 43.0462 3.27942 41.7833C8.0535 50.8396 17.5533 57.0164 28.5001 57.0164C33.8634 57.0164 38.8791 55.532 43.1635 52.9552C45.6373 49.8262 47.1152 45.8985 47.1152 41.684C47.1152 40.3071 46.989 39.042 46.77 37.863C45.1763 28.3972 36.9884 24.9281 30.8362 22.3297Z" fill="#FBD81F"/>
<path d="M30.8362 22.3297C23.3411 19.1641 20.509 17.4712 20.509 12.2055C20.509 7.91877 23.884 4.27827 28.1928 3.91739C28.6862 3.8761 29.1594 3.8538 29.6284 3.8538C33.0796 3.8538 36.3084 5.06041 45.7965 8.77807C47.3143 9.37266 48.9571 10.0161 50.7602 10.7157C45.5376 4.18646 37.5098 0 28.5001 0C22.3039 0 16.5743 1.98424 11.8983 5.34339C11.0196 7.47322 10.5317 9.79168 10.5317 12.2055C10.5317 24.5873 20.0243 28.5963 26.9551 31.5237C33.4252 34.2564 36.3452 35.8632 36.9501 39.6315C36.9586 39.675 36.9617 39.7239 36.9696 39.7679C37.0024 39.9955 37.03 40.2279 37.0467 40.4719L37.0698 40.4676C37.111 40.8522 37.138 41.2522 37.138 41.684C37.138 45.9707 33.7629 49.6112 29.4542 49.9721C28.9608 50.0134 28.4875 50.0357 28.0185 50.0357C24.5673 50.0357 21.3385 48.8291 11.8505 45.1114C9.37766 44.1428 6.57838 43.0462 3.27942 41.7833C8.0535 50.8396 17.5533 57.0164 28.5001 57.0164C33.8634 57.0164 38.8791 55.532 43.1635 52.9552C45.6373 49.8262 47.1152 45.8985 47.1152 41.684C47.1152 40.3071 46.989 39.042 46.77 37.863C45.1763 28.3972 36.9884 24.9281 30.8362 22.3297Z" fill="url(#paint4_linear_202_2728)"/>
</mask>
<g mask="url(#mask2_202_2728)">
<g filter="url(#filter4_f_202_2728)">
<ellipse rx="12.873" ry="8.05913" transform="matrix(0.904643 -0.426171 0.428502 0.903541 39.3658 51.2366)" fill="#FFFBE1" fill-opacity="0.51" style="mix-blend-mode:overlay"/>
</g>
</g>
</g>
<defs>
<filter id="filter0_d_202_2728" x="-1" y="8.16895" width="38.9205" height="43.6494" filterUnits="userSpaceOnUse" color-interpolation-filters="sRGB">
<feFlood flood-opacity="0" result="BackgroundImageFix"/>
<feColorMatrix in="SourceAlpha" type="matrix" values="0 0 0 0 0 0 0 0 0 0 0 0 0 0 0 0 0 0 127 0" result="hardAlpha"/>
<feOffset dx="1" dy="2"/>
<feGaussianBlur stdDeviation="1"/>
<feComposite in2="hardAlpha" operator="out"/>
<feColorMatrix type="matrix" values="0 0 0 0 0.779167 0 0 0 0 0.646449 0 0 0 0 0.305174 0 0 0 1 0"/>
<feBlend mode="multiply" in2="BackgroundImageFix" result="effect1_dropShadow_202_2728"/>
<feBlend mode="normal" in="SourceGraphic" in2="effect1_dropShadow_202_2728" result="shape"/>
</filter>
<filter id="filter1_d_202_2728" x="21.726" y="6.07178" width="38.2739" height="47.9429" filterUnits="userSpaceOnUse" color-interpolation-filters="sRGB">
<feFlood flood-opacity="0" result="BackgroundImageFix"/>
<feColorMatrix in="SourceAlpha" type="matrix" values="0 0 0 0 0 0 0 0 0 0 0 0 0 0 0 0 0 0 127 0" result="hardAlpha"/>
<feOffset dx="1" dy="2"/>
<feGaussianBlur stdDeviation="1"/>
<feComposite in2="hardAlpha" operator="out"/>
<feColorMatrix type="matrix" values="0 0 0 0 0.779167 0 0 0 0 0.646449 0 0 0 0 0.305174 0 0 0 1 0"/>
<feBlend mode="multiply" in2="BackgroundImageFix" result="effect1_dropShadow_202_2728"/>
<feBlend mode="normal" in="SourceGraphic" in2="effect1_dropShadow_202_2728" result="shape"/>
</filter>
<filter id="filter2_d_202_2728" x="2.27942" y="0" width="51.4808" height="61.0166" filterUnits="userSpaceOnUse" color-interpolation-filters="sRGB">
<feFlood flood-opacity="0" result="BackgroundImageFix"/>
<feColorMatrix in="SourceAlpha" type="matrix" values="0 0 0 0 0 0 0 0 0 0 0 0 0 0 0 0 0 0 127 0" result="hardAlpha"/>
<feOffset dx="1" dy="2"/>
<feGaussianBlur stdDeviation="1"/>
<feComposite in2="hardAlpha" operator="out"/>
<feColorMatrix type="matrix" values="0 0 0 0 0.779167 0 0 0 0 0.646449 0 0 0 0 0.305174 0 0 0 1 0"/>
<feBlend mode="multiply" in2="BackgroundImageFix" result="effect1_dropShadow_202_2728"/>
<feBlend mode="normal" in="SourceGraphic" in2="effect1_dropShadow_202_2728" result="shape"/>
</filter>
<filter id="filter3_f_202_2728" x="-1.08862" y="-0.991699" width="41.0334" height="34.4751" filterUnits="userSpaceOnUse" color-interpolation-filters="sRGB">
<feFlood flood-opacity="0" result="BackgroundImageFix"/>
<feBlend mode="normal" in="SourceGraphic" in2="BackgroundImageFix" result="shape"/>
<feGaussianBlur stdDeviation="1" result="effect1_foregroundBlur_202_2728"/>
</filter>
<filter id="filter4_f_202_2728" x="18.2159" y="33.1191" width="42.2997" height="36.2349" filterUnits="userSpaceOnUse" color-interpolation-filters="sRGB">
<feFlood flood-opacity="0" result="BackgroundImageFix"/>
<feBlend mode="normal" in="SourceGraphic" in2="BackgroundImageFix" result="shape"/>
<feGaussianBlur stdDeviation="4.5" result="effect1_foregroundBlur_202_2728"/>
</filter>
<linearGradient id="paint0_linear_202_2728" x1="17.3578" y1="10.5575" x2="25.1717" y2="43.5307" gradientUnits="userSpaceOnUse">
<stop stop-color="#FFA462" stop-opacity="0.16"/>
<stop offset="1" stop-color="#FEDF23"/>
</linearGradient>
<linearGradient id="paint1_linear_202_2728" x1="39.7623" y1="8.71894" x2="49.4002" y2="44.7359" gradientUnits="userSpaceOnUse">
<stop stop-color="#FFA462" stop-opacity="0.16"/>
<stop offset="1" stop-color="#FEDF23"/>
</linearGradient>
<linearGradient id="paint2_linear_202_2728" x1="26.8805" y1="3.43472" x2="38.6899" y2="50.5537" gradientUnits="userSpaceOnUse">
<stop stop-color="#FFA462" stop-opacity="0.16"/>
<stop offset="1" stop-color="#FEDF23"/>
</linearGradient>
<linearGradient id="paint3_linear_202_2728" x1="26.8803" y1="3.43472" x2="38.6897" y2="50.5537" gradientUnits="userSpaceOnUse">
<stop stop-color="#FFA462" stop-opacity="0.16"/>
<stop offset="1" stop-color="#FEDF23"/>
</linearGradient>
<linearGradient id="paint4_linear_202_2728" x1="26.8805" y1="3.43472" x2="38.6899" y2="50.5537" gradientUnits="userSpaceOnUse">
<stop stop-color="#FFA462" stop-opacity="0.16"/>
<stop offset="1" stop-color="#FFEB83"/>
</linearGradient>
</defs>
</svg>
