<svg width="278" height="80" viewBox="0 0 278 80" fill="none" xmlns="http://www.w3.org/2000/svg">
<path d="M111.388 44.6127C107.219 44.6127 103.762 43.231 101.017 40.4674C98.2729 37.7038 96.9011 34.2849 96.9011 30.212C96.9011 26.1391 98.2729 22.7208 101.017 19.9566C103.762 17.193 107.219 15.8105 111.388 15.8105C113.895 15.8105 116.21 16.4059 118.335 17.5959C120.459 18.7859 122.115 20.3995 123.302 22.4359L119.344 24.7373C118.605 23.3624 117.53 22.271 116.118 21.4639C114.706 20.6575 113.13 20.2539 111.388 20.2539C108.432 20.2539 106.038 21.1928 104.204 23.0706C102.37 24.9491 101.453 27.3291 101.453 30.212C101.453 33.0949 102.37 35.4756 104.204 37.3527C106.038 39.2312 108.432 40.1694 111.388 40.1694C113.13 40.1694 114.713 39.7665 116.138 38.9594C117.563 38.1529 118.632 37.0623 119.344 35.6867L123.302 37.948C122.141 39.9852 120.498 41.605 118.374 42.8081C116.25 44.0119 113.921 44.6127 111.388 44.6127Z" fill="black"/>
<path d="M144.914 44.0975L142.975 38.5035H131.179L129.24 44.0975H124.292L134.346 16.3267H139.808L149.823 44.0975H144.914ZM132.684 34.2188H141.471L137.077 21.682L132.684 34.2188Z" fill="black"/>
<path d="M169.218 16.3267H173.77V44.0975H169.218V32.0768H157.343V44.0975H152.792V16.3267H157.343V27.7127H169.218V16.3267Z" fill="black"/>
<path d="M177.055 44.0975V39.8922C178.797 40.1302 180.096 39.7073 180.954 38.6228C181.811 37.5384 182.24 35.4626 182.24 32.3941V16.3267H200.805V44.0975H196.252V20.6907H186.792V32.3148C186.792 34.7479 186.535 36.7975 186.02 38.4642C185.506 40.1302 184.774 41.3795 183.824 42.2128C182.873 43.0462 181.85 43.6015 180.756 43.8788C179.66 44.1568 178.427 44.2293 177.055 44.0975Z" fill="black"/>
<path d="M224.396 44.0975L222.457 38.5035H210.661L208.721 44.0975H203.774L213.828 16.3267H219.29L229.305 44.0975H224.396ZM212.165 34.2188H220.952L216.559 21.682L212.165 34.2188Z" fill="black"/>
<path d="M248.897 44.0974V25.2526L235.835 44.0974H232.273V16.3266H236.825V35.1707L249.887 16.3266H253.45V44.0974H248.897ZM237.34 13.5492V9.81982H248.422V13.5492H237.34Z" fill="black"/>
<path d="M277 16.3267V20.6907H269.202V44.0975H264.65V20.6907H256.813V16.3267H277Z" fill="black"/>
<path d="M113.639 72.2333H112.337L112.219 68.112H98.8495L98.7309 72.2333H97.3999V66.6892H99.5593C100.683 64.9398 101.364 62.8944 101.778 60.7305C102.192 58.477 102.31 56.105 102.31 53.7339H111.243V66.6892H113.639V72.2333ZM109.675 66.6892V55.1567H103.818C103.789 56.9653 103.671 59.1292 103.257 61.2043C102.872 63.2801 102.192 65.1479 101.216 66.6892H109.675Z" fill="black" stroke="black"/>
<path d="M128.606 61.2634H116.833C116.981 64.5548 119.199 66.7779 122.335 66.7779C124.405 66.7779 125.944 65.9184 126.949 64.614L128.073 65.5623C126.86 67.1932 124.997 68.26 122.305 68.26C118.164 68.26 115.236 65.207 115.236 60.9081C115.236 56.6387 118.223 53.585 122.187 53.585C126.032 53.585 128.635 56.5499 128.635 60.552C128.635 60.8784 128.635 61.1746 128.606 61.2634ZM116.892 59.959H127.067C126.772 57.0244 124.967 55.0382 122.187 55.0382C119.436 55.0382 117.277 56.9948 116.892 59.959Z" fill="black" stroke="black"/>
<path d="M132.214 53.7339H138.78C141.797 53.7339 143.513 54.8895 143.513 57.2022C143.513 58.9219 142.625 60.1079 141.117 60.5817V60.6113C142.803 60.8785 144.223 62.0349 144.223 64.1988C144.223 66.5707 142.655 68.112 138.928 68.112H132.214V53.7339ZM138.78 60.0479C140.762 60.0479 141.945 59.1588 141.945 57.4983C141.945 55.8386 140.732 55.0975 138.662 55.0975H133.781V60.0479H138.78ZM138.81 66.7484C141.413 66.7484 142.625 65.8297 142.625 64.0804C142.625 62.2718 141.354 61.3531 138.987 61.3531H133.781V66.7484H138.81Z" fill="black" stroke="black"/>
<path d="M175.665 53.7339V68.112H174.098V55.1567H167.945C167.827 57.736 167.679 60.3744 167.413 62.4198C166.91 66.8076 165.313 68.1712 163.182 68.1712C162.769 68.1712 162.443 68.1416 162.236 68.0528L162.325 66.63C162.532 66.6892 162.71 66.7188 162.976 66.7188C164.425 66.7188 165.579 65.3255 165.934 62.0053C166.2 59.6926 166.318 56.4612 166.407 53.7339H175.665Z" fill="black" stroke="black"/>
<path d="M179.332 60.9377C179.332 56.8756 182.26 53.585 186.638 53.585C190.749 53.585 193.944 56.5499 193.944 60.9377C193.944 65.2662 190.749 68.26 186.638 68.26C182.26 68.26 179.332 64.999 179.332 60.9377ZM192.347 60.9377C192.347 57.4094 189.803 55.0382 186.638 55.0382C183.207 55.0382 180.929 57.6766 180.929 60.9377C180.929 64.1395 183.207 66.7779 186.638 66.7779C189.833 66.7779 192.347 64.406 192.347 60.9377Z" fill="black" stroke="black"/>
<path d="M197.612 53.7339H209.591V68.112H208.023V55.1567H199.179V68.112H197.612V53.7339Z" fill="black" stroke="black"/>
<path d="M214.206 53.7339H215.743L221.719 63.7242H221.778L227.782 53.7339H229.321V68.112H227.782V56.4908H227.753L222.34 65.4736H221.186L215.773 56.5204H215.743V68.112H214.206V53.7339Z" fill="black" stroke="black"/>
<path d="M246.357 61.2634H234.585C234.733 64.5548 236.951 66.7779 240.086 66.7779C242.158 66.7779 243.695 65.9184 244.701 64.614L245.825 65.5623C244.613 67.1932 242.749 68.26 240.057 68.26C235.916 68.26 232.988 65.207 232.988 60.9081C232.988 56.6387 235.975 53.585 239.939 53.585C243.784 53.585 246.387 56.5499 246.387 60.552C246.387 60.8784 246.387 61.1746 246.357 61.2634ZM234.644 59.959H244.819C244.523 57.0244 242.72 55.0382 239.939 55.0382C237.188 55.0382 235.028 56.9948 234.644 59.959Z" fill="black" stroke="black"/>
<path d="M160.431 61.2634H148.659C148.807 64.5548 151.025 66.7779 154.16 66.7779C156.232 66.7779 157.769 65.9184 158.775 64.614L159.899 65.5623C158.687 67.1932 156.823 68.26 154.131 68.26C149.99 68.26 147.062 65.207 147.062 60.9081C147.062 56.6387 150.049 53.585 154.013 53.585C157.858 53.585 160.461 56.5499 160.461 60.552C160.461 60.8784 160.461 61.1746 160.431 61.2634ZM148.718 59.959H158.893C158.597 57.0244 156.794 55.0382 154.013 55.0382C151.262 55.0382 149.102 56.9948 148.718 59.959Z" fill="black" stroke="black"/>
<path d="M249.965 53.7339H251.533V60.404H260.673V53.7339H262.24V68.112H260.673V61.7972H251.533V68.112H249.965V53.7339Z" fill="black" stroke="black"/>
<path d="M270.315 55.1567H265.198V53.7339H277V55.1567H271.883V68.112H270.315V55.1567Z" fill="black" stroke="black"/>
<mask id="mask0_202_859" style="mask-type:alpha" maskUnits="userSpaceOnUse" x="0" y="0" width="80" height="80">
<ellipse cx="39.5714" cy="40.4819" rx="39.5714" ry="39.5181" fill="#C4C4C4"/>
</mask>
<g mask="url(#mask0_202_859)">
<g filter="url(#filter0_d_202_859)">
<path d="M17.6494 60.3685L17.7266 60.3988C30.6811 65.4848 34.9819 67.0937 39.2346 67.0937C39.7842 67.0937 40.3571 67.068 40.9859 67.0153C45.4237 66.6429 48.9 62.8969 48.9 58.4872C48.9 53.3662 47.0212 51.6708 36.3355 47.1486C26.5368 43.0018 11.729 36.7352 11.729 17.6877C11.729 15.5788 11.9501 13.4984 12.3735 11.4614C4.75486 18.746 0 29.0131 0 40.3997C0 45.3708 0.91168 50.1267 2.56515 54.5178L5.44691 55.6223C10.1563 57.4274 14.1372 58.9899 17.6494 60.3685Z" fill="#FBD81F"/>
<path d="M17.6494 60.3685L17.7266 60.3988C30.6811 65.4848 34.9819 67.0937 39.2346 67.0937C39.7842 67.0937 40.3571 67.068 40.9859 67.0153C45.4237 66.6429 48.9 62.8969 48.9 58.4872C48.9 53.3662 47.0212 51.6708 36.3355 47.1486C26.5368 43.0018 11.729 36.7352 11.729 17.6877C11.729 15.5788 11.9501 13.4984 12.3735 11.4614C4.75486 18.746 0 29.0131 0 40.3997C0 45.3708 0.91168 50.1267 2.56515 54.5178L5.44691 55.6223C10.1563 57.4274 14.1372 58.9899 17.6494 60.3685Z" fill="url(#paint0_linear_202_859)"/>
</g>
<g filter="url(#filter1_d_202_859)">
<path d="M74.7289 20.8684C74.726 20.8606 74.7237 20.8529 74.7207 20.8451L74.0664 19.5197C69.357 17.7146 66.5863 16.6228 63.074 15.2442L62.9969 15.2139C50.0423 10.1279 45.7416 8.51904 41.4888 8.51904C40.9392 8.51904 40.3663 8.54468 39.7375 8.59739C39.3847 8.62702 39.0408 8.68519 38.7014 8.75608C38.5198 8.78343 38.3498 8.83025 38.1798 8.87683C38.1582 8.88276 38.1358 8.8868 38.1143 8.89287C37.995 8.92754 37.8781 8.9659 37.7644 9.00963C34.3133 10.1507 31.8235 13.3965 31.8235 17.1255C31.8235 22.2465 33.7023 23.942 44.388 28.4641C54.1866 32.6109 68.9945 38.8775 68.9945 57.925C68.9945 59.5251 69.0868 61.1086 68.947 62.6693C68.7249 64.631 68.1335 66.6865 66.55 70.1756C74.6923 62.8524 79.8179 52.2274 79.8179 40.3994C79.8179 33.3033 77.9628 26.6461 74.7289 20.8684Z" fill="#FBD81F"/>
<path d="M74.7289 20.8684C74.726 20.8606 74.7237 20.8529 74.7207 20.8451L74.0664 19.5197C69.357 17.7146 66.5863 16.6228 63.074 15.2442L62.9969 15.2139C50.0423 10.1279 45.7416 8.51904 41.4888 8.51904C40.9392 8.51904 40.3663 8.54468 39.7375 8.59739C39.3847 8.62702 39.0408 8.68519 38.7014 8.75608C38.5198 8.78343 38.3498 8.83025 38.1798 8.87683C38.1582 8.88276 38.1358 8.8868 38.1143 8.89287C37.995 8.92754 37.8781 8.9659 37.7644 9.00963C34.3133 10.1507 31.8235 13.3965 31.8235 17.1255C31.8235 22.2465 33.7023 23.942 44.388 28.4641C54.1866 32.6109 68.9945 38.8775 68.9945 57.925C68.9945 59.5251 69.0868 61.1086 68.947 62.6693C68.7249 64.631 68.1335 66.6865 66.55 70.1756C74.6923 62.8524 79.8179 52.2274 79.8179 40.3994C79.8179 33.3033 77.9628 26.6461 74.7289 20.8684Z" fill="url(#paint1_linear_202_859)"/>
</g>
<g filter="url(#filter2_d_202_859)">
<path d="M43.1801 31.3309C32.6845 26.8892 28.7187 24.5139 28.7187 17.1256C28.7187 11.1109 33.4448 6.00287 39.4785 5.49651C40.1694 5.43858 40.8321 5.40729 41.4888 5.40729C46.3216 5.40729 50.843 7.10029 64.1293 12.3166C66.2548 13.1508 68.5552 14.0537 71.0801 15.0353C63.7667 5.87404 52.5253 0 39.9089 0C31.2321 0 23.2088 2.7841 16.661 7.49734C15.4305 10.4857 14.7473 13.7388 14.7473 17.1256C14.7473 34.4986 28.0399 40.1236 37.7453 44.231C46.8055 48.0653 50.8944 50.3199 51.7415 55.6072C51.7534 55.6683 51.7577 55.7368 51.7689 55.7986C51.8148 56.1179 51.8534 56.444 51.8768 56.7863L51.9091 56.7803C51.9669 57.32 52.0046 57.8812 52.0046 58.487C52.0046 64.5018 47.2785 69.6098 41.2448 70.1161C40.5539 70.1741 39.8912 70.2054 39.2345 70.2054C34.4017 70.2054 29.8803 68.5124 16.594 63.2961C13.1313 61.9369 9.2114 60.3984 4.5918 58.6263C11.277 71.3334 24.5798 80 39.9089 80C47.4192 80 54.4428 77.9173 60.4423 74.3017C63.9063 69.9114 65.976 64.4004 65.976 58.487C65.976 56.5551 65.7992 54.7801 65.4926 53.1258C63.2608 39.8443 51.7951 34.9768 43.1801 31.3309Z" fill="#FBD81F"/>
<path d="M43.1801 31.3309C32.6845 26.8892 28.7187 24.5139 28.7187 17.1256C28.7187 11.1109 33.4448 6.00287 39.4785 5.49651C40.1694 5.43858 40.8321 5.40729 41.4888 5.40729C46.3216 5.40729 50.843 7.10029 64.1293 12.3166C66.2548 13.1508 68.5552 14.0537 71.0801 15.0353C63.7667 5.87404 52.5253 0 39.9089 0C31.2321 0 23.2088 2.7841 16.661 7.49734C15.4305 10.4857 14.7473 13.7388 14.7473 17.1256C14.7473 34.4986 28.0399 40.1236 37.7453 44.231C46.8055 48.0653 50.8944 50.3199 51.7415 55.6072C51.7534 55.6683 51.7577 55.7368 51.7689 55.7986C51.8148 56.1179 51.8534 56.444 51.8768 56.7863L51.9091 56.7803C51.9669 57.32 52.0046 57.8812 52.0046 58.487C52.0046 64.5018 47.2785 69.6098 41.2448 70.1161C40.5539 70.1741 39.8912 70.2054 39.2345 70.2054C34.4017 70.2054 29.8803 68.5124 16.594 63.2961C13.1313 61.9369 9.2114 60.3984 4.5918 58.6263C11.277 71.3334 24.5798 80 39.9089 80C47.4192 80 54.4428 77.9173 60.4423 74.3017C63.9063 69.9114 65.976 64.4004 65.976 58.487C65.976 56.5551 65.7992 54.7801 65.4926 53.1258C63.2608 39.8443 51.7951 34.9768 43.1801 31.3309Z" fill="url(#paint2_linear_202_859)"/>
</g>
<path fill-rule="evenodd" clip-rule="evenodd" d="M77.6365 53.473C78.5265 49.9677 79.0002 46.2904 79.0002 42.5C79.0002 33.7473 76.4745 25.5984 72.1285 18.775C72.7392 19.0103 73.3825 19.2575 74.0668 19.5198L74.7212 20.8452L74.7241 20.8534C74.7258 20.8585 74.7275 20.8635 74.7294 20.8685C77.9633 26.6462 79.8184 33.3034 79.8184 40.3996C79.8184 44.9782 79.0503 49.3766 77.6365 53.473ZM50.6245 1.45996C57.6924 4.00823 63.9042 8.41513 68.6996 14.1073C69.4709 14.4086 70.2639 14.7179 71.0805 15.0353C65.9192 8.56982 58.8014 3.74161 50.6245 1.45996Z" fill="#FBD81F"/>
<path fill-rule="evenodd" clip-rule="evenodd" d="M77.6365 53.473C78.5265 49.9677 79.0002 46.2904 79.0002 42.5C79.0002 33.7473 76.4745 25.5984 72.1285 18.775C72.7392 19.0103 73.3825 19.2575 74.0668 19.5198L74.7212 20.8452L74.7241 20.8534C74.7258 20.8585 74.7275 20.8635 74.7294 20.8685C77.9633 26.6462 79.8184 33.3034 79.8184 40.3996C79.8184 44.9782 79.0503 49.3766 77.6365 53.473ZM50.6245 1.45996C57.6924 4.00823 63.9042 8.41513 68.6996 14.1073C69.4709 14.4086 70.2639 14.7179 71.0805 15.0353C65.9192 8.56982 58.8014 3.74161 50.6245 1.45996Z" fill="#FFE477"/>
</g>
<mask id="mask1_202_859" style="mask-type:alpha" maskUnits="userSpaceOnUse" x="0" y="0" width="80" height="80">
<path fill-rule="evenodd" clip-rule="evenodd" d="M28.719 17.1256C28.719 24.5139 32.6848 26.8892 43.1804 31.3309C51.7953 34.9768 63.261 39.8443 65.4928 53.1258C65.7995 54.7801 65.9762 56.5551 65.9762 58.487C65.9762 64.4004 63.9065 69.9114 60.4425 74.3017C54.443 77.9173 47.4194 80 39.9091 80C24.5801 80 11.2773 71.3334 4.59204 58.6263C9.21041 60.3979 13.1294 61.9361 16.5915 63.295L16.5943 63.2961C29.8806 68.5124 34.4019 70.2054 39.2347 70.2054C39.8914 70.2054 40.5541 70.1741 41.2451 70.1161C47.2787 69.6098 52.0048 64.5018 52.0048 58.487C52.0048 57.8812 51.9671 57.32 51.9094 56.7803L51.877 56.7863C51.8537 56.444 51.815 56.1179 51.7691 55.7986C51.7638 55.7693 51.7601 55.7386 51.7563 55.7078C51.7521 55.6736 51.748 55.6393 51.7417 55.6072C50.8946 50.3199 46.8057 48.0653 37.7455 44.231L37.7445 44.2306C28.0392 40.1232 14.7476 34.498 14.7476 17.1256C14.7476 13.7388 15.4308 10.4857 16.6612 7.49734C23.2091 2.7841 31.2324 0 39.9091 0C52.5256 0 63.767 5.87404 71.0803 15.0353C68.5554 14.0537 66.255 13.1508 64.1295 12.3166C50.8432 7.10029 46.3218 5.40729 41.4891 5.40729C40.8323 5.40729 40.1697 5.43858 39.4787 5.49651C33.4451 6.00287 28.719 11.1109 28.719 17.1256ZM74.7253 20.8574L74.7251 20.8569C74.7238 20.853 74.7225 20.8491 74.721 20.8452L74.0667 19.5198C69.7443 17.8631 67.0551 16.8072 63.9268 15.579L63.0743 15.2443L62.9972 15.214C50.0426 10.1281 45.7419 8.51915 41.4891 8.51915C40.9395 8.51915 40.3666 8.5448 39.7378 8.5975C39.385 8.62713 39.0411 8.6853 38.7017 8.75619C38.5222 8.78321 38.3542 8.82923 38.1862 8.87525L38.1801 8.87694C38.1697 8.87979 38.1591 8.88221 38.1486 8.88462C38.1372 8.88723 38.1258 8.88983 38.1146 8.89299C37.9953 8.92765 37.8784 8.96601 37.7647 9.00975C34.3136 10.1508 31.8238 13.3966 31.8238 17.1256C31.8238 22.2466 33.7026 23.9421 44.3883 28.4642C54.1869 32.611 68.9948 38.8776 68.9948 57.9251C68.9948 58.382 69.0023 58.8374 69.0098 59.2914C69.0286 60.4275 69.0472 61.5543 68.9473 62.6694C68.7252 64.6311 68.1338 66.6866 66.5503 70.1757C74.6926 62.8525 79.8182 52.2275 79.8182 40.3996C79.8182 33.3034 77.9631 26.6462 74.7292 20.8685C74.7278 20.8648 74.7265 20.8611 74.7253 20.8574ZM17.6494 60.3684L17.7266 60.3987C30.6811 65.4847 34.9819 67.0936 39.2346 67.0936C39.7842 67.0936 40.3571 67.0679 40.9859 67.0152C45.4237 66.6428 48.9 62.8968 48.9 58.4871C48.9 53.3661 47.0212 51.6707 36.3355 47.1485C26.5368 43.0017 11.729 36.7351 11.729 17.6876C11.729 15.5786 11.9501 13.4983 12.3735 11.4613C4.75486 18.7459 0 29.013 0 40.3996C0 45.3707 0.91168 50.1266 2.56515 54.5177L5.44691 55.6222C10.1563 57.4273 14.1372 58.9898 17.6494 60.3684Z" fill="#FBD81F"/>
<path fill-rule="evenodd" clip-rule="evenodd" d="M28.719 17.1256C28.719 24.5139 32.6848 26.8892 43.1804 31.3309C51.7953 34.9768 63.261 39.8443 65.4928 53.1258C65.7995 54.7801 65.9762 56.5551 65.9762 58.487C65.9762 64.4004 63.9065 69.9114 60.4425 74.3017C54.443 77.9173 47.4194 80 39.9091 80C24.5801 80 11.2773 71.3334 4.59204 58.6263C9.21041 60.3979 13.1294 61.9361 16.5915 63.295L16.5943 63.2961C29.8806 68.5124 34.4019 70.2054 39.2347 70.2054C39.8914 70.2054 40.5541 70.1741 41.2451 70.1161C47.2787 69.6098 52.0048 64.5018 52.0048 58.487C52.0048 57.8812 51.9671 57.32 51.9094 56.7803L51.877 56.7863C51.8537 56.444 51.815 56.1179 51.7691 55.7986C51.7638 55.7693 51.7601 55.7386 51.7563 55.7078C51.7521 55.6736 51.748 55.6393 51.7417 55.6072C50.8946 50.3199 46.8057 48.0653 37.7455 44.231L37.7445 44.2306C28.0392 40.1232 14.7476 34.498 14.7476 17.1256C14.7476 13.7388 15.4308 10.4857 16.6612 7.49734C23.2091 2.7841 31.2324 0 39.9091 0C52.5256 0 63.767 5.87404 71.0803 15.0353C68.5554 14.0537 66.255 13.1508 64.1295 12.3166C50.8432 7.10029 46.3218 5.40729 41.4891 5.40729C40.8323 5.40729 40.1697 5.43858 39.4787 5.49651C33.4451 6.00287 28.719 11.1109 28.719 17.1256ZM74.7253 20.8574L74.7251 20.8569C74.7238 20.853 74.7225 20.8491 74.721 20.8452L74.0667 19.5198C69.7443 17.8631 67.0551 16.8072 63.9268 15.579L63.0743 15.2443L62.9972 15.214C50.0426 10.1281 45.7419 8.51915 41.4891 8.51915C40.9395 8.51915 40.3666 8.5448 39.7378 8.5975C39.385 8.62713 39.0411 8.6853 38.7017 8.75619C38.5222 8.78321 38.3542 8.82923 38.1862 8.87525L38.1801 8.87694C38.1697 8.87979 38.1591 8.88221 38.1486 8.88462C38.1372 8.88723 38.1258 8.88983 38.1146 8.89299C37.9953 8.92765 37.8784 8.96601 37.7647 9.00975C34.3136 10.1508 31.8238 13.3966 31.8238 17.1256C31.8238 22.2466 33.7026 23.9421 44.3883 28.4642C54.1869 32.611 68.9948 38.8776 68.9948 57.9251C68.9948 58.382 69.0023 58.8374 69.0098 59.2914C69.0286 60.4275 69.0472 61.5543 68.9473 62.6694C68.7252 64.6311 68.1338 66.6866 66.5503 70.1757C74.6926 62.8525 79.8182 52.2275 79.8182 40.3996C79.8182 33.3034 77.9631 26.6462 74.7292 20.8685C74.7278 20.8648 74.7265 20.8611 74.7253 20.8574ZM17.6494 60.3684L17.7266 60.3987C30.6811 65.4847 34.9819 67.0936 39.2346 67.0936C39.7842 67.0936 40.3571 67.0679 40.9859 67.0152C45.4237 66.6428 48.9 62.8968 48.9 58.4871C48.9 53.3661 47.0212 51.6707 36.3355 47.1485C26.5368 43.0017 11.729 36.7351 11.729 17.6876C11.729 15.5786 11.9501 13.4983 12.3735 11.4613C4.75486 18.7459 0 29.013 0 40.3996C0 45.3707 0.91168 50.1266 2.56515 54.5177L5.44691 55.6222C10.1563 57.4273 14.1372 58.9898 17.6494 60.3684Z" fill="url(#paint3_linear_202_859)"/>
</mask>
<g mask="url(#mask1_202_859)">
<g filter="url(#filter3_f_202_859)">
<ellipse rx="27.0757" ry="19.8962" transform="matrix(0.904316 -0.426864 0.427807 0.90387 27.2057 22.7941)" fill="#FFE023"/>
</g>
<mask id="mask2_202_859" style="mask-type:alpha" maskUnits="userSpaceOnUse" x="4" y="0" width="68" height="80">
<path d="M43.1804 31.3309C32.6848 26.8892 28.719 24.5139 28.719 17.1256C28.719 11.1109 33.4451 6.00287 39.4787 5.49651C40.1697 5.43858 40.8324 5.40729 41.4891 5.40729C46.3219 5.40729 50.8432 7.10029 64.1295 12.3166C66.255 13.1508 68.5554 14.0537 71.0803 15.0353C63.767 5.87404 52.5256 0 39.9091 0C31.2324 0 23.2091 2.7841 16.6612 7.49734C15.4308 10.4857 14.7476 13.7388 14.7476 17.1256C14.7476 34.4986 28.0402 40.1236 37.7456 44.231C46.8057 48.0653 50.8947 50.3199 51.7417 55.6072C51.7536 55.6683 51.758 55.7368 51.7691 55.7986C51.815 56.1179 51.8537 56.444 51.877 56.7863L51.9094 56.7803C51.9671 57.32 52.0048 57.8812 52.0048 58.487C52.0048 64.5018 47.2787 69.6098 41.2451 70.1161C40.5541 70.1741 39.8914 70.2054 39.2347 70.2054C34.4019 70.2054 29.8806 68.5124 16.5943 63.2961C13.1315 61.9369 9.21165 60.3984 4.59204 58.6263C11.2773 71.3334 24.5801 80 39.9091 80C47.4194 80 54.443 77.9173 60.4425 74.3017C63.9066 69.9114 65.9762 64.4004 65.9762 58.487C65.9762 56.5551 65.7995 54.7801 65.4928 53.1258C63.261 39.8443 51.7953 34.9768 43.1804 31.3309Z" fill="#FBD81F"/>
<path d="M43.1804 31.3309C32.6848 26.8892 28.719 24.5139 28.719 17.1256C28.719 11.1109 33.4451 6.00287 39.4787 5.49651C40.1697 5.43858 40.8324 5.40729 41.4891 5.40729C46.3219 5.40729 50.8432 7.10029 64.1295 12.3166C66.255 13.1508 68.5554 14.0537 71.0803 15.0353C63.767 5.87404 52.5256 0 39.9091 0C31.2324 0 23.2091 2.7841 16.6612 7.49734C15.4308 10.4857 14.7476 13.7388 14.7476 17.1256C14.7476 34.4986 28.0402 40.1236 37.7456 44.231C46.8057 48.0653 50.8947 50.3199 51.7417 55.6072C51.7536 55.6683 51.758 55.7368 51.7691 55.7986C51.815 56.1179 51.8537 56.444 51.877 56.7863L51.9094 56.7803C51.9671 57.32 52.0048 57.8812 52.0048 58.487C52.0048 64.5018 47.2787 69.6098 41.2451 70.1161C40.5541 70.1741 39.8914 70.2054 39.2347 70.2054C34.4019 70.2054 29.8806 68.5124 16.5943 63.2961C13.1315 61.9369 9.21165 60.3984 4.59204 58.6263C11.2773 71.3334 24.5801 80 39.9091 80C47.4194 80 54.443 77.9173 60.4425 74.3017C63.9066 69.9114 65.9762 64.4004 65.9762 58.487C65.9762 56.5551 65.7995 54.7801 65.4928 53.1258C63.261 39.8443 51.7953 34.9768 43.1804 31.3309Z" fill="url(#paint4_linear_202_859)"/>
</mask>
<g mask="url(#mask2_202_859)">
<g filter="url(#filter4_f_202_859)">
<ellipse rx="18.0328" ry="11.3037" transform="matrix(0.904316 -0.426864 0.427807 0.90387 55.1243 71.8906)" fill="#FFFBE1" fill-opacity="0.51" style="mix-blend-mode:overlay"/>
</g>
</g>
</g>
<defs>
<filter id="filter0_d_202_859" x="-1" y="11.4614" width="52.8999" height="59.6323" filterUnits="userSpaceOnUse" color-interpolation-filters="sRGB">
<feFlood flood-opacity="0" result="BackgroundImageFix"/>
<feColorMatrix in="SourceAlpha" type="matrix" values="0 0 0 0 0 0 0 0 0 0 0 0 0 0 0 0 0 0 127 0" result="hardAlpha"/>
<feOffset dx="1" dy="2"/>
<feGaussianBlur stdDeviation="1"/>
<feComposite in2="hardAlpha" operator="out"/>
<feColorMatrix type="matrix" values="0 0 0 0 0.779167 0 0 0 0 0.646449 0 0 0 0 0.305174 0 0 0 1 0"/>
<feBlend mode="multiply" in2="BackgroundImageFix" result="effect1_dropShadow_202_859"/>
<feBlend mode="normal" in="SourceGraphic" in2="effect1_dropShadow_202_859" result="shape"/>
</filter>
<filter id="filter1_d_202_859" x="30.8235" y="8.51904" width="51.9944" height="65.6567" filterUnits="userSpaceOnUse" color-interpolation-filters="sRGB">
<feFlood flood-opacity="0" result="BackgroundImageFix"/>
<feColorMatrix in="SourceAlpha" type="matrix" values="0 0 0 0 0 0 0 0 0 0 0 0 0 0 0 0 0 0 127 0" result="hardAlpha"/>
<feOffset dx="1" dy="2"/>
<feGaussianBlur stdDeviation="1"/>
<feComposite in2="hardAlpha" operator="out"/>
<feColorMatrix type="matrix" values="0 0 0 0 0.779167 0 0 0 0 0.646449 0 0 0 0 0.305174 0 0 0 1 0"/>
<feBlend mode="multiply" in2="BackgroundImageFix" result="effect1_dropShadow_202_859"/>
<feBlend mode="normal" in="SourceGraphic" in2="effect1_dropShadow_202_859" result="shape"/>
</filter>
<filter id="filter2_d_202_859" x="3.5918" y="0" width="70.4883" height="84" filterUnits="userSpaceOnUse" color-interpolation-filters="sRGB">
<feFlood flood-opacity="0" result="BackgroundImageFix"/>
<feColorMatrix in="SourceAlpha" type="matrix" values="0 0 0 0 0 0 0 0 0 0 0 0 0 0 0 0 0 0 127 0" result="hardAlpha"/>
<feOffset dx="1" dy="2"/>
<feGaussianBlur stdDeviation="1"/>
<feComposite in2="hardAlpha" operator="out"/>
<feColorMatrix type="matrix" values="0 0 0 0 0.779167 0 0 0 0 0.646449 0 0 0 0 0.305174 0 0 0 1 0"/>
<feBlend mode="multiply" in2="BackgroundImageFix" result="effect1_dropShadow_202_859"/>
<feBlend mode="normal" in="SourceGraphic" in2="effect1_dropShadow_202_859" result="shape"/>
</filter>
<filter id="filter3_f_202_859" x="-0.723633" y="-0.585938" width="55.8586" height="46.7598" filterUnits="userSpaceOnUse" color-interpolation-filters="sRGB">
<feFlood flood-opacity="0" result="BackgroundImageFix"/>
<feBlend mode="normal" in="SourceGraphic" in2="BackgroundImageFix" result="shape"/>
<feGaussianBlur stdDeviation="1" result="effect1_foregroundBlur_202_859"/>
</filter>
<filter id="filter4_f_202_859" x="29.1106" y="50.0977" width="52.0273" height="43.5859" filterUnits="userSpaceOnUse" color-interpolation-filters="sRGB">
<feFlood flood-opacity="0" result="BackgroundImageFix"/>
<feBlend mode="normal" in="SourceGraphic" in2="BackgroundImageFix" result="shape"/>
<feGaussianBlur stdDeviation="4.5" result="effect1_foregroundBlur_202_859"/>
</filter>
<linearGradient id="paint0_linear_202_859" x1="24.3065" y1="14.8128" x2="35.2897" y2="61.0678" gradientUnits="userSpaceOnUse">
<stop stop-color="#FFA462" stop-opacity="0.16"/>
<stop offset="1" stop-color="#FEDF23"/>
</linearGradient>
<linearGradient id="paint1_linear_202_859" x1="55.6799" y1="12.2333" x2="69.2261" y2="62.7554" gradientUnits="userSpaceOnUse">
<stop stop-color="#FFA462" stop-opacity="0.16"/>
<stop offset="1" stop-color="#FEDF23"/>
</linearGradient>
<linearGradient id="paint2_linear_202_859" x1="37.6409" y1="4.81928" x2="54.2397" y2="70.9166" gradientUnits="userSpaceOnUse">
<stop stop-color="#FFA462" stop-opacity="0.16"/>
<stop offset="1" stop-color="#FEDF23"/>
</linearGradient>
<linearGradient id="paint3_linear_202_859" x1="37.6411" y1="4.81928" x2="54.2399" y2="70.9166" gradientUnits="userSpaceOnUse">
<stop stop-color="#FFA462" stop-opacity="0.16"/>
<stop offset="1" stop-color="#FEDF23"/>
</linearGradient>
<linearGradient id="paint4_linear_202_859" x1="37.6411" y1="4.81928" x2="54.2399" y2="70.9166" gradientUnits="userSpaceOnUse">
<stop stop-color="#FFA462" stop-opacity="0.16"/>
<stop offset="1" stop-color="#FFEB83"/>
</linearGradient>
</defs>
</svg>
