<svg width="45" height="36" viewBox="0 0 45 36" fill="none" xmlns="http://www.w3.org/2000/svg">
<g clip-path="url(#clip0_202_851)">
<path d="M44.9592 1.18784e-06L44.9592 9.96183C44.9592 15.1835 44.3191 19.465 43.0356 22.8084C41.7536 26.1518 39.5626 28.9925 36.461 31.3278C33.3611 33.6647 29.875 35.2206 26.0046 36L26.0046 28.0299C28.7563 26.4726 30.3187 24.3885 30.6901 21.7777L26.0046 21.7777L26.0046 -4.21537e-07L44.9592 1.18784e-06V1.18784e-06ZM19.6396 -9.61962e-07L19.6396 9.96183C19.6396 15.1835 18.9993 19.465 17.7159 22.8084C16.434 26.1518 14.2545 28.9924 11.1761 31.3278C8.09921 33.6647 4.60154 35.2206 0.684998 36L0.684999 28.0299C3.43676 26.4726 4.99908 24.3885 5.37196 21.7777L0.684999 21.7777L0.685001 -2.57134e-06L19.6396 -9.61962e-07V-9.61962e-07Z" fill="#3F65AC"/>
</g>
<defs>
<clipPath id="clip0_202_851">
<rect width="44.2742" height="36" fill="white" transform="translate(44.9592 36) rotate(-180)"/>
</clipPath>
</defs>
</svg>
