<svg width="45" height="36" viewBox="0 0 45 36" fill="none" xmlns="http://www.w3.org/2000/svg">
<g clip-path="url(#clip0_202_853)">
<path d="M0.282715 36V26.0382C0.282715 20.8165 0.922851 16.535 2.20631 13.1916C3.48833 9.84823 5.67933 7.00755 8.7809 4.67222C11.8809 2.33533 15.367 0.779433 19.2374 0V7.97012C16.4856 9.52742 14.9233 11.6115 14.5518 14.2223H19.2374V36H0.282715V36ZM25.6023 36V26.0382C25.6023 20.8165 26.2426 16.535 27.526 13.1916C28.8079 9.84823 30.9875 7.00755 34.0658 4.67222C37.1427 2.33533 40.6404 0.779433 44.5569 0V7.97012C41.8052 9.52742 40.2429 11.6115 39.87 14.2223H44.5569V36H25.6023V36Z" fill="#3F65AC"/>
</g>
<defs>
<clipPath id="clip0_202_853">
<rect width="44.2742" height="36" fill="white" transform="translate(0.282715)"/>
</clipPath>
</defs>
</svg>
