<svg width="1674" height="746" viewBox="0 0 1674 746" fill="none" xmlns="http://www.w3.org/2000/svg">
<mask id="mask0_202_835" style="mask-type:alpha" maskUnits="userSpaceOnUse" x="0" y="0" width="1823" height="746">
<rect x="0.0527344" width="1822.95" height="746" fill="url(#paint0_linear_202_835)"/>
</mask>
<g mask="url(#mask0_202_835)">
<path fill-rule="evenodd" clip-rule="evenodd" d="M1140.73 145.804C1140.73 220.963 1182.65 245.126 1293.59 290.311C1384.65 327.399 1505.84 376.915 1529.43 512.024C1532.67 528.852 1534.54 546.91 1534.54 566.562C1534.54 626.717 1512.66 682.779 1476.05 727.441C1412.63 764.221 1338.39 785.408 1259.01 785.408C1096.98 785.408 956.372 697.245 885.709 567.98C934.518 585.998 975.936 601.644 1012.53 615.466L1012.57 615.484C1153.01 668.547 1200.8 685.77 1251.88 685.77C1258.82 685.77 1265.83 685.451 1273.13 684.862C1336.9 679.711 1386.86 627.749 1386.86 566.562C1386.86 560.399 1386.46 554.69 1385.85 549.2L1385.51 549.261C1385.26 545.78 1384.85 542.462 1384.37 539.214C1384.31 538.916 1384.27 538.603 1384.23 538.29C1384.19 537.942 1384.14 537.594 1384.08 537.267C1375.12 483.48 1331.91 460.545 1236.14 421.54L1236.13 421.536C1133.54 379.752 993.053 322.528 993.053 145.804C993.053 111.35 1000.27 78.2581 1013.28 47.8582C1082.49 -0.0882263 1167.3 -28.4102 1259.01 -28.4102C1392.36 -28.4102 1511.18 31.3449 1588.49 124.54C1561.8 114.554 1537.48 105.37 1515.02 96.8828C1374.58 43.8191 1326.79 26.5967 1275.71 26.5967C1268.77 26.5967 1261.76 26.915 1254.46 27.5043C1190.68 32.6554 1140.73 84.6177 1140.73 145.804ZM1626.86 184.031L1626.85 183.998C1626.84 183.961 1626.82 183.924 1626.81 183.887C1626.8 183.867 1626.8 183.847 1626.79 183.827L1619.88 170.337C1574.27 153.475 1545.89 142.729 1512.87 130.229C1510.52 129.338 1508.14 128.437 1505.73 127.526L1503.87 126.82L1503.06 126.511C1366.34 74.7446 1320.95 58.3687 1276.06 58.3687C1270.26 58.3687 1264.22 58.6296 1257.58 59.1661C1253.86 59.4677 1250.23 60.0597 1246.64 60.7813C1244.75 61.0563 1242.98 61.5247 1241.2 61.9931L1241.14 62.0103C1241.03 62.0393 1240.92 62.0639 1240.81 62.0885C1240.69 62.115 1240.57 62.1415 1240.45 62.1736C1239.19 62.5264 1237.96 62.9169 1236.76 63.3621C1200.33 74.9761 1174.06 108.013 1174.06 145.968C1174.06 198.091 1193.88 215.348 1306.66 261.376C1410.07 303.584 1566.35 367.367 1566.35 561.239C1566.35 565.889 1566.43 570.525 1566.51 575.146V575.147C1566.71 586.711 1566.91 598.178 1565.85 609.528C1563.51 629.495 1557.27 650.416 1540.55 685.929C1626.49 611.392 1680.58 503.247 1680.58 382.858C1680.58 310.631 1661 242.872 1626.87 184.065C1626.87 184.053 1626.86 184.042 1626.86 184.031ZM1024.25 585.738L1025.06 586.046C1162.16 637.807 1207.67 654.181 1252.67 654.181C1258.49 654.181 1264.55 653.92 1271.21 653.384C1318.17 649.593 1354.96 611.469 1354.96 566.591C1354.96 514.474 1335.08 497.219 1221.99 451.196C1118.3 408.994 961.592 345.217 961.592 151.367C961.592 129.904 963.932 108.731 968.413 88.0008C887.788 162.137 837.469 266.628 837.469 382.511C837.469 433.103 847.117 481.505 864.615 526.194L895.111 537.435C944.949 555.805 987.077 571.707 1024.25 585.738Z" fill="#F8F8F8" fill-opacity="0.08" style="mix-blend-mode:soft-light"/>
</g>
<defs>
<linearGradient id="paint0_linear_202_835" x1="-51.2423" y1="673.022" x2="850.345" y2="-1422.36" gradientUnits="userSpaceOnUse">
<stop stop-color="#273B79"/>
<stop offset="1" stop-color="#4D75F2"/>
</linearGradient>
</defs>
</svg>
