<svg width="80" height="63" viewBox="0 0 80 63" fill="none" xmlns="http://www.w3.org/2000/svg">
<g clip-path="url(#clip0_202_387)">
<path d="M78.1989 62.1867H1.80115C1.32505 62.1867 0.895887 61.8994 0.71411 61.4592C0.532333 61.0189 0.633869 60.5124 0.971157 60.1762L16.4854 44.7142C16.9454 44.2555 17.69 44.2569 18.1487 44.7174C18.607 45.1779 18.6056 45.923 18.1454 46.3816L4.64836 59.8332H75.3516L61.8546 46.3816C61.3944 45.923 61.3929 45.178 61.8514 44.7174C62.3096 44.2567 63.0543 44.2556 63.5146 44.7142L79.0289 60.1762C79.3663 60.5124 79.4676 61.0189 79.2859 61.4592C79.1041 61.8994 78.675 62.1867 78.1989 62.1867Z" fill="#1F2E75"/>
<path d="M26.7102 54.4564H21.0674C20.4179 54.4564 19.8914 53.9295 19.8914 53.2797V34.206C19.8914 33.5562 20.4179 33.0293 21.0674 33.0293H26.7102C27.3598 33.0293 27.8863 33.5562 27.8863 34.206V53.2797C27.8863 53.9295 27.3598 54.4564 26.7102 54.4564ZM22.2435 52.1029H25.5342V35.3828H22.2435V52.1029Z" fill="#1F2E75"/>
<path d="M37.5128 54.4561H31.8699C31.2204 54.4561 30.6938 53.9292 30.6938 53.2793V27.9004C30.6938 27.2505 31.2204 26.7236 31.8699 26.7236H37.5128C38.1623 26.7236 38.6889 27.2505 38.6889 27.9004V53.2793C38.6889 53.9292 38.1623 54.4561 37.5128 54.4561ZM33.046 52.1026H36.3367V29.0771H33.046V52.1026Z" fill="#1F2E75"/>
<path d="M48.3147 54.4562H42.6719C42.0223 54.4562 41.4958 53.9294 41.4958 53.2795V24.7256C41.4958 24.0757 42.0223 23.5488 42.6719 23.5488H48.3147C48.9643 23.5488 49.4908 24.0757 49.4908 24.7256V53.2795C49.4908 53.9294 48.9643 54.4562 48.3147 54.4562ZM43.848 52.1027H47.1386V25.9023H43.848V52.1027Z" fill="#1F2E75"/>
<path d="M59.1165 54.4562H53.4737C52.8241 54.4562 52.2976 53.9294 52.2976 53.2795V16.5996C52.2976 15.9497 52.8241 15.4229 53.4737 15.4229H59.1165C59.7661 15.4229 60.2926 15.9497 60.2926 16.5996V53.2795C60.2926 53.9294 59.7661 54.4562 59.1165 54.4562ZM54.6498 52.1028H57.9404V17.7763H54.6498V52.1028Z" fill="#1F2E75"/>
<path d="M11.0103 19.1592H3.66657C3.01704 19.1592 2.49048 18.6323 2.49048 17.9824C2.49048 17.3325 3.01704 16.8057 3.66657 16.8057H11.0103C11.6598 16.8057 12.1864 17.3325 12.1864 17.9824C12.1864 18.6323 11.6598 19.1592 11.0103 19.1592Z" fill="#1F2E75"/>
<path d="M11.0102 23.4883H6.28205C5.63252 23.4883 5.10596 22.9614 5.10596 22.3115C5.10596 21.6616 5.63252 21.1348 6.28205 21.1348H11.0102C11.6597 21.1348 12.1863 21.6616 12.1863 22.3115C12.1863 22.9614 11.6597 23.4883 11.0102 23.4883Z" fill="#1F2E75"/>
<path d="M77.0027 2.85349H69.659C69.0094 2.85349 68.4829 2.32664 68.4829 1.67675C68.4829 1.02685 69.0094 0.5 69.659 0.5H77.0027C77.6523 0.5 78.1788 1.02685 78.1788 1.67675C78.1788 2.32664 77.6523 2.85349 77.0027 2.85349Z" fill="#1F2E75"/>
<path d="M74.3871 7.1821H69.659C69.0094 7.1821 68.4829 6.65525 68.4829 6.00536C68.4829 5.35546 69.0094 4.82861 69.659 4.82861H74.3871C75.0367 4.82861 75.5632 5.35547 75.5632 6.00536C75.5632 6.65525 75.0367 7.1821 74.3871 7.1821Z" fill="#1F2E75"/>
<path d="M20.3667 32.2448C19.9678 32.2448 19.5789 32.0419 19.3581 31.6752L14.3283 23.3209C13.9931 22.7641 14.1724 22.041 14.7288 21.7057C15.2851 21.3701 16.008 21.5497 16.3431 22.1064L21.3729 30.4607C21.7081 31.0175 21.5288 31.7406 20.9724 32.0759C20.7825 32.1904 20.5733 32.2448 20.3667 32.2448Z" fill="#1F2E75"/>
<path d="M60.0007 13.2213C59.8053 13.2213 59.6071 13.1725 59.4247 13.0697C58.8587 12.7508 58.6583 12.0332 58.9769 11.4669L64.8116 1.0996C65.1301 0.5333 65.8474 0.332657 66.4134 0.651665C66.9794 0.970516 67.1799 1.68813 66.8612 2.25444L61.0265 12.6218C60.8106 13.0055 60.4115 13.2213 60.0007 13.2213Z" fill="#1F2E75"/>
</g>
<defs>
<clipPath id="clip0_202_387">
<rect width="78.75" height="61.6875" fill="white" transform="translate(0.625 0.5)"/>
</clipPath>
</defs>
</svg>
