<svg width="58" height="70" viewBox="0 0 58 70" fill="none" xmlns="http://www.w3.org/2000/svg">
<g clip-path="url(#clip0_202_403)">
<path d="M45.5457 63.7946H1.26019C0.633188 63.7946 0.125 63.2793 0.125 62.6435V2.02608C0.125 1.39023 0.633188 0.875 1.26019 0.875H45.5457C46.1729 0.875 46.6811 1.39023 46.6811 2.02608V27.0042C46.6811 27.64 46.1729 28.1553 45.5457 28.1553C44.9187 28.1553 44.4106 27.64 44.4106 27.0042V3.177H2.39553V61.4926H44.4106V58.7823C44.4106 58.1466 44.9187 57.6314 45.5457 57.6314C46.1729 57.6314 46.6811 58.1466 46.6811 58.7823V62.6435C46.6811 63.2793 46.1729 63.7946 45.5457 63.7946Z" fill="#1F2E75"/>
<path d="M50.6685 45.5136C50.0415 45.5136 49.5332 44.9984 49.5332 44.3626V8.50756H45.5456C44.9186 8.50756 44.4104 7.99233 44.4104 7.35649C44.4104 6.7208 44.9186 6.20557 45.5456 6.20557H50.6685C51.2955 6.20557 51.8037 6.7208 51.8037 7.35649V44.3626C51.8037 44.9984 51.2955 45.5136 50.6685 45.5136Z" fill="#1F2E75"/>
<path d="M50.6688 69.1249H6.38324C5.75624 69.1249 5.24805 68.6097 5.24805 67.974V62.6434C5.24805 62.0077 5.75624 61.4925 6.38324 61.4925C7.01023 61.4925 7.51842 62.0077 7.51842 62.6434V66.8229H49.5334V58.6455C49.5334 58.0099 50.0418 57.4946 50.6688 57.4946C51.2958 57.4946 51.804 58.0099 51.804 58.6455V67.974C51.804 68.6097 51.2958 69.1249 50.6688 69.1249Z" fill="#1F2E75"/>
<path d="M36.1424 10.6926H10.6632C10.036 10.6926 9.52783 10.1774 9.52783 9.54154C9.52783 8.90586 10.036 8.39062 10.6632 8.39062H36.1424C36.7696 8.39062 37.2778 8.90586 37.2778 9.54154C37.2778 10.1774 36.7696 10.6926 36.1424 10.6926Z" fill="#1F2E75"/>
<path d="M39.3448 16.9133H7.46185C6.83486 16.9133 6.32666 16.3981 6.32666 15.7624C6.32666 15.1266 6.83486 14.6113 7.46185 14.6113H39.3448C39.9718 14.6113 40.48 15.1266 40.48 15.7624C40.48 16.3981 39.9718 16.9133 39.3448 16.9133Z" fill="#1F2E75"/>
<path d="M39.3448 23.1345H7.46185C6.83486 23.1345 6.32666 22.6193 6.32666 21.9836C6.32666 21.3479 6.83486 20.8325 7.46185 20.8325H39.3448C39.9718 20.8325 40.48 21.3479 40.48 21.9836C40.48 22.6193 39.9718 23.1345 39.3448 23.1345Z" fill="#1F2E75"/>
<path d="M28.6947 29.3547H7.46185C6.83486 29.3547 6.32666 28.8395 6.32666 28.2037C6.32666 27.568 6.83486 27.0527 7.46185 27.0527H28.6947C29.3217 27.0527 29.8299 27.568 29.8299 28.2037C29.8299 28.8395 29.3217 29.3547 28.6947 29.3547Z" fill="#1F2E75"/>
<path d="M26.8074 35.5754H7.46185C6.83486 35.5754 6.32666 35.0602 6.32666 34.4245C6.32666 33.7887 6.83486 33.2734 7.46185 33.2734H26.8074C27.4344 33.2734 27.9426 33.7887 27.9426 34.4245C27.9426 35.0602 27.4344 35.5754 26.8074 35.5754Z" fill="#1F2E75"/>
<path d="M22.4596 41.7966H7.46185C6.83486 41.7966 6.32666 41.2814 6.32666 40.6457C6.32666 40.01 6.83486 39.4946 7.46185 39.4946H22.4596C23.0867 39.4946 23.5949 40.01 23.5949 40.6457C23.5949 41.2814 23.0867 41.7966 22.4596 41.7966Z" fill="#1F2E75"/>
<path d="M17.5054 48.0173H7.46185C6.83486 48.0173 6.32666 47.5019 6.32666 46.8663C6.32666 46.2306 6.83486 45.7153 7.46185 45.7153H17.5054C18.1324 45.7153 18.6406 46.2306 18.6406 46.8663C18.6406 47.5019 18.1324 48.0173 17.5054 48.0173Z" fill="#1F2E75"/>
<path d="M35.5864 51.7667C35.3944 51.7667 35.2005 51.7174 35.0249 51.6158L25.7256 46.2466C25.2865 45.993 25.0657 45.4759 25.1837 44.9778C25.6692 42.9277 26.5278 40.7721 27.6675 38.7435C28.8072 36.715 30.1975 34.8663 31.688 33.3978C32.0493 33.0417 32.6009 32.9688 33.0408 33.2234L42.3403 38.5925C42.7793 38.8461 43.0001 39.3631 42.8821 39.8613C42.3965 41.9115 41.5376 44.0669 40.3983 46.0945C39.2587 48.1241 37.8685 49.9729 36.378 51.4413C36.1606 51.6553 35.875 51.7667 35.5864 51.7667ZM27.609 44.6855L35.389 49.1771C36.5044 47.9685 37.5442 46.5245 38.4254 44.9553C39.3061 43.388 40.0005 41.7443 40.4569 40.1535L32.6768 35.6619C31.5616 36.8705 30.5211 38.3147 29.64 39.8838C28.7597 41.451 28.0652 43.0949 27.609 44.6855Z" fill="#1F2E75"/>
<path d="M32.7864 58.7266C32.268 58.7266 31.7433 58.5954 31.2617 58.3175L21.9619 52.9474C20.4795 52.0914 19.9602 50.1724 20.8041 48.6698L22.629 45.42C23.0383 44.6917 23.7026 44.1684 24.4994 43.9472C25.2968 43.7224 26.1318 43.8311 26.8493 44.2466L36.1487 49.6157C36.8667 50.0295 37.3828 50.7029 37.6014 51.5112C37.82 52.3197 37.7154 53.1658 37.3066 53.8934L35.4809 57.1431C34.9114 58.1564 33.8635 58.7266 32.7864 58.7266ZM25.319 46.1368C25.2458 46.1368 25.1726 46.1466 25.1004 46.1664C24.888 46.2258 24.711 46.3652 24.6019 46.5594L22.7774 49.8082C22.5526 50.2084 22.6911 50.7191 23.0857 50.9475L32.3845 56.3166C32.7801 56.5442 33.2835 56.4039 33.5078 56.0038L35.3336 52.754C35.4422 52.5607 35.4703 52.3358 35.4116 52.1201C35.3535 51.9052 35.2165 51.7263 35.0254 51.6164L25.7257 46.2465C25.5997 46.1736 25.46 46.1368 25.319 46.1368Z" fill="#1F2E75"/>
<path d="M42.7413 41.0021C42.2233 41.0021 41.6983 40.87 41.2167 40.5929L31.9169 35.2228C30.4348 34.3668 29.9155 32.4478 30.7591 30.9444C30.7594 30.9436 32.5848 27.6946 32.5848 27.6946C32.9932 26.9672 33.6574 26.4438 34.4548 26.2226C35.2526 25.9988 36.0871 26.1067 36.8047 26.5222L46.1036 31.8904C47.586 32.7464 48.1053 34.6663 47.2614 36.1688L45.4367 39.4177C44.8664 40.4329 43.8185 41.0021 42.7413 41.0021ZM32.7324 32.0828C32.5076 32.483 32.6459 32.9945 33.0405 33.2231L42.34 38.5922C42.7356 38.8196 43.2388 38.6794 43.4636 38.2784L45.2881 35.0304C45.5128 34.6294 45.3746 34.1186 44.9798 33.8902L35.681 28.5219C35.4898 28.4114 35.2664 28.3844 35.0552 28.4419C34.8433 28.5012 34.6663 28.6406 34.5577 28.834L32.7324 32.0828Z" fill="#1F2E75"/>
<path d="M54.6464 57.5905C54.067 57.5905 53.497 57.4304 52.9871 57.1175L40.3415 49.3682C39.9694 49.1406 39.7583 48.7171 39.7983 48.2791C39.8377 47.8403 40.1206 47.4627 40.5268 47.3071C40.8638 47.1777 41.1365 46.9411 41.3157 46.6228C41.541 46.2217 41.5365 45.8387 41.4931 45.5878C41.4177 45.1535 41.5932 44.7147 41.9454 44.4557C42.2971 44.1977 42.7636 44.1643 43.1471 44.3739L56.1734 51.4461C56.945 51.8644 57.5042 52.5648 57.7472 53.4181C57.9897 54.2716 57.885 55.1671 57.4513 55.9395C57.018 56.711 56.3126 57.2595 55.4651 57.4834C55.1938 57.5554 54.9188 57.5905 54.6464 57.5905ZM42.9445 48.2738L54.1614 55.1482C54.3832 55.2831 54.6425 55.3208 54.8926 55.2561C55.1428 55.1896 55.3503 55.0287 55.478 54.8011C55.6061 54.5727 55.6372 54.3083 55.5654 54.0567C55.494 53.8056 55.3291 53.5989 55.1016 53.4758L43.5468 47.2019C43.4758 47.3943 43.3898 47.5822 43.2886 47.7621C43.1867 47.9428 43.0719 48.1137 42.9445 48.2738Z" fill="#1F2E75"/>
<path d="M39.9777 49.7089C39.3401 49.7089 38.6949 49.5471 38.1024 49.2045C37.7703 49.0139 37.4686 48.7728 37.2079 48.4897C36.8385 48.0894 36.799 47.4798 37.1139 47.0338C37.5822 46.3711 38.0231 45.6715 38.4253 44.9549C38.827 44.2408 39.1947 43.4989 39.5193 42.7508C39.737 42.2491 40.2713 41.9722 40.8018 42.0899C41.176 42.1726 41.5343 42.313 41.8678 42.5062C43.6873 43.5566 44.3259 45.9151 43.2886 47.7621C42.5879 49.0094 41.3006 49.7089 39.9777 49.7089ZM39.6359 47.3673C40.2784 47.5175 40.9719 47.2344 41.3157 46.6228C41.6585 46.0123 41.5463 45.2624 41.0892 44.7795C40.8709 45.2245 40.6399 45.6643 40.3982 46.094C40.1564 46.5248 39.9015 46.9511 39.6359 47.3673Z" fill="#1F2E75"/>
</g>
<defs>
<clipPath id="clip0_202_403">
<rect width="57.75" height="68.25" fill="white" transform="translate(0.125 0.875)"/>
</clipPath>
</defs>
</svg>
