<svg width="68" height="75" viewBox="0 0 68 75" fill="none" xmlns="http://www.w3.org/2000/svg">
<g clip-path="url(#clip0_202_423)">
<path d="M65.3543 2.63771C64.2313 1.52244 62.7417 0.902706 61.1532 0.882556C61.1276 0.881071 61.1034 0.875 61.0773 0.875H15.7394C12.4028 0.875 9.68859 3.57118 9.68859 6.8854C9.68859 6.88611 9.68865 6.88676 9.68865 6.88747C9.68865 6.88747 9.68859 6.88818 9.68859 6.88857V48.3889H6.23834C2.90182 48.3889 0.1875 51.0851 0.1875 54.3993C0.1875 57.7129 2.90182 60.4091 6.23834 60.4091H20.6647C21.3828 60.4091 21.9651 59.8308 21.9651 59.1175C21.9651 58.4042 21.3828 57.8258 20.6647 57.8258H11.2028C11.8858 56.8528 12.2895 55.6727 12.2895 54.3993V11.816C13.2691 12.4944 14.4572 12.8952 15.7394 12.8952H55.0231V54.3993C55.0231 56.2889 53.4756 57.8258 51.5731 57.8258H48.7522C48.034 57.8258 47.4517 58.4042 47.4517 59.1175C47.4517 59.8308 48.034 60.4091 48.7522 60.4091H51.5766C51.5778 60.4091 51.579 60.4088 51.5802 60.4088C54.9134 60.4049 57.624 57.7106 57.624 54.3993V12.8952H61.0427C61.0534 12.8955 61.0634 12.8983 61.0742 12.8983C64.4107 12.8983 67.125 10.2022 67.125 6.88857C67.125 5.28092 66.496 3.7717 65.3543 2.63771ZM2.78842 54.3993C2.78842 52.5098 4.3359 50.9722 6.23834 50.9722C8.14078 50.9722 9.68859 52.5098 9.68859 54.3993C9.68859 56.2889 8.14078 57.8258 6.23834 57.8258C4.3359 57.8258 2.78842 56.2889 2.78842 54.3993ZM12.2895 6.8854C12.2895 5.00232 13.827 3.47056 15.7205 3.46016C15.7269 3.46022 15.7329 3.46203 15.7394 3.46203H15.777C17.6617 3.48263 19.1896 5.00871 19.1896 6.8854C19.1896 8.77495 17.6418 10.3119 15.7394 10.3119C13.8369 10.3119 12.2895 8.77495 12.2895 6.8854ZM61.0915 10.3134C61.0866 10.3133 61.0822 10.3119 61.0773 10.3119H20.7038C21.3868 9.33888 21.7905 8.15877 21.7905 6.8854C21.7905 5.61339 21.388 4.43451 20.7065 3.46203H56.3235C56.3365 3.46203 56.3484 3.45861 56.3613 3.45829H61.0364C61.0493 3.45861 61.0612 3.46203 61.0742 3.46203C61.9977 3.46203 62.8645 3.81775 63.5151 4.46422C64.1656 5.11062 64.5241 5.97157 64.5241 6.88857C64.5241 8.77224 62.9858 10.3038 61.0915 10.3134Z" fill="#1F2E75"/>
<path d="M49.3892 65.6008L43.4032 59.9955C43.499 59.8258 43.585 59.6492 43.6515 59.4605C44.11 58.1588 43.7277 56.7359 42.6784 55.8347L42.6228 55.7874C42.3259 55.5326 42.2755 55.0873 42.5082 54.772L42.5504 54.7152C43.3048 53.696 43.4171 52.3647 42.8441 51.2395C42.1697 49.9163 40.7089 49.1873 39.2253 49.4616L39.1561 49.4749C38.764 49.5474 38.3868 49.3039 38.2855 48.9306L38.2667 48.8624C37.8657 47.3873 36.5596 46.3965 35.0166 46.3965C33.7577 46.3965 32.6519 47.0587 32.0582 48.1687L32.0251 48.2305C31.8451 48.5679 31.4177 48.7262 31.0533 48.5673L30.9885 48.5395C29.4899 47.895 27.7221 48.4373 26.8357 49.7801C26.2083 50.7293 26.1121 51.8765 26.5706 52.9259L26.5995 52.9928C26.756 53.3504 26.6068 53.7736 26.2585 53.9571L26.1969 53.9899C24.971 54.6364 24.2795 55.9394 24.4348 57.3092C24.5393 58.2314 25.0171 59.0326 25.7247 59.5722L19.2923 65.6008C18.9548 65.9174 18.8126 66.3885 18.919 66.837C19.0256 67.2854 19.3647 67.6436 19.8089 67.7773L24.671 69.2355L26.2766 73.5329C26.435 73.9568 26.8052 74.2677 27.2526 74.3522C27.3335 74.3673 27.4151 74.3749 27.4958 74.3749C27.8612 74.3749 28.2143 74.2216 28.4635 73.9461L34.3427 67.4435L40.2295 73.9461C40.4788 74.2216 40.8318 74.3749 41.1973 74.3749C41.2785 74.3749 41.3605 74.3673 41.4417 74.3516C41.8894 74.2665 42.2596 73.9549 42.4174 73.5304L44.0125 69.2355L48.873 67.7773C49.3175 67.6436 49.6566 67.2854 49.7629 66.837C49.8693 66.388 49.7268 65.9168 49.3892 65.6008ZM27.4183 56.2711L27.4799 56.2383C29.0169 55.4279 29.6785 53.5503 28.9861 51.9661L28.9572 51.8992C28.822 51.5902 28.9114 51.3467 29.0102 51.1973C29.2156 50.8863 29.5903 50.7539 29.9547 50.9103L30.0196 50.938C30.4443 51.1209 30.8936 51.2137 31.3549 51.2137C32.6008 51.2137 33.7377 50.535 34.3225 49.4414L34.3555 49.3796C34.5416 49.0315 34.8496 48.9798 35.0166 48.9798C35.115 48.9798 35.6119 49.0063 35.756 49.5367L35.7744 49.6042C36.1691 51.0566 37.5016 52.0714 39.0148 52.0714C39.2218 52.0714 39.4301 52.0518 39.6358 52.014L39.7053 52.0007C40.1921 51.9099 40.467 52.2946 40.5235 52.4062C40.601 52.5583 40.6946 52.861 40.454 53.1865L40.4118 53.2432C39.3812 54.6364 39.6056 56.6123 40.9217 57.7419L40.9769 57.7892C41.329 58.0913 41.2477 58.4615 41.1966 58.6065C41.1608 58.7082 41.0599 58.9015 40.8448 59.0167C40.8446 59.0169 40.8444 59.0171 40.8441 59.0173C40.7525 59.0662 40.6459 59.1044 40.5054 59.1098L40.4397 59.113C38.7011 59.1811 37.2851 60.5869 37.2162 62.3137L37.2133 62.3863C37.1924 62.9185 36.7396 63.1115 36.4402 63.1115C36.2234 63.1115 36.0361 63.0226 35.8855 62.8498L35.8366 62.7936C35.1982 62.0595 34.2714 61.6388 33.2942 61.6388C32.5747 61.6388 31.8873 61.8628 31.2984 62.2923L31.2492 62.3288C30.9082 62.5786 30.4555 62.4928 30.2046 62.1932C30.0621 62.0223 30.0119 61.8173 30.0554 61.5872L30.069 61.5147C30.3122 60.2241 29.7535 58.9456 28.7337 58.2056C28.6965 58.1786 28.6569 58.1574 28.6176 58.1347C28.3221 57.938 27.9984 57.7759 27.6389 57.6794L27.5748 57.6624C27.1256 57.5419 27.0366 57.173 27.0192 57.0204C27.002 56.8671 27.0059 56.4881 27.4183 56.2711ZM27.9663 70.6299L26.8846 67.7351C26.743 67.3567 26.4309 67.0653 26.0413 66.948L22.7108 65.949L27.4498 61.5077C27.3923 62.3555 27.6568 63.1892 28.2038 63.8431C28.8432 64.6088 29.8173 65.0654 30.8091 65.0647C31.2138 65.0647 31.6082 64.983 31.9849 64.8391L32.5937 65.5116L27.9663 70.6299ZM42.6406 66.948C42.25 67.0653 41.9377 67.3579 41.7964 67.7376L40.7236 70.6262L36.2484 65.6847C36.3123 65.6883 36.3755 65.6948 36.4402 65.6948C38.2598 65.6948 39.7412 64.2859 39.8123 62.4878L39.8152 62.4159C39.8307 62.0267 40.1501 61.7095 40.5486 61.6937L40.6137 61.6906C40.8528 61.6813 41.0828 61.6394 41.3076 61.5834L45.9701 65.9496L42.6406 66.948Z" fill="#1F2E75"/>
<path d="M41.6914 24.7679H28.1077C27.3895 24.7679 26.8073 24.1895 26.8073 23.4762C26.8073 22.763 27.3895 22.1846 28.1077 22.1846H41.6914C42.4096 22.1846 42.9919 22.763 42.9919 23.4762C42.9919 24.1895 42.4096 24.7679 41.6914 24.7679Z" fill="#1F2E75"/>
<path d="M44.6331 33.4778H25.1662C24.448 33.4778 23.8657 32.8995 23.8657 32.1862C23.8657 31.4729 24.448 30.8945 25.1662 30.8945H44.6331C45.3513 30.8945 45.9335 31.4729 45.9335 32.1862C45.9335 32.8995 45.3513 33.4778 44.6331 33.4778Z" fill="#1F2E75"/>
<path d="M44.6331 41.4607H25.1662C24.448 41.4607 23.8657 40.8824 23.8657 40.1691C23.8657 39.4558 24.448 38.8774 25.1662 38.8774H44.6331C45.3513 38.8774 45.9335 39.4558 45.9335 40.1691C45.9335 40.8824 45.3513 41.4607 44.6331 41.4607Z" fill="#1F2E75"/>
</g>
<defs>
<clipPath id="clip0_202_423">
<rect width="66.9375" height="73.5" fill="white" transform="translate(0.1875 0.875)"/>
</clipPath>
</defs>
</svg>
