<svg width="57" height="41" viewBox="0 0 57 41" fill="none" xmlns="http://www.w3.org/2000/svg">
<g clip-path="url(#clip0_202_606)">
<path d="M26.969 21.5701C26.4685 21.5701 26.0511 21.1774 26.026 20.6722L25.0948 1.8897H19.6553L18.7241 20.6722C18.6979 21.1933 18.2491 21.5897 17.7335 21.569C17.2124 21.5432 16.8108 21.0996 16.8366 20.5784L17.8125 0.8979C17.8376 0.3949 18.2524 0 18.7562 0H25.9939C26.4977 0 26.9125 0.3949 26.9376 0.8979L27.9135 20.5784C27.9393 21.0996 27.5377 21.5432 27.0166 21.569C27.0007 21.5698 26.9849 21.5701 26.969 21.5701Z" fill="#1F2E75"/>
<path d="M30.6642 21.5701H27.0786C26.5567 21.5701 26.1338 21.1472 26.1338 20.6253C26.1338 20.1034 26.5567 19.6804 27.0786 19.6804H30.6642C31.1861 19.6804 31.6091 20.1034 31.6091 20.6253C31.6091 21.1472 31.1861 21.5701 30.6642 21.5701Z" fill="#1F2E75"/>
<path d="M43.1783 21.5701H35.7967C35.2748 21.5701 34.8518 21.1472 34.8518 20.6253C34.8518 20.1034 35.2748 19.6804 35.7967 19.6804H43.1783C43.7001 19.6804 44.1231 20.1034 44.1231 20.6253C44.1231 21.1472 43.7001 21.5701 43.1783 21.5701Z" fill="#1F2E75"/>
<path d="M52.9672 40.883H4.02829C3.77469 40.883 3.53149 40.7811 3.354 40.5999C3.17639 40.4191 3.079 40.1744 3.08339 39.9208L3.44139 20.6079L4.125 0.912C4.1423 0.4034 4.5601 0 5.0691 0H12.9135C13.4158 0 13.8307 0.393 13.8569 0.895L14.8977 20.5755C14.9254 21.0966 14.5253 21.5414 14.0041 21.5687C13.4756 21.6096 13.0386 21.1963 13.0109 20.6751L12.0174 1.8897H5.9818L5.3304 20.6581L4.9908 38.9933H52.0224V21.5701H48.0728C47.551 21.5701 47.128 21.1472 47.128 20.6253C47.128 20.1034 47.551 19.6804 48.0728 19.6804H52.9672C53.4891 19.6804 53.9121 20.1034 53.9121 20.6253V39.9382C53.9121 40.46 53.4891 40.883 52.9672 40.883Z" fill="#1F2E75"/>
<path d="M52.9663 21.5701C52.778 21.5701 52.588 21.514 52.4226 21.3974L44.1231 15.5475V20.4415C44.1231 20.9634 43.7001 21.3863 43.1783 21.3863C42.6564 21.3863 42.2334 20.9634 42.2334 20.4415V13.7257C42.2334 13.3729 42.4301 13.0496 42.7431 12.8868C43.0565 12.7244 43.434 12.7502 43.7227 12.9536L53.5114 19.8532C53.9377 20.1536 54.0399 20.743 53.7391 21.1697C53.5553 21.4306 53.263 21.5701 52.9663 21.5701Z" fill="#1F2E75"/>
<path d="M40.6904 21.5701C40.5022 21.5701 40.3121 21.514 40.1467 21.3974L31.8472 15.5475V20.6253C31.8472 21.1472 31.4243 21.5701 30.9024 21.5701C30.3805 21.5701 29.9575 21.1472 29.9575 20.6253V13.7257C29.9575 13.3729 30.1543 13.0496 30.4672 12.8868C30.7798 12.7244 31.1578 12.7502 31.4468 12.9536L41.2355 19.8532C41.6618 20.1536 41.764 20.743 41.4632 21.1697C41.2794 21.4306 40.9871 21.5701 40.6904 21.5701Z" fill="#1F2E75"/>
<path d="M17.7804 21.5701H13.9541C13.4322 21.5701 13.0093 21.1472 13.0093 20.6253C13.0093 20.1034 13.4322 19.6804 13.9541 19.6804H17.7804C18.3022 19.6804 18.7252 20.1034 18.7252 20.6253C18.7252 21.1472 18.3022 21.5701 17.7804 21.5701Z" fill="#1F2E75"/>
<path d="M12.8182 26.6797H8.56711C8.04521 26.6797 7.62231 26.2567 7.62231 25.7348C7.62231 25.213 8.04521 24.79 8.56711 24.79H12.8182C13.3401 24.79 13.763 25.213 13.763 25.7348C13.763 26.2567 13.3401 26.6797 12.8182 26.6797Z" fill="#1F2E75"/>
<path d="M12.8182 30.7185H8.56711C8.04521 30.7185 7.62231 30.2956 7.62231 29.7737C7.62231 29.2518 8.04521 28.8288 8.56711 28.8288H12.8182C13.3401 28.8288 13.763 29.2518 13.763 29.7737C13.763 30.2956 13.3401 30.7185 12.8182 30.7185Z" fill="#1F2E75"/>
<path d="M12.8182 34.757H8.56711C8.04521 34.757 7.62231 34.334 7.62231 33.8122C7.62231 33.2903 8.04521 32.8673 8.56711 32.8673H12.8182C13.3401 32.8673 13.763 33.2903 13.763 33.8122C13.763 34.334 13.3401 34.757 12.8182 34.757Z" fill="#1F2E75"/>
<path d="M21.7208 26.6797H17.4697C16.9478 26.6797 16.5249 26.2567 16.5249 25.7348C16.5249 25.213 16.9478 24.79 17.4697 24.79H21.7208C22.2426 24.79 22.6656 25.213 22.6656 25.7348C22.6656 26.2567 22.2426 26.6797 21.7208 26.6797Z" fill="#1F2E75"/>
<path d="M21.7208 30.7185H17.4697C16.9478 30.7185 16.5249 30.2956 16.5249 29.7737C16.5249 29.2518 16.9478 28.8288 17.4697 28.8288H21.7208C22.2426 28.8288 22.6656 29.2518 22.6656 29.7737C22.6656 30.2956 22.2426 30.7185 21.7208 30.7185Z" fill="#1F2E75"/>
<path d="M21.7208 34.757H17.4697C16.9478 34.757 16.5249 34.334 16.5249 33.8122C16.5249 33.2903 16.9478 32.8673 17.4697 32.8673H21.7208C22.2426 32.8673 22.6656 33.2903 22.6656 33.8122C22.6656 34.334 22.2426 34.757 21.7208 34.757Z" fill="#1F2E75"/>
<path d="M30.6233 26.6797H26.3718C25.8499 26.6797 25.427 26.2567 25.427 25.7348C25.427 25.213 25.8499 24.79 26.3718 24.79H30.6233C31.1451 24.79 31.5681 25.213 31.5681 25.7348C31.5681 26.2567 31.1451 26.6797 30.6233 26.6797Z" fill="#1F2E75"/>
<path d="M30.6233 30.7185H26.3718C25.8499 30.7185 25.427 30.2956 25.427 29.7737C25.427 29.2518 25.8499 28.8288 26.3718 28.8288H30.6233C31.1451 28.8288 31.5681 29.2518 31.5681 29.7737C31.5681 30.2956 31.1451 30.7185 30.6233 30.7185Z" fill="#1F2E75"/>
<path d="M30.6233 34.757H26.3718C25.8499 34.757 25.427 34.334 25.427 33.8122C25.427 33.2903 25.8499 32.8673 26.3718 32.8673H30.6233C31.1451 32.8673 31.5681 33.2903 31.5681 33.8122C31.5681 34.334 31.1451 34.757 30.6233 34.757Z" fill="#1F2E75"/>
<path d="M39.5255 26.6797H35.2744C34.7525 26.6797 34.3296 26.2567 34.3296 25.7348C34.3296 25.213 34.7525 24.79 35.2744 24.79H39.5255C40.0474 24.79 40.4703 25.213 40.4703 25.7348C40.4703 26.2567 40.0474 26.6797 39.5255 26.6797Z" fill="#1F2E75"/>
<path d="M39.5255 30.7185H35.2744C34.7525 30.7185 34.3296 30.2956 34.3296 29.7737C34.3296 29.2518 34.7525 28.8288 35.2744 28.8288H39.5255C40.0474 28.8288 40.4703 29.2518 40.4703 29.7737C40.4703 30.2956 40.0474 30.7185 39.5255 30.7185Z" fill="#1F2E75"/>
<path d="M39.5255 34.757H35.2744C34.7525 34.757 34.3296 34.334 34.3296 33.8122C34.3296 33.2903 34.7525 32.8673 35.2744 32.8673H39.5255C40.0474 32.8673 40.4703 33.2903 40.4703 33.8122C40.4703 34.334 40.0474 34.757 39.5255 34.757Z" fill="#1F2E75"/>
<path d="M48.4282 26.6797H44.1771C43.6552 26.6797 43.2322 26.2567 43.2322 25.7348C43.2322 25.213 43.6552 24.79 44.1771 24.79H48.4282C48.95 24.79 49.373 25.213 49.373 25.7348C49.373 26.2567 48.95 26.6797 48.4282 26.6797Z" fill="#1F2E75"/>
<path d="M48.4282 30.7185H44.1771C43.6552 30.7185 43.2322 30.2956 43.2322 29.7737C43.2322 29.2518 43.6552 28.8288 44.1771 28.8288H48.4282C48.95 28.8288 49.373 29.2518 49.373 29.7737C49.373 30.2956 48.95 30.7185 48.4282 30.7185Z" fill="#1F2E75"/>
<path d="M48.4282 34.757H44.1771C43.6552 34.757 43.2322 34.334 43.2322 33.8122C43.2322 33.2903 43.6552 32.8673 44.1771 32.8673H48.4282C48.95 32.8673 49.373 33.2903 49.373 33.8122C49.373 34.334 48.95 34.757 48.4282 34.757Z" fill="#1F2E75"/>
<path d="M56.0504 40.883H0.944905C0.423 40.883 0 40.46 0 39.9382C0 39.4163 0.423 38.9933 0.944905 38.9933H56.0504C56.5723 38.9933 56.9953 39.4163 56.9953 39.9382C56.9953 40.46 56.5723 40.883 56.0504 40.883Z" fill="#1F2E75"/>
</g>
<defs>
<clipPath id="clip0_202_606">
<rect width="56.9953" height="40.883" fill="white"/>
</clipPath>
</defs>
</svg>
