<svg width="53" height="53" viewBox="0 0 53 53" fill="none" xmlns="http://www.w3.org/2000/svg">
<path d="M52.9256 29.5004C52.9255 29.5001 52.9255 29.5 52.9254 29.4997L42.9187 4.37396C42.7064 3.8401 42.1012 3.57948 41.5674 3.79185C41.567 3.79198 41.5666 3.79211 41.5662 3.79237L0.970697 19.9571C0.805143 20.0287 0.661567 20.1428 0.554535 20.288C0.216924 20.4634 0.00364141 20.8106 0 21.191V48.2415C0 48.8161 0.465841 49.2819 1.0404 49.2819H44.7374C45.3119 49.2819 45.7778 48.8161 45.7778 48.2415V33.4678L52.3448 30.8522C52.8785 30.6393 53.1385 30.0341 52.9256 29.5004ZM43.697 47.2011H2.08081V22.2314H43.697V47.2011ZM17.3591 20.1558L34.7797 13.2143C36.3344 14.8485 38.4887 15.7773 40.7443 15.7861L42.4818 20.1558H17.3591ZM45.7778 31.233V21.191C45.7778 20.6165 45.3119 20.1506 44.7374 20.1506H44.7207L42.5161 14.6136C42.4917 14.5674 42.4632 14.5235 42.4308 14.4825C42.3192 13.9814 41.8552 13.6395 41.3436 13.6814C39.2448 13.8727 37.1917 12.9886 35.8887 11.3322C35.5645 10.932 34.9946 10.8325 34.5539 11.0991C34.5045 11.105 34.4554 11.1141 34.4072 11.1262L13.1393 19.5951C12.8819 19.696 12.676 19.8961 12.5681 20.1506H6.10925L41.3706 6.11039L50.6084 29.3062L45.7778 31.233Z" fill="#1F2E75"/>
<path d="M4.90447 40.1774C6.92441 40.7744 8.50505 42.3531 9.10458 44.3723C9.23606 44.813 9.64143 45.115 10.1013 45.1151C10.1553 45.1117 10.2088 45.1037 10.2615 45.0912C10.3082 45.1045 10.3559 45.1142 10.404 45.1203H35.3737C35.4167 45.1147 35.4591 45.106 35.5007 45.0943C36.0205 45.2207 36.5443 44.902 36.6709 44.3822C36.6712 44.3802 36.6718 44.3784 36.6722 44.3764C37.2701 42.3552 38.851 40.7743 40.8723 40.1763C41.3624 40.0265 41.667 39.538 41.586 39.0319C41.5999 38.9814 41.6099 38.9299 41.6162 38.8779V30.5547C41.61 30.5025 41.5996 30.451 41.5849 30.4007C41.6665 29.8944 41.3618 29.4057 40.8712 29.2563C38.85 28.6584 37.2695 27.0769 36.6732 25.0551C36.5226 24.5616 36.0293 24.2562 35.5204 24.3414C35.4723 24.328 35.4233 24.3182 35.3737 24.3123H10.404C10.3516 24.3185 10.2997 24.3289 10.249 24.3435C9.743 24.2628 9.25479 24.5673 9.10458 25.0572C8.50622 27.078 6.92545 28.6584 4.90447 29.2563C4.41431 29.4061 4.10973 29.8945 4.19075 30.4007C4.17723 30.4513 4.16747 30.5027 4.16162 30.5547V38.8779C4.1676 38.9268 4.17736 38.9752 4.19075 39.0225C4.10544 39.5319 4.41067 40.0259 4.90447 40.1774ZM6.24243 30.9771C8.33156 30.138 9.98736 28.4822 10.8264 26.3931H34.9503C35.7898 28.4822 37.446 30.138 39.5354 30.9771V38.4555C37.4469 39.2955 35.7913 40.951 34.9513 43.0395H10.8264C9.98645 40.951 8.33091 39.2955 6.24243 38.4555V30.9771Z" fill="#1F2E75"/>
<path d="M22.8889 40.9587C26.3365 40.9587 29.1313 38.1639 29.1313 34.7163C29.1313 31.2687 26.3365 28.4739 22.8889 28.4739C19.4413 28.4739 16.6465 31.2687 16.6465 34.7163C16.6499 38.1625 19.4427 40.9553 22.8889 40.9587ZM22.8889 30.5547C25.1873 30.5547 27.0505 32.4179 27.0505 34.7163C27.0505 37.0147 25.1873 38.8779 22.8889 38.8779C20.5905 38.8779 18.7273 37.0147 18.7273 34.7163C18.7273 32.4179 20.5905 30.5547 22.8889 30.5547Z" fill="#1F2E75"/>
<path d="M11.4445 36.2769C12.3064 36.2769 13.0051 35.5781 13.0051 34.7163C13.0051 33.8545 12.3064 33.1557 11.4445 33.1557C10.5827 33.1557 9.88391 33.8545 9.88391 34.7163C9.88391 35.5783 10.5827 36.2769 11.4445 36.2769ZM11.4445 34.1961C11.7318 34.1961 11.9647 34.429 11.9647 34.7163C11.9647 35.0036 11.7318 35.2365 11.4445 35.2365C11.1572 35.2365 10.9243 35.0036 10.9243 34.7163C10.9243 34.429 11.1572 34.1961 11.4445 34.1961Z" fill="#1F2E75"/>
<path d="M34.3333 36.2769C35.1952 36.2769 35.8939 35.5781 35.8939 34.7163C35.8939 33.8545 35.1952 33.1557 34.3333 33.1557C33.4715 33.1557 32.7727 33.8545 32.7727 34.7163C32.7727 35.5783 33.4715 36.2769 34.3333 36.2769ZM34.3333 34.1961C34.6206 34.1961 34.8535 34.429 34.8535 34.7163C34.8535 35.0036 34.6206 35.2365 34.3333 35.2365C34.046 35.2365 33.8131 35.0036 33.8131 34.7163C33.8131 34.429 34.046 34.1961 34.3333 34.1961Z" fill="#1F2E75"/>
</svg>
