<svg width="48" height="41" viewBox="0 0 48 41" fill="none" xmlns="http://www.w3.org/2000/svg">
<path d="M13.76 41H6.08C5.55 41 5.12 40.5628 5.12 40.0238V19.1984C5.12 18.6595 5.55 18.2222 6.08 18.2222H13.76C14.29 18.2222 14.72 18.6595 14.72 19.1984V40.0238C14.72 40.5628 14.29 41 13.76 41ZM7.04 39.0476H12.8V20.1746H7.04V39.0476Z" fill="#1F2E75"/>
<path d="M27.84 41H20.16C19.63 41 19.2 40.5627 19.2 40.0238V21.8016C19.2 21.2626 19.63 20.8254 20.16 20.8254H27.84C28.37 20.8254 28.8 21.2626 28.8 21.8016V40.0238C28.8 40.5627 28.37 41 27.84 41ZM21.12 39.0476H26.88V22.7778H21.12V39.0476Z" fill="#1F2E75"/>
<path d="M41.92 41H34.24C33.71 41 33.28 40.5628 33.28 40.0238V11.3889C33.28 10.85 33.71 10.4127 34.24 10.4127H41.92C42.45 10.4127 42.88 10.85 42.88 11.3889V40.0238C42.88 40.5628 42.45 41 41.92 41ZM35.2 39.0476H40.96V12.3651H35.2V39.0476Z" fill="#1F2E75"/>
<path d="M35.5199 7.15873C34.9899 7.15873 34.5599 6.72148 34.5599 6.18254V1.95238H30.3999C29.8699 1.95238 29.4399 1.51513 29.4399 0.976191C29.4399 0.437252 29.8699 0 30.3999 0H35.5199C36.0499 0 36.4799 0.437252 36.4799 0.976191V6.18254C36.4799 6.72148 36.0499 7.15873 35.5199 7.15873Z" fill="#1F2E75"/>
<path d="M20.8 16.9206C20.5537 16.9206 20.3087 16.8253 20.1212 16.6346L15.9225 12.3651H6.08C5.55 12.3651 5.12 11.9278 5.12 11.3889C5.12 10.85 5.55 10.4127 6.08 10.4127H16.32C16.575 10.4127 16.8187 10.5157 16.9987 10.6987L20.8 14.5641L34.8412 0.285993C35.2162 -0.0953311 35.8237 -0.0953311 36.1987 0.285993C36.5737 0.667318 36.5737 1.28506 36.1987 1.66639L21.4787 16.6346C21.2912 16.8253 21.0462 16.9206 20.8 16.9206Z" fill="#1F2E75"/>
<path d="M47.04 41H0.96C0.43 41 0 40.5627 0 40.0238C0 39.4849 0.43 39.0476 0.96 39.0476H47.04C47.57 39.0476 48 39.4849 48 40.0238C48 40.5627 47.57 41 47.04 41Z" fill="#1F2E75"/>
</svg>
