<svg width="66" height="66" viewBox="0 0 66 66" fill="none" xmlns="http://www.w3.org/2000/svg">
<g clip-path="url(#clip0_202_653)">
<path fill-rule="evenodd" clip-rule="evenodd" d="M38.7533 33.1786L44.3714 35.6755C46.2112 36.4932 47.4 38.3226 47.4004 40.336V53H52.7V40.1173L50.3361 37.7534C50.1875 37.8658 50.028 37.967 49.8567 38.0527C49.7179 38.122 49.5704 38.1549 49.4251 38.1549C49.0705 38.1549 48.729 37.959 48.5597 37.6202C48.3208 37.1426 48.5144 36.5619 48.992 36.3231C49.3671 36.1357 49.6001 35.7588 49.6001 35.3395V33.9693C48.3336 32.8449 47.5333 31.2062 47.5333 29.3833V28.2818C47.498 28.2832 47.4748 28.2835 47.4668 28.2835C46.9329 28.2835 46.5 27.8506 46.5 27.3167V25.2501C46.5 21.8681 49.2515 19.1166 52.6335 19.1166H54.7001C58.0821 19.1166 60.8336 21.8681 60.8336 25.2501V27.3167C60.8336 27.8506 60.4008 28.2835 59.8668 28.2835C59.8557 28.2835 59.8446 28.2833 59.8336 28.2832C59.8225 28.283 59.8115 28.2829 59.8003 28.2829V29.3833C59.8003 31.2061 59.0002 32.8447 57.7337 33.9692V35.3393C57.7337 35.7585 57.9666 36.1355 58.3416 36.323L63.7522 39.0284C65.1388 39.7218 66.0002 41.1155 66.0001 42.6657V53H69.5V55H-3V53H0V44.7325C0 43.1821 0.861353 41.7884 2.248 41.0949L5.59196 39.4229C5.96695 39.2354 6.19989 38.8585 6.19989 38.4391V36.3131C4.32881 35.0186 3.09994 32.8589 3.09994 30.4165V28.3499C3.09994 25.8278 4.41054 23.6075 6.38538 22.3299C6.26318 21.9396 6.20002 21.5338 6.20002 21.1165C6.20002 18.8742 8.0243 17.0498 10.2668 17.0498C12.5092 17.0498 14.3335 18.8741 14.3335 21.1165C14.3335 21.5287 14.2698 21.9385 14.1479 22.3297C16.1229 23.6074 17.4336 25.8277 17.4336 28.3499V30.4169C17.4336 32.8592 16.2047 35.019 14.3336 36.3135V38.4395C14.3336 38.8587 14.5666 39.2356 14.9417 39.4232L15.8637 39.8843C16.3413 40.123 16.535 40.7038 16.2961 41.1814C16.1267 41.52 15.7852 41.7159 15.4306 41.7159C15.2852 41.7159 15.1377 41.6831 14.9989 41.6136L14.0768 41.1525C13.9055 41.0669 13.7462 40.9657 13.5974 40.8532L11.2336 43.2171V53H18.6001V40.3359C18.6001 38.3225 19.789 36.493 21.6289 35.6754L27.2469 33.1785C27.6437 33.0021 27.9001 32.6075 27.9001 32.1734V30.6305C26.013 29.1269 24.8001 26.8114 24.8001 24.2165V23.7896C24.709 23.7407 24.6215 23.6842 24.5383 23.6201C24.0481 23.2412 23.7668 22.6491 23.7668 21.9956V20.0832C23.7668 15.5617 27.4454 11.8831 31.9669 11.8831H34.0336C38.5551 11.8831 42.2337 15.5617 42.2337 20.0832V20.294C42.2337 21.0375 41.8221 21.7014 41.2004 22.0449V24.2166C41.2004 26.8115 39.9874 29.1271 38.1002 30.6308V32.1735C38.1002 32.6077 38.3564 33.0023 38.7533 33.1786ZM20.5337 53H23.7668V44.1006C23.7668 43.5307 23.5448 42.9951 23.142 42.5921L20.5533 40.0034C20.5417 40.1133 20.5337 40.224 20.5337 40.336V53ZM25.7004 53H32.0336V39.0835L27.9376 34.9875L22.4143 37.4423C22.0348 37.611 21.7012 37.8502 21.4232 38.1387L24.5093 41.2249C25.2775 41.9931 25.7004 43.0143 25.7004 44.1006V53ZM33.9672 53H40.3002V44.1006C40.3002 43.0143 40.7232 41.9931 41.4913 41.2249L44.5775 38.1388C44.2994 37.8502 43.9658 37.611 43.5863 37.4423L38.0632 34.9877L33.9672 39.0837V53ZM42.2338 53H45.4668V40.3359C45.4668 40.2239 45.4588 40.1134 45.4472 40.0036L42.8586 42.5921C42.4557 42.9951 42.2338 43.5308 42.2338 44.1006V53ZM9.29996 53V43.2172L6.9362 40.8533C6.78757 40.9657 6.62811 41.0669 6.4568 41.1526L3.11283 42.8245C2.94293 42.9096 2.78863 43.0153 2.65109 43.1367L2.66322 43.1475C2.67018 43.1536 2.67716 43.1597 2.68383 43.1664L4.87589 45.3584C5.64391 46.1266 6.06698 47.1478 6.06698 48.2341V53H9.29996ZM4.13339 53V48.2341C4.13339 47.6642 3.91141 47.1286 3.50858 46.7256L1.9336 45.1507V53H4.13339ZM64.0665 53V42.6657C64.0665 42.4786 64.0415 42.2962 63.9958 42.1212L62.4916 43.6254C62.0887 44.0284 61.8668 44.5641 61.8668 45.1339V53H64.0665ZM59.9332 53V45.1339C59.9332 44.0476 60.3563 43.0264 61.1243 42.2583L62.7123 40.6703L57.4768 38.0524C57.3055 37.9668 57.1461 37.8656 56.9974 37.7531L54.6336 40.117V53H59.9332ZM29.4059 33.7218L33 37.316L36.5942 33.7219C36.3208 33.262 36.1665 32.7301 36.1665 32.1735V31.7802C35.1917 32.1899 34.122 32.4168 33.0001 32.4168C31.8782 32.4168 30.8084 32.1898 29.8335 31.7801V32.1735C29.8335 32.73 29.6792 33.262 29.4059 33.7218ZM26.7336 24.2166C26.7336 27.672 29.5448 30.4832 33.0001 30.483C36.4555 30.483 39.2667 27.6718 39.2667 24.2165V22.4694C36.5996 22.7899 32.2187 22.7358 29.2165 19.7335C28.8389 19.3561 28.8389 18.7439 29.2165 18.3663C29.5939 17.9888 30.2061 17.9888 30.5836 18.3663C31.5633 19.346 34.4671 21.501 40.2564 20.3576C40.2811 20.3527 40.3 20.3255 40.3 20.2941V20.0834C40.3 16.628 37.4889 13.8168 34.0334 13.8168H31.9668C28.5115 13.8168 25.7003 16.628 25.7003 20.0834V21.9957C25.7003 22.0412 25.7097 22.0696 25.7166 22.0831C25.7226 22.0826 25.7309 22.0813 25.7423 22.0783C26.2113 21.9559 26.6944 21.6675 27.1779 21.2211C27.5704 20.859 28.182 20.8836 28.5441 21.2759C28.9063 21.6683 28.8817 22.2799 28.4894 22.642C27.9257 23.1622 27.3369 23.5427 26.7336 23.7818V24.2166ZM12.3999 21.1165C12.3999 19.9404 11.443 18.9834 10.2668 18.9834C9.09049 18.9834 8.13361 19.9403 8.13361 21.1165C8.13361 21.2458 8.14805 21.3722 8.17035 21.4966C8.8337 21.2931 9.53753 21.1831 10.2668 21.1831C10.997 21.1831 11.7017 21.2935 12.3661 21.4975C12.3883 21.3731 12.3999 21.2461 12.3999 21.1165ZM15.5 28.35C15.5 25.4644 13.1523 23.1168 10.2668 23.1168C7.42617 23.1168 5.10856 25.3921 5.03702 28.2159C5.6898 28.0011 6.5937 27.5559 7.51654 26.6331C7.71467 26.435 7.98924 26.3327 8.26871 26.3523C8.54818 26.3722 8.80534 26.5124 8.97357 26.7366C9.07605 26.8708 11.4749 29.9327 15.5 28.7004V28.35ZM8.03268 39.2151L10.2668 41.4492L12.5008 39.2151C12.4356 38.966 12.3999 38.706 12.3999 38.4393V37.2591C11.7259 37.4698 11.0093 37.5833 10.2668 37.5833C9.52426 37.5833 8.80766 37.4698 8.13361 37.2591V38.4393C8.13361 38.706 8.09791 38.9658 8.03268 39.2151ZM5.03354 30.4165C5.03354 33.3021 7.38119 35.6497 10.2668 35.6497C13.0558 35.6497 15.3418 33.4565 15.4917 30.7041C14.8331 30.8596 14.2101 30.9272 13.6279 30.9272C12.0957 30.9272 10.8413 30.469 9.93302 29.9736C9.16512 29.5548 8.5621 29.0665 8.14019 28.6684C6.94767 29.6275 5.80453 30.0391 5.03354 30.2162V30.4165ZM48.4335 26.151V25.2499H48.4336C48.4336 22.9341 50.3177 21.05 52.6335 21.05H54.7001C57.0159 21.05 58.9 22.9341 58.9 25.2499V26.3239C54.6973 26.0971 52.1611 24.4617 52.1364 24.4456C51.9729 24.3365 51.7862 24.2831 51.6004 24.2831C51.3509 24.2831 51.1034 24.3796 50.9165 24.5664C49.9914 25.4914 49.0851 25.9366 48.4335 26.151ZM53.6668 38.3493L51.4327 36.1152C51.498 35.8659 51.5337 35.606 51.5337 35.3393V35.1335C52.1983 35.3808 52.917 35.5167 53.6668 35.5167C54.4167 35.5167 55.1353 35.3808 55.8 35.1335V35.3393C55.8 35.606 55.8355 35.8659 55.9009 36.1152L53.6668 38.3493ZM53.6668 33.5832C51.351 33.5832 49.4669 31.6993 49.4669 29.3833V27.8247C50.1441 27.5542 50.933 27.124 51.7358 26.44C52.7511 26.9683 54.8752 27.8813 57.8667 28.183V29.3833C57.8667 31.6991 55.9826 33.5832 53.6668 33.5832Z" fill="#1F2E75"/>
</g>
<defs>
<clipPath id="clip0_202_653">
<rect width="66" height="66" fill="white"/>
</clipPath>
</defs>
</svg>
