<svg width="100" height="100" viewBox="0 0 100 100" fill="none" xmlns="http://www.w3.org/2000/svg">
<rect width="100" height="100" fill="white"/>
<path fill-rule="evenodd" clip-rule="evenodd" d="M49.5368 18.0431C48.7036 18.0431 48.0293 17.3699 48.0293 16.5377V7.50557C48.0293 6.67339 48.7036 6 49.5368 6C50.3698 6 51.044 6.67339 51.044 7.50557V16.5377C51.044 17.3699 50.3698 18.0431 49.5368 18.0431ZM39.5086 73.6669C39.1947 68.7745 37.0026 64.0437 33.258 60.2308C28.2192 55.1016 25.9347 48.0406 26.9916 40.8592C28.4608 30.8654 36.8453 22.7976 46.9254 21.6759C53.5097 20.9466 59.8363 22.9519 64.735 27.3285C69.5646 31.6446 72.335 37.8307 72.335 44.2992C72.335 50.3796 69.9622 56.0968 65.6521 60.3953C61.9386 64.0986 59.7937 68.7777 59.548 73.6636C61.578 74.106 63.1023 75.915 63.1023 78.0733C63.1023 80.1394 61.7057 81.8851 59.8059 82.4188V86.1414C61.7057 86.6751 63.1023 88.421 63.1023 90.4869C63.1023 92.9759 61.0753 95.0001 58.5833 95.0001H40.488C37.9975 95.0001 35.9705 92.9759 35.9705 90.4869C35.9705 88.4201 37.3683 86.6736 39.2686 86.1407V82.4195C37.3683 81.8866 35.9705 80.1403 35.9705 78.0733C35.9705 75.9204 37.4872 74.1151 39.5086 73.6669ZM58.3129 79.5759L58.2984 79.5758H40.7758L40.7612 79.5759H40.488C39.6595 79.5759 38.9852 78.9025 38.9852 78.0733C38.9852 77.2443 39.6595 76.5709 40.488 76.5709H58.5833C59.4136 76.5709 60.0878 77.2443 60.0878 78.0733C60.0878 78.9025 59.4136 79.5759 58.5833 79.5759H58.3129ZM42.2831 82.5865V85.9735H56.7911V82.5865H42.2831ZM56.5347 73.56H42.5228C42.1826 67.9149 39.6876 62.4786 35.41 58.1227C31.0367 53.6711 29.0555 47.5392 29.9741 41.2973C31.2487 32.6339 38.5175 25.6407 47.258 24.6689C52.987 24.0296 58.4761 25.7744 62.7244 29.5718C66.9165 33.3174 69.3202 38.6864 69.3202 44.2992C69.3202 49.5753 67.2609 54.5355 63.5206 58.2653C59.2621 62.5139 56.8054 67.909 56.5347 73.56ZM40.488 88.9845C39.6595 88.9845 38.9852 89.6579 38.9852 90.4869C38.9852 91.3161 39.6595 91.9894 40.488 91.9894H58.5833C59.4136 91.9894 60.0878 91.3161 60.0878 90.4869C60.0878 89.6579 59.4136 88.9845 58.5833 88.9845H40.488ZM68.2588 25.7875C68.5532 26.0818 68.9388 26.2286 69.3245 26.2286C69.7101 26.2286 70.0958 26.0818 70.3901 25.7875L76.7846 19.4015C77.3733 18.8136 77.3733 17.8609 76.7846 17.2727C76.1957 16.6848 75.2418 16.6848 74.6531 17.2727L68.2588 23.659C67.6699 24.2469 67.6699 25.1996 68.2588 25.7875ZM86.5645 45.9914H77.5207C76.6874 45.9914 76.0134 45.318 76.0134 44.4858C76.0134 43.6539 76.6874 42.9805 77.5207 42.9805H86.5645C87.3977 42.9805 88.072 43.6539 88.072 44.4858C88.072 45.318 87.3977 45.9914 86.5645 45.9914ZM12.5073 45.9914H21.5513C22.3843 45.9914 23.0586 45.318 23.0586 44.4858C23.0586 43.6539 22.3843 42.9805 21.5513 42.9805H12.5073C11.674 42.9805 11 43.6539 11 44.4858C11 45.318 11.674 45.9914 12.5073 45.9914ZM29.7483 26.2286C29.3626 26.2286 28.977 26.0818 28.6827 25.7875L22.2869 19.4015C21.698 18.8136 21.698 17.8609 22.2869 17.2727C22.8756 16.6848 23.8295 16.6848 24.4184 17.2727L30.8142 23.659C31.4028 24.2469 31.4028 25.1996 30.8142 25.7875C30.5196 26.0818 30.1339 26.2286 29.7483 26.2286ZM52.3892 70.7818C52.5101 70.8126 52.6308 70.8257 52.7499 70.8257C53.4269 70.8257 54.0437 70.3656 54.2117 69.679L57.425 56.601C57.5648 56.0379 57.366 55.4455 56.9172 55.078C56.4653 54.709 55.847 54.634 55.3216 54.8795C51.646 56.601 47.4287 56.604 43.7502 54.8795C43.2262 54.634 42.6049 54.709 42.1546 55.078C41.7055 55.4455 41.5067 56.0379 41.6468 56.601L44.8601 69.679C45.0571 70.4861 45.8787 70.989 46.6823 70.7818C47.4905 70.5847 47.9851 69.7687 47.7863 68.9616L45.2457 58.6194C48.0617 59.3736 51.013 59.3708 53.826 58.6194L51.2852 68.9616C51.0867 69.7687 51.581 70.5847 52.3892 70.7818Z" fill="#1F2E75"/>
</svg>
