<svg width="100" height="100" viewBox="0 0 100 100" fill="none" xmlns="http://www.w3.org/2000/svg">
<rect width="100" height="100" fill="white"/>
<path fill-rule="evenodd" clip-rule="evenodd" d="M67.7283 24.7291C67.7283 17.8407 73.1709 12.313 80.0593 12.313C86.9477 12.313 92.4754 17.7556 92.4754 24.644C92.4754 31.5324 86.8626 37.0601 80.0593 37.0601C73.256 37.0601 67.7283 31.6174 67.7283 24.7291ZM70.3646 24.644C70.3646 30.0016 74.7017 34.3388 80.0593 34.3388C85.4169 34.3388 89.7541 30.0867 89.7541 24.7291C89.7541 19.3714 85.4169 15.0343 80.0593 15.0343C74.7867 15.0343 70.3646 19.2864 70.3646 24.644ZM83.9107 26.3897C83.9277 26.4552 83.9455 26.5238 83.9709 26.5999C84.0559 26.855 84.0559 27.0251 84.0559 27.2802C84.0559 27.6204 84.0559 27.8755 83.9709 28.1306L83.7158 28.896C83.6487 28.9966 83.5948 29.0973 83.5437 29.1927L83.5437 29.1928L83.5437 29.1928C83.4653 29.3393 83.3935 29.4734 83.2905 29.5763C83.1205 29.8315 82.9504 30.0015 82.7803 30.1716C82.7042 30.2224 82.6356 30.2731 82.5701 30.3216C82.4161 30.4357 82.2789 30.5372 82.1 30.5968C81.8448 30.7669 81.5897 30.852 81.3346 30.937H81.2495V32.2977V32.7229H80.8243H79.6338H79.2085V32.2977V31.022H79.0385C78.7833 31.022 78.6133 31.022 78.3581 30.937C78.2411 30.898 78.1241 30.8769 78.0153 30.8573C77.8869 30.8341 77.7699 30.813 77.6778 30.7669C77.5077 30.7669 77.2526 30.6819 77.0825 30.5968C77.0534 30.5871 77.0254 30.5775 76.9982 30.568C76.7864 30.4946 76.6185 30.4365 76.3171 30.5118L76.062 30.4268V30.1716L76.2321 28.6409L76.3171 28.0456L76.8274 28.3007C76.8699 28.3007 76.9124 28.322 76.9549 28.3432C76.9975 28.3645 77.04 28.3858 77.0825 28.3858C77.125 28.3858 77.1676 28.407 77.2101 28.4283C77.2526 28.4495 77.2951 28.4708 77.3376 28.4708C77.4227 28.5133 77.5077 28.5346 77.5928 28.5558C77.6778 28.5771 77.7628 28.5984 77.8479 28.6409C78.018 28.7259 78.188 28.811 78.3581 28.811C78.3934 28.811 78.4432 28.8256 78.5015 28.8427C78.5841 28.8668 78.6837 28.896 78.7833 28.896H79.2085H79.5487H79.8889C79.9885 28.896 80.0882 28.8668 80.1707 28.8427C80.229 28.8256 80.2789 28.811 80.3141 28.811C80.3566 28.7684 80.4204 28.7472 80.4842 28.7259C80.548 28.7047 80.6117 28.6834 80.6543 28.6409C80.8243 28.5558 80.9094 28.4708 80.9944 28.3858L81.2495 28.1306C81.3346 28.0456 81.4196 27.8755 81.4196 27.7905V27.3653C81.4196 27.2656 81.3904 27.166 81.3663 27.0835C81.3492 27.0251 81.3346 26.9753 81.3346 26.9401C81.3021 26.8751 81.282 26.8225 81.2649 26.7776C81.2371 26.705 81.2171 26.6524 81.1645 26.5999L80.9094 26.3448C80.8243 26.3448 80.7393 26.2597 80.6543 26.1747C80.6117 26.1322 80.548 26.1109 80.4842 26.0896C80.4204 26.0684 80.3566 26.0471 80.3141 26.0046C80.229 25.9196 80.059 25.8345 79.9739 25.8345C79.8038 25.7495 79.5487 25.6644 79.2936 25.5794C79.2421 25.5536 79.1828 25.5201 79.1181 25.4835C78.969 25.3991 78.7911 25.2985 78.6133 25.2392C78.5731 25.2191 78.5282 25.1991 78.4808 25.1779C78.3275 25.1093 78.1479 25.029 78.018 24.8991C77.7628 24.814 77.5928 24.6439 77.4227 24.4738C77.3376 24.3888 77.2738 24.3038 77.2101 24.2187C77.1463 24.1337 77.0825 24.0486 76.9975 23.9636C76.9549 23.8786 76.8912 23.7723 76.8274 23.666C76.7636 23.5597 76.6998 23.4534 76.6573 23.3683C76.538 23.1893 76.5024 23.0522 76.4624 22.8982C76.4454 22.8327 76.4276 22.7641 76.4022 22.688C76.3171 22.4329 76.3171 22.2628 76.3171 22.0076C76.3171 21.7525 76.3171 21.4124 76.4022 21.1572L76.6573 20.3919C76.7423 20.1367 76.8274 19.8816 76.9975 19.7115C77.1675 19.4564 77.3376 19.2863 77.5077 19.1162C77.6778 18.9461 77.8479 18.7761 78.103 18.691C78.3581 18.5209 78.6133 18.4359 78.8684 18.3509H78.9534V17.0752V16.65H79.3786H80.5692H80.9944V17.0752V18.2658H81.0795C81.1645 18.2658 81.2283 18.2871 81.2921 18.3083C81.3559 18.3296 81.4196 18.3509 81.5047 18.3509C81.6043 18.3509 81.7039 18.38 81.7865 18.4042C81.8448 18.4213 81.8947 18.4359 81.9299 18.4359C82.0295 18.4359 82.1 18.4651 82.1583 18.4893C82.1996 18.5063 82.2348 18.5209 82.27 18.5209C82.3126 18.5209 82.3763 18.5422 82.4401 18.5635C82.5039 18.5847 82.5677 18.606 82.6102 18.606L82.9504 18.691V19.0312L82.7803 20.3919L82.6953 20.9021L82.27 20.732C82.2348 20.732 82.1996 20.7174 82.1583 20.7003C82.1 20.6762 82.0295 20.647 81.9299 20.647C81.8874 20.647 81.8236 20.6257 81.7598 20.6045C81.696 20.5832 81.6322 20.5619 81.5897 20.5619C81.5545 20.5619 81.5047 20.5473 81.4463 20.5303C81.3638 20.5061 81.2641 20.4769 81.1645 20.4769C80.9944 20.3919 80.9094 20.3919 80.7393 20.3919H80.4842H80.229C80.059 20.3919 79.9739 20.3919 79.8038 20.4769C79.6338 20.4769 79.4637 20.5619 79.3786 20.647L79.1235 20.9021C79.081 20.9446 79.0597 21.0084 79.0385 21.0722C79.0172 21.136 78.9959 21.1997 78.9534 21.2423C78.9534 21.2848 78.9322 21.3486 78.9109 21.4124C78.8896 21.4761 78.8684 21.5399 78.8684 21.5824V22.0076C78.8684 22.0927 78.8684 22.2628 78.9534 22.3478C78.9534 22.5179 79.0385 22.6029 79.1235 22.688L79.3786 22.9431C79.4212 22.9856 79.4849 23.0069 79.5487 23.0281C79.6125 23.0494 79.6763 23.0707 79.7188 23.1132C79.7613 23.1557 79.8251 23.177 79.8889 23.1982C79.9527 23.2195 80.0164 23.2407 80.059 23.2833C80.144 23.3683 80.3141 23.4534 80.3991 23.4534C80.5692 23.5384 80.8243 23.6234 81.0795 23.7085C81.207 23.751 81.3133 23.8148 81.4196 23.8786C81.5259 23.9423 81.6322 24.0061 81.7598 24.0486C81.7999 24.0687 81.8448 24.0888 81.8922 24.11C82.0456 24.1786 82.2252 24.2589 82.3551 24.3888C82.6102 24.4738 82.7803 24.6439 82.9504 24.814C83.0354 24.8991 83.0992 24.9841 83.163 25.0691C83.2268 25.1542 83.2905 25.2392 83.3756 25.3243C83.5055 25.4542 83.5858 25.6337 83.6544 25.787L83.6544 25.7871C83.6756 25.8345 83.6957 25.8794 83.7158 25.9196C83.8351 26.0985 83.8707 26.2357 83.9107 26.3897ZM74.1057 38.6758C73.6805 38.0805 72.745 37.9955 72.1497 38.4207L58.373 49.391L40.5993 41.9924C40.1741 41.8223 39.6638 41.9074 39.3237 42.1625L20.2744 55.7691C19.6791 56.1944 19.509 57.0448 19.9342 57.6401C20.1893 58.0653 20.6145 58.2354 21.0397 58.2354C21.2949 58.2354 21.55 58.1503 21.8051 57.9802L40.2591 44.7988L58.1179 52.1974C58.5431 52.3675 59.1384 52.2824 59.4785 52.0273L73.8506 40.6317C74.4459 40.2065 74.5309 39.2711 74.1057 38.6758ZM87.7126 85.2786H94.0057C94.771 85.2786 95.3663 85.8739 95.2813 86.6393C95.2813 87.4047 94.686 88 93.9206 88H86.2669H73.7658H66.4522H53.9511H46.6375H34.1364H26.6527H14.1516H6.49787C5.7325 88 5.13721 87.4047 5.13721 86.6393C5.13721 85.8739 5.7325 85.2786 6.49787 85.2786H12.876V65.4639C12.876 64.6986 13.4713 64.1033 14.2367 64.1033H26.8228C27.5882 64.1033 28.1835 64.6986 28.1835 65.4639V85.2786H32.7757V57.47C32.7757 56.7046 33.371 56.1094 34.1364 56.1094H46.6375C47.4029 56.1094 47.9982 56.7046 47.9982 57.47V85.2786H52.5904V59.511C52.5904 58.7456 53.1857 58.1504 53.9511 58.1504H66.5372C67.3026 58.1504 67.8979 58.7456 67.8979 59.511V85.2786H72.4902V45.9044C72.4902 45.139 73.0854 44.5437 73.8508 44.5437H86.3519C87.1173 44.5437 87.7126 45.139 87.7126 45.9044V85.2786ZM15.5973 85.2786H25.3771V66.8246H15.5973V85.2786ZM35.4971 85.2786H45.2768V58.8307H35.4971V85.2786ZM55.3118 85.2786H65.0915V60.8717H55.3118V85.2786ZM75.2115 85.2786H84.9913V47.265H75.2115V85.2786Z" fill="#1F2E75"/>
</svg>
