<svg width="100" height="100" viewBox="0 0 100 100" fill="none" xmlns="http://www.w3.org/2000/svg">
<rect width="100" height="100" fill="white"/>
<path fill-rule="evenodd" clip-rule="evenodd" d="M8.47577 52.4044L12.2032 51.2104C12.6806 51.0574 13.0569 50.6763 13.2096 50.1909C13.9951 47.6932 15.1806 45.3484 16.7331 43.2212C17.4407 42.2517 18.2275 41.3259 19.087 40.4445C18.5371 38.0321 18.2382 35.3019 18.2769 32.9432C18.3324 29.5689 19.0067 27.5899 20.3383 26.8924C21.0555 26.5163 23.238 25.3739 35.0515 30.7816C35.3313 30.9096 35.5925 31.0672 35.8344 31.2478C36.6309 31.0338 37.4449 30.8358 38.2639 30.6581C38.3193 30.646 38.3756 30.6347 38.4319 30.6234C38.4759 30.6146 38.52 30.6058 38.5635 30.5966C37.6063 28.5054 37.0473 26.2341 36.9422 23.8894C36.9095 23.1586 37.4753 22.5397 38.2061 22.5072C38.935 22.4709 39.5558 23.04 39.5884 23.7709C39.7609 27.6261 41.3602 31.2535 44.0913 33.9847C45.723 35.6165 47.6337 36.8018 49.67 37.5483C53.2014 37.0528 56.7984 37.0528 60.3298 37.5483C62.3663 36.8018 64.2767 35.6165 65.9085 33.9847C68.8223 31.071 70.427 27.1969 70.427 23.0761C70.427 18.9552 68.8223 15.0813 65.9085 12.1675C62.9947 9.25354 59.1205 7.64878 54.9999 7.64878C50.8793 7.64878 47.005 9.25354 44.0913 12.1675C42.9203 13.3384 41.9528 14.6746 41.2153 16.1386C40.8863 16.792 40.0899 17.055 39.4367 16.7258C38.7834 16.397 38.5205 15.6006 38.8495 14.9474C39.7138 13.2307 40.8472 11.6654 42.2181 10.2944C45.6322 6.88025 50.1715 5 54.9997 5C59.8279 5 64.3672 6.88025 67.7813 10.2944C71.1954 13.7086 73.0756 18.2478 73.0756 23.0759C73.0756 27.9041 71.1954 32.4434 67.7813 35.8575C66.7965 36.8424 65.7251 37.6893 64.5918 38.3988L64.5908 38.3986C65.4142 38.6126 66.2314 38.8529 67.0396 39.123C67.7333 39.355 68.1076 40.1052 67.8757 40.7991C67.6439 41.4928 66.8933 41.8671 66.1998 41.6353C58.9774 39.2208 51.022 39.2208 43.7996 41.6353C43.6602 41.6819 43.5188 41.7039 43.3796 41.7039C42.8256 41.7039 42.3091 41.3534 42.1237 40.7991C41.8918 40.1054 42.2661 39.355 42.9598 39.123C43.768 38.8529 44.5852 38.6124 45.4086 38.3986L45.4076 38.3988C44.2741 37.6893 43.2029 36.8424 42.2181 35.8575C41.3469 34.9863 40.5778 34.0349 39.91 33.0237C39.545 33.0947 39.1826 33.1689 38.8255 33.2464C38.3499 33.3497 37.8764 33.4606 37.4072 33.577L37.4122 33.5967L37.4123 33.5968C37.4254 33.6478 37.4385 33.6987 37.4493 33.7505C38.0952 36.8155 38.0533 39.5263 37.3247 41.8072C36.67 43.8574 35.4882 45.5183 33.8127 46.7441C31.8379 48.1887 29.4538 48.8128 27.2941 48.8128C25.6687 48.8128 24.1702 48.4591 23.0697 47.8358C21.8249 47.1307 20.7819 45.645 19.9563 43.4144C19.5748 43.8598 19.2131 44.3161 18.8722 44.7832C17.4899 46.6768 16.4347 48.7637 15.7359 50.9858C15.3255 52.2909 14.3067 53.3178 13.0108 53.7332L9.2834 54.9272C8.30533 55.2405 7.64824 56.1408 7.64824 57.1677V63.3484C7.64824 64.3754 8.30533 65.2756 9.2834 65.5889L15.2889 67.5126C16.2497 67.8206 17.0628 68.4809 17.5784 69.372C19.9379 73.4496 23.6474 76.8239 28.6045 79.4012C29.1772 79.6993 29.5739 80.2323 29.6933 80.864L31.6168 91.0487C31.6699 91.3293 31.9157 91.5328 32.2014 91.5328H38.4553C38.7409 91.5328 38.9867 91.3291 39.0399 91.0487L40.1052 85.42C40.3149 84.3126 41.3536 83.5769 42.4716 83.7463C45.1655 84.1537 47.9413 84.36 50.7216 84.36C52.7901 84.36 54.8321 84.2447 56.7913 84.017C57.8746 83.8924 58.8837 84.6309 59.0862 85.7005L60.0985 91.0487C60.1517 91.3293 60.3975 91.5328 60.6831 91.5328H66.9371C67.2227 91.5328 67.4685 91.3291 67.5223 91.0444L69.3743 81.4251C69.4936 80.8053 69.8828 80.2783 70.4429 79.9792C78.8931 75.4681 83.3595 67.9315 83.3595 58.1845C83.3595 53.2599 82.2821 48.9052 80.1573 45.241C78.1745 41.8216 75.2785 38.9944 71.5498 36.8376C70.9167 36.4712 70.7004 35.6611 71.0665 35.0279C71.4327 34.3948 72.2428 34.1788 72.876 34.5446C80.1061 38.7271 84.4668 45.1795 85.6674 53.3749V53.3747L85.7448 53.3677C85.8465 53.3586 85.9482 53.3494 86.0495 53.339C86.0264 52.4547 86.1864 51.5625 86.5348 50.6966C87.3031 48.7866 88.8814 47.4081 90.5558 47.1847C91.8753 47.0081 93.131 47.5683 94.0024 48.7196C95.266 50.3893 95.06 51.7106 94.6649 52.5249C93.9978 53.8994 92.2832 54.8716 89.4379 55.4828C89.5161 55.5999 89.6021 55.7176 89.6963 55.8358C91.3775 57.9442 93.3582 58.4104 94.6442 58.4543C95.3971 58.4797 96 59.0842 96 59.8376V59.844C96 60.5871 95.4137 61.1932 94.6713 61.2272C94.5762 61.2316 94.4768 61.2339 94.3734 61.2339C92.746 61.2339 90.1342 60.6337 87.625 57.4873C87.2288 56.9907 86.906 56.4667 86.6579 55.9254C86.408 55.9536 86.1679 55.9778 85.9379 55.9991L85.9379 55.9983L85.9377 55.9977C85.9829 56.7154 86.0079 57.4436 86.0079 58.1845C86.0079 63.6993 84.6933 68.6163 82.1006 72.7996C79.7101 76.6565 76.2875 79.8145 71.9245 82.1893L70.124 91.541C69.8345 93.0709 68.4942 94.1814 66.9371 94.1814H60.6831C59.126 94.1814 57.7857 93.0709 57.4962 91.541L56.5808 86.7052C54.6798 86.9066 52.7115 87.0086 50.7218 87.0086C47.9918 87.0086 45.265 86.8184 42.6075 86.4431L41.6426 91.5414C41.3529 93.0713 40.0126 94.1816 38.4557 94.1816H32.2017C30.6446 94.1816 29.3043 93.0711 29.0146 91.5406L27.1418 81.6247C21.851 78.827 17.863 75.1518 15.2862 70.6985C15.1005 70.3775 14.8145 70.142 14.4811 70.0351L8.47577 68.1115C6.39681 67.4452 5 65.5312 5 63.3481V57.1674C5 54.9844 6.39681 53.0704 8.47577 52.4044ZM21.1244 36.6648C21.6342 41.0239 23.0015 44.7528 24.3754 45.5309C25.9369 46.4155 29.5423 46.5863 32.2492 44.6062C34.9593 42.6237 35.8613 39.0587 34.858 34.2965V34.2963C34.7572 33.818 34.4173 33.4043 33.949 33.1899C27.3188 30.1549 23.4963 29.1623 22.0762 29.1623C21.8618 29.1623 21.7022 29.1849 21.5959 29.2264C21.1694 29.6811 20.6099 32.2655 21.1244 36.6648ZM92.2816 51.3684C92.4187 51.0858 92.0952 50.589 91.8901 50.3178C91.565 49.8884 91.2655 49.8006 91.0393 49.8006C90.9914 49.8006 90.9468 49.8045 90.906 49.81C90.297 49.8913 89.4439 50.5613 88.9919 51.6848C88.8855 51.9493 88.7472 52.3874 88.7148 52.9337C90.5482 52.5539 91.9725 52.0063 92.2816 51.3684ZM20.9067 52.188C21.6381 52.188 22.231 52.7809 22.231 53.5123C22.231 54.4395 22.9853 55.1938 23.9125 55.1938C24.8396 55.1938 25.5941 54.4395 25.5941 53.5123C25.5941 52.7807 26.187 52.188 26.9184 52.188C27.6498 52.188 28.2427 52.7809 28.2427 53.5123C28.2427 55.9 26.3 57.8424 23.9125 57.8424C21.525 57.8424 19.5824 55.8998 19.5824 53.5123C19.5824 52.7806 20.1753 52.188 20.9067 52.188ZM55.6983 16.8189V21.558C57.7294 22.305 59.9474 23.3325 59.9474 26.5075C59.9474 29.3792 58.2198 30.9667 55.6983 31.317V32.1108C55.6983 32.3909 55.3481 32.6477 54.9978 32.6477C54.6009 32.6477 54.3207 32.3909 54.3207 32.1108V31.3871C51.4257 31.3403 49.4646 29.7761 49.4646 28.6322C49.4646 28.0718 49.9548 27.3013 50.5385 27.3013C50.8265 27.3013 51.0949 27.5297 51.4425 27.8254C52.0249 28.3209 52.8294 29.0054 54.3207 29.1224V23.6359C52.2195 22.8889 49.8848 22.0484 49.8848 19.0599C49.8848 16.1182 52.1027 14.9509 54.3207 14.7173V14.0404C54.3207 13.7602 54.6008 13.5034 54.9978 13.5034C55.348 13.5034 55.6983 13.7602 55.6983 14.0404V14.671C57.2858 14.7177 59.5272 15.2079 59.5272 16.352C59.5272 16.7956 59.2004 17.6827 58.4999 17.6827C58.2829 17.6827 58.0588 17.5706 57.7707 17.4264C57.3151 17.1985 56.6994 16.8904 55.6983 16.8189ZM52.2195 18.8267C52.2195 20.1574 53.2233 20.6476 54.4607 21.1145V16.8656C53.1533 17.029 52.2195 17.6126 52.2195 18.8267ZM55.558 24.1495V29.0756C56.8187 28.8423 57.6125 28.0952 57.6125 26.7642C57.6125 25.2934 56.7019 24.6397 55.558 24.1495Z" fill="#1F2E75"/>
</svg>
